<?xml version="1.0" encoding="UTF-8" standalone="no"?>
<svg
   width="461.63196"
   height="865.89844"
   viewBox="0 0 122.14012 229.1023"
   version="1.1"
   id="svg8"
   inkscape:version="1.2 (dc2aedaf03, 2022-05-15)"
   sodipodi:docname="fuentes.svg"
   inkscape:export-filename="fuentes.png"
   inkscape:export-xdpi="96"
   inkscape:export-ydpi="96"
   xmlns:inkscape="http://www.inkscape.org/namespaces/inkscape"
   xmlns:sodipodi="http://sodipodi.sourceforge.net/DTD/sodipodi-0.dtd"
   xmlns:xlink="http://www.w3.org/1999/xlink"
   xmlns="http://www.w3.org/2000/svg"
   xmlns:svg="http://www.w3.org/2000/svg"
   xmlns:rdf="http://www.w3.org/1999/02/22-rdf-syntax-ns#"
   xmlns:cc="http://creativecommons.org/ns#"
   xmlns:dc="http://purl.org/dc/elements/1.1/">
  <defs
     id="defs2">
    <radialGradient
       inkscape:collect="always"
       xlink:href="#XMLID_18_"
       id="radialGradient1385"
       gradientUnits="userSpaceOnUse"
       cx="131.353"
       cy="59.631302"
       r="55.666401" />
    <radialGradient
       inkscape:collect="always"
       xlink:href="#XMLID_18_"
       id="radialGradient1387"
       gradientUnits="userSpaceOnUse"
       cx="131.353"
       cy="59.631302"
       r="55.666401" />
    <radialGradient
       inkscape:collect="always"
       xlink:href="#XMLID_18_"
       id="radialGradient1389"
       gradientUnits="userSpaceOnUse"
       cx="131.353"
       cy="59.631302"
       r="55.666401" />
    <radialGradient
       inkscape:collect="always"
       xlink:href="#XMLID_18_"
       id="radialGradient1391"
       gradientUnits="userSpaceOnUse"
       cx="131.353"
       cy="59.631302"
       r="55.666401" />
    <radialGradient
       inkscape:collect="always"
       xlink:href="#XMLID_18_"
       id="radialGradient1393"
       gradientUnits="userSpaceOnUse"
       cx="131.353"
       cy="59.631302"
       r="55.666401" />
    <radialGradient
       inkscape:collect="always"
       xlink:href="#XMLID_18_"
       id="radialGradient1395"
       gradientUnits="userSpaceOnUse"
       cx="131.353"
       cy="59.631302"
       r="55.666401" />
    <radialGradient
       inkscape:collect="always"
       xlink:href="#XMLID_18_"
       id="radialGradient1397"
       gradientUnits="userSpaceOnUse"
       cx="131.353"
       cy="59.631302"
       r="55.666401" />
    <radialGradient
       inkscape:collect="always"
       xlink:href="#XMLID_18_"
       id="radialGradient1399"
       gradientUnits="userSpaceOnUse"
       cx="131.353"
       cy="59.631302"
       r="55.666401" />
    <radialGradient
       inkscape:collect="always"
       xlink:href="#XMLID_18_"
       id="radialGradient1401"
       gradientUnits="userSpaceOnUse"
       cx="131.353"
       cy="59.631302"
       r="55.666401" />
  </defs>
  <sodipodi:namedview
     id="base"
     pagecolor="#ffffff"
     bordercolor="#666666"
     borderopacity="1.0"
     inkscape:pageopacity="0.0"
     inkscape:pageshadow="2"
     inkscape:zoom="0.60903603"
     inkscape:cx="123.14542"
     inkscape:cy="608.33839"
     inkscape:document-units="mm"
     inkscape:current-layer="layer1"
     inkscape:document-rotation="0"
     showgrid="false"
     units="px"
     inkscape:window-width="1920"
     inkscape:window-height="1009"
     inkscape:window-x="-8"
     inkscape:window-y="1072"
     inkscape:window-maximized="1"
     inkscape:showpageshadow="2"
     inkscape:pagecheckerboard="0"
     inkscape:deskcolor="#d1d1d1" />
  <metadata
     id="metadata5">
    <rdf:RDF>
      <cc:Work
         rdf:about="">
        <dc:format>image/svg+xml</dc:format>
        <dc:type
           rdf:resource="http://purl.org/dc/dcmitype/StillImage" />
      </cc:Work>
    </rdf:RDF>
  </metadata>
  <g
     inkscape:label="Capa 1"
     inkscape:groupmode="layer"
     id="layer1"
     transform="translate(-81.804943,-5.04044)">
    <g
       style="overflow:visible"
       id="g1078"
       transform="matrix(0.46282589,0,0,0.46282589,82.11732,82.621025)">
      <g
         id="g988">
        <g
           id="g855">
          <g
             id="g853">
            <path
               id="path833"
               d="m 3.034,86.053 h 15.347 c 17.196,0 32.383,5.785 32.383,28.044 0,22.259 -15.187,28.043 -32.383,28.043 H 3.034 Z m 11.247,47.248 h 6.27 c 9.401,0 18.482,-6.991 18.482,-19.204 0,-12.216 -9.081,-19.204 -18.482,-19.204 h -6.27 z"
               stroke-width="6.0671"
               stroke="#ffffff"
               fill="#ffffff" />
            <path
               id="path835"
               d="m 51.404,86.053 h 19.608 c 7.231,0 18.078,2.088 18.078,14.383 0,6.668 -4.5,11.33 -11.17,12.537 v 0.16 c 7.635,0.722 12.858,5.867 12.858,12.775 0,14.144 -12.697,16.231 -19.767,16.231 H 51.404 Z m 11.25,22.662 h 4.581 c 4.739,0 10.606,-1.048 10.606,-6.834 0,-6.506 -5.705,-6.988 -10.847,-6.988 h -4.341 v 13.822 z m 0,24.586 h 5.304 c 5.223,0 11.572,-1.284 11.572,-7.795 0,-7.312 -5.948,-8.437 -11.572,-8.437 h -5.304 z"
               stroke-width="6.0671"
               stroke="#ffffff"
               fill="#ffffff" />
            <path
               id="path837"
               d="m 114.804,99.794 c -6.349,0 -10.446,2.812 -12.856,6.829 h -0.162 v -5.866 H 91.501 v 58.257 h 9.038 c 0.728,-0.402 1.328,-1.041 1.73,-1.987 v -19.628 h 0.159 c 3.777,4.58 7.553,5.707 12.135,5.707 12.936,0 17.597,-10.445 17.597,-21.777 0,-11.413 -4.661,-21.535 -17.356,-21.535 z m -2.973,34.954 c -7.152,0 -9.484,-7.554 -9.484,-13.42 0,-5.785 2.734,-13.178 9.644,-13.178 6.99,0 8.919,7.635 8.919,13.178 0,5.707 -2.009,13.42 -9.079,13.42 z"
               stroke-width="6.0671"
               stroke="#ffffff"
               fill="#ffffff" />
            <path
               id="path839"
               d="m 100.54,159.014 h 1.73 v -1.987 c -0.403,0.946 -1.002,1.584 -1.73,1.987 z"
               stroke-width="6.0671"
               stroke="#ffffff"
               fill="#ffffff" />
            <path
               id="path841"
               d="m 165.748,139.811 c -3.938,2.168 -8.438,3.295 -14.225,3.295 -13.658,0 -21.613,-7.876 -21.613,-21.455 0,-11.973 6.348,-21.856 19.204,-21.856 15.347,0 19.687,10.526 19.687,24.991 h -28.606 c 0.483,6.666 5.144,10.444 11.813,10.444 5.221,0 9.722,-1.929 13.74,-4.177 z m -7.231,-22.418 c -0.323,-5.223 -2.732,-9.726 -8.76,-9.726 -6.026,0 -9.079,4.179 -9.562,9.726 z"
               stroke-width="6.0671"
               stroke="#ffffff"
               fill="#ffffff" />
            <path
               id="path843"
               d="m 205.762,81.874 h -9.319 v 23.705 h -0.16 c -3.215,-3.938 -6.99,-5.785 -12.374,-5.785 -12.698,0 -17.358,10.122 -17.358,21.534 0,11.332 4.66,21.777 17.358,21.777 5.061,0 9.482,-1.607 12.695,-5.627 h 0.161 v 4.661 h 10.446 V 83.52 c -0.365,-0.743 -0.859,-1.281 -1.449,-1.646 z m -18.882,52.874 c -7.069,0 -9.08,-7.713 -9.08,-13.42 0,-5.543 1.93,-13.178 8.921,-13.178 6.91,0 9.643,7.393 9.643,13.178 -0.001,5.866 -2.334,13.42 -9.484,13.42 z"
               stroke-width="6.0671"
               stroke="#ffffff"
               fill="#ffffff" />
            <path
               id="path845"
               d="m 205.762,81.874 c 0.59,0.365 1.084,0.903 1.449,1.646 v -1.646 z"
               stroke-width="6.0671"
               stroke="#ffffff"
               fill="#ffffff" />
            <rect
               id="rect847"
               height="41.382999"
               width="10.768"
               stroke-width="6.0671"
               stroke="#ffffff"
               fill="#ffffff"
               y="100.757"
               x="210.505" />
            <rect
               id="rect849"
               height="10.287"
               width="10.768"
               stroke-width="6.0671"
               stroke="#ffffff"
               fill="#ffffff"
               y="82.917999"
               x="210.505" />
            <path
               id="path851"
               d="m 226.415,102.926 c 4.176,-1.927 9.802,-3.132 14.382,-3.132 12.615,0 17.841,5.222 17.841,17.437 v 5.305 c 0,4.178 0.081,7.312 0.158,10.366 0.082,3.132 0.242,6.023 0.484,9.238 h -9.482 c -0.402,-2.169 -0.402,-4.899 -0.483,-6.185 h -0.159 c -2.49,4.58 -7.875,7.15 -12.778,7.15 -7.312,0 -14.463,-4.419 -14.463,-12.293 0,-6.188 2.973,-9.805 7.071,-11.812 4.1,-2.01 9.402,-2.411 13.902,-2.411 h 5.946 c 0,-6.673 -2.973,-8.922 -9.321,-8.922 -4.58,0 -9.162,1.771 -12.776,4.503 z m 12.615,32.303 c 3.295,0 5.864,-1.446 7.553,-3.693 1.767,-2.331 2.251,-5.308 2.251,-8.52 h -4.661 c -4.821,0 -11.972,0.804 -11.972,7.151 0,3.534 2.972,5.062 6.829,5.062 z"
               stroke-width="6.0671"
               stroke="#ffffff"
               fill="#ffffff" />
          </g>
        </g>
        <g
           id="g920">
          <linearGradient
             y2="93.6968"
             x2="215.8887"
             y1="82.426804"
             x1="215.8887"
             gradientUnits="userSpaceOnUse"
             id="XMLID_14_">
            <stop
               id="stop857"
               style="stop-color:#003048"
               offset="0" />
            <stop
               id="stop859"
               style="stop-color:#00324A"
               offset="0.1626" />
            <stop
               id="stop861"
               style="stop-color:#00364F"
               offset="0.3076" />
            <stop
               id="stop863"
               style="stop-color:#003E57"
               offset="0.4458" />
            <stop
               id="stop865"
               style="stop-color:#004962"
               offset="0.5798" />
            <stop
               id="stop867"
               style="stop-color:#00576F"
               offset="0.7109" />
            <stop
               id="stop869"
               style="stop-color:#35697E"
               offset="0.8397" />
            <stop
               id="stop871"
               style="stop-color:#608090"
               offset="0.9645" />
            <stop
               id="stop873"
               style="stop-color:#6D8896"
               offset="1" />
          </linearGradient>
          <path
             id="path876"
             d="m 210.505,93.697 h 10.768 c 0.271,0 0.491,-0.221 0.491,-0.492 V 82.918 c 0,-0.271 -0.22,-0.491 -0.491,-0.491 h -10.768 c -0.271,0 -0.491,0.22 -0.491,0.491 v 10.287 c 0,0.272 0.219,0.492 0.491,0.492 z"
             fill="url(#XMLID_14_)"
             style="fill:url(#XMLID_14_)" />
          <linearGradient
             y2="143.5977"
             x2="234.89259"
             y1="99.302696"
             x1="234.89259"
             gradientUnits="userSpaceOnUse"
             id="XMLID_15_">
            <stop
               id="stop878"
               style="stop-color:#003048"
               offset="0" />
            <stop
               id="stop880"
               style="stop-color:#00324A"
               offset="0.1626" />
            <stop
               id="stop882"
               style="stop-color:#00364F"
               offset="0.3076" />
            <stop
               id="stop884"
               style="stop-color:#003E57"
               offset="0.4458" />
            <stop
               id="stop886"
               style="stop-color:#004962"
               offset="0.5798" />
            <stop
               id="stop888"
               style="stop-color:#00576F"
               offset="0.7109" />
            <stop
               id="stop890"
               style="stop-color:#35697E"
               offset="0.8397" />
            <stop
               id="stop892"
               style="stop-color:#608090"
               offset="0.9645" />
            <stop
               id="stop894"
               style="stop-color:#6D8896"
               offset="1" />
          </linearGradient>
          <path
             id="path897"
             d="m 259.287,132.889 -0.004,-0.154 -0.154,-10.199 v -5.305 c 0,-12.566 -5.482,-17.928 -18.332,-17.928 -4.679,0 -10.405,1.247 -14.588,3.178 -0.18,0.082 -0.292,0.265 -0.285,0.463 l 0.321,9.243 c 0.007,0.183 0.114,0.348 0.28,0.427 0.165,0.078 0.361,0.059 0.507,-0.052 3.703,-2.798 8.252,-4.403 12.48,-4.403 6.169,0 8.661,2.258 8.803,7.939 -0.865,0 -5.428,0 -5.428,0 -6.208,0 -10.694,0.782 -14.118,2.461 -3.87,1.896 -6.199,4.903 -7.006,8.928 0,-12.227 0,-26.729 0,-26.729 0,-0.271 -0.22,-0.491 -0.491,-0.491 h -10.768 c -0.271,0 -0.491,0.22 -0.491,0.491 v 41.383 c 0,0.271 0.22,0.491 0.491,0.491 h 10.768 c 0.271,0 0.491,-0.22 0.491,-0.491 0,0 0,-5.696 0,-8.433 1.558,6.443 8.258,9.891 14.613,9.891 5.024,0 9.868,-2.508 12.505,-6.324 0.055,1.43 0.131,3.324 0.434,4.955 0.043,0.233 0.246,0.402 0.482,0.402 h 9.482 c 0.137,0 0.268,-0.057 0.36,-0.157 0.092,-0.1 0.14,-0.234 0.129,-0.371 -0.254,-3.405 -0.404,-6.247 -0.481,-9.215 z m -13.096,-1.649 c -1.721,2.289 -4.196,3.498 -7.161,3.498 -1.905,0 -6.338,-0.445 -6.338,-4.57 0,-4.482 3.755,-6.66 11.48,-6.66 0,0 3.329,0 4.146,0 -0.063,3.4 -0.729,5.888 -2.127,7.732 z"
             fill="url(#XMLID_15_)"
             style="fill:url(#XMLID_15_)" />
          <linearGradient
             y2="159.50591"
             x2="105.1221"
             y1="81.382797"
             x1="105.1221"
             gradientUnits="userSpaceOnUse"
             id="XMLID_16_">
            <stop
               id="stop899"
               style="stop-color:#003048"
               offset="0" />
            <stop
               id="stop901"
               style="stop-color:#00324A"
               offset="0.1626" />
            <stop
               id="stop903"
               style="stop-color:#00364F"
               offset="0.3076" />
            <stop
               id="stop905"
               style="stop-color:#003E57"
               offset="0.4458" />
            <stop
               id="stop907"
               style="stop-color:#004962"
               offset="0.5798" />
            <stop
               id="stop909"
               style="stop-color:#00576F"
               offset="0.7109" />
            <stop
               id="stop911"
               style="stop-color:#35697E"
               offset="0.8397" />
            <stop
               id="stop913"
               style="stop-color:#608090"
               offset="0.9645" />
            <stop
               id="stop915"
               style="stop-color:#6D8896"
               offset="1" />
          </linearGradient>
          <path
             id="path918"
             d="m 204.575,81.383 h -8.133 c -0.271,0 -0.491,0.22 -0.491,0.491 0,0 0,20.794 0,22.677 -3.217,-3.564 -6.957,-5.248 -12.043,-5.248 -10.293,0 -14.63,6.352 -16.468,12.259 -2.768,-8.208 -8.749,-12.259 -18.326,-12.259 -8.494,0 -14.907,4.444 -17.877,12.18 -1.842,-5.848 -6.174,-12.18 -16.434,-12.18 -5.419,0 -9.71,2.076 -12.527,5.979 0,-1.597 0,-4.525 0,-4.525 0,-0.271 -0.22,-0.491 -0.491,-0.491 H 91.501 c -0.271,0 -0.491,0.22 -0.491,0.491 0,0 0,11.833 0,22.503 -1.04,-5.256 -5.211,-9.102 -11.124,-10.286 6.015,-1.777 9.695,-6.421 9.695,-12.538 0,-12.941 -11.634,-14.873 -18.569,-14.873 H 51.404 c -0.271,0 -0.491,0.22 -0.491,0.49 0,0 0,11.812 0,22.836 C 48.982,93.421 38.084,85.563 18.381,85.563 H 3.034 c -0.271,0 -0.491,0.22 -0.491,0.49 v 56.087 c 0,0.271 0.22,0.491 0.491,0.491 h 15.347 c 19.703,0 30.601,-7.859 32.532,-23.326 0,11.023 0,22.835 0,22.835 0,0.271 0.22,0.491 0.491,0.491 h 19.608 c 5.628,0 18.128,-1.416 19.998,-13.535 0,14.947 0,29.918 0,29.918 0,0.271 0.22,0.492 0.491,0.492 h 7.537 c 1.918,-0.28 3.391,-1.55 3.723,-4.49 0,-5.572 0,-15.154 0,-16.531 4.028,4.428 8.045,5.113 11.803,5.113 10.36,0 14.753,-6.408 16.632,-12.312 3.083,7.925 10.211,12.312 20.328,12.312 5.708,0 10.303,-1.067 14.462,-3.357 0.156,-0.086 0.254,-0.251 0.254,-0.43 v -8.758 c 0,-0.175 -0.093,-0.336 -0.243,-0.424 -0.15,-0.088 -0.336,-0.09 -0.488,-0.006 -3.424,1.916 -8.052,4.115 -13.5,4.115 -6.44,0 -10.586,-3.538 -11.242,-9.462 1.076,0 24.732,0 25.529,0 1.2,11.637 7.585,18.321 17.613,18.321 5.206,0 9.327,-1.765 12.365,-5.105 0,1.242 0,3.647 0,3.647 0,0.271 0.22,0.491 0.491,0.491 h 10.446 c 0.271,0 0.491,-0.22 0.491,-0.491 V 84.988 c -0.445,-2.16 -1.616,-3.235 -3.127,-3.605 z M 20.551,132.81 c 0,0 -4.944,0 -5.778,0 0,-0.944 0,-36.481 0,-37.426 0.834,0 5.778,0 5.778,0 8.722,0 17.991,6.559 17.991,18.713 0,12.154 -9.27,18.713 -17.991,18.713 z M 63.145,95.384 c 0.772,0 3.85,0 3.85,0 5.24,0 10.355,0.501 10.355,6.497 0,4.209 -3.403,6.342 -10.115,6.342 0,0 -3.307,0 -4.09,0 0,-0.879 0,-11.959 0,-12.839 z m 4.813,37.426 c 0,0 -4.004,0 -4.813,0 0,-0.896 0,-14.354 0,-15.249 0.809,0 4.813,0 4.813,0 5.159,0 11.081,0.902 11.081,7.945 0,4.847 -3.728,7.304 -11.081,7.304 z m 43.873,1.446 c -6.638,0 -8.993,-6.964 -8.993,-12.928 0,-6.109 2.864,-12.686 9.153,-12.686 8.021,0 8.428,10.566 8.428,12.686 0,2.158 -0.414,12.928 -8.588,12.928 z m 28.935,-17.355 c 0.669,-5.552 3.906,-8.743 8.991,-8.743 6.383,0 7.901,5.253 8.216,8.743 -0.991,0 -16.167,0 -17.207,0 z m 46.114,17.355 c -8.175,0 -8.589,-10.77 -8.589,-12.928 0,-2.119 0.406,-12.686 8.43,-12.686 6.288,0 9.151,6.576 9.151,12.686 0,5.964 -2.355,12.928 -8.992,12.928 z"
             fill="url(#XMLID_16_)"
             style="fill:url(#XMLID_16_)" />
        </g>
        <g
           id="g924">
          <path
             id="path922"
             d="m 184.007,65.5 c -1.928,0.029 -4.055,-0.01 -6.305,-0.049 C 163.736,65.202 143.662,64.867 131.859,80.32 120.055,64.867 99.982,65.203 86.014,65.451 c -2.25,0.039 -4.376,0.078 -6.303,0.049 -0.462,-0.005 -4.855,0.136 -13.06,0.418 0,0 0.556,10.304 7.805,10.304 2.603,0 4.485,-0.061 5.18,-0.066 2.023,0.027 4.23,-0.012 6.567,-0.052 19.06,-0.34 34.179,0.724 40.959,17.364 l 1.352,3.318 h 3.104 0.476 3.106 l 1.353,-3.318 c 6.779,-16.64 21.897,-17.705 40.958,-17.364 2.338,0.041 4.545,0.08 6.568,0.052 0.693,0.005 2.577,0.066 5.179,0.066 7.251,0 7.806,-10.304 7.806,-10.304 -8.203,-0.282 -12.597,-0.422 -13.057,-0.418 z"
             fill="#004563" />
        </g>
        <g
           id="g949">
          <radialGradient
             gradientUnits="userSpaceOnUse"
             r="63.037201"
             cy="61.586399"
             cx="130.28909"
             id="XMLID_17_">
            <stop
               id="stop926"
               style="stop-color:#6D8896"
               offset="0" />
            <stop
               id="stop928"
               style="stop-color:#4B7487"
               offset="0.0435" />
            <stop
               id="stop930"
               style="stop-color:#286379"
               offset="0.0933" />
            <stop
               id="stop932"
               style="stop-color:#00556C"
               offset="0.1494" />
            <stop
               id="stop934"
               style="stop-color:#004962"
               offset="0.2114" />
            <stop
               id="stop936"
               style="stop-color:#004059"
               offset="0.2815" />
            <stop
               id="stop938"
               style="stop-color:#003951"
               offset="0.3633" />
            <stop
               id="stop940"
               style="stop-color:#00344C"
               offset="0.4644" />
            <stop
               id="stop942"
               style="stop-color:#003149"
               offset="0.6062" />
            <stop
               id="stop944"
               style="stop-color:#003048"
               offset="1" />
          </radialGradient>
          <path
             id="path947"
             d="m 137.327,1.135 v 0 c -2.923,1.367 -5.142,3.79 -6.243,6.822 -0.487,1.347 -0.73,2.741 -0.73,4.132 0,1.746 0.382,3.487 1.146,5.117 1.781,3.813 5.409,6.26 9.504,6.761 0.106,1.142 0.227,2.284 0.227,3.441 0,0.553 -0.041,1.108 -0.064,1.663 -0.494,0.127 -1.016,0.134 -1.482,0.352 -2.007,0.936 -3.525,2.597 -4.28,4.677 -0.335,0.922 -0.501,1.878 -0.501,2.831 0,1.198 0.264,2.391 0.785,3.508 0.48,1.023 1.215,1.864 2.054,2.605 -1.188,2.629 -2.685,5.213 -4.495,7.717 -0.17,-0.039 -0.337,-0.076 -0.51,-0.104 -0.546,-3.015 -1.326,-5.929 -2.355,-8.693 0.611,-1.083 1.019,-2.25 1.019,-3.462 0,-1.022 -0.22,-2.049 -0.671,-3.015 -1.11,-2.374 -3.376,-3.848 -5.931,-4.045 -2.954,-4.181 -6.559,-7.778 -10.724,-10.754 0.114,-0.599 0.311,-1.194 0.311,-1.79 0,-3.917 -2.425,-7.612 -6.304,-9.027 -4.965,-1.802 -10.471,0.773 -12.274,5.736 -0.873,2.406 -0.758,5.007 0.325,7.325 1.083,2.318 3.005,4.074 5.411,4.947 2.871,1.041 5.989,0.458 8.492,-1.206 3.171,2.25 5.937,4.973 8.266,8.116 -0.728,1.152 -1.239,2.411 -1.239,3.753 0,1.019 0.221,2.047 0.672,3.017 1.162,2.48 3.579,3.991 6.215,4.089 0.704,2.128 1.263,4.369 1.655,6.709 -0.221,0.171 -0.45,0.333 -0.653,0.524 -3.313,-2.269 -6.775,-4.13 -10.358,-5.501 -0.126,-0.428 -0.254,-0.866 -0.254,-0.866 -0.814,-1.739 -2.254,-3.056 -4.058,-3.709 -1.8,-0.651 -3.746,-0.562 -5.479,0.25 -0.769,0.357 -1.421,0.894 -2.017,1.508 -3.976,-0.389 -7.964,-0.2 -11.908,0.452 -2.589,-3.858 -7.619,-5.437 -11.945,-3.411 -4.791,2.242 -6.865,7.961 -4.625,12.749 2.243,4.789 7.962,6.861 12.749,4.625 2.829,-1.323 4.69,-3.887 5.262,-6.873 2.897,-0.482 5.836,-0.668 8.795,-0.445 0.093,0.301 0.097,0.634 0.23,0.92 1.675,3.583 5.949,5.137 9.529,3.465 0.778,-0.366 1.44,-0.89 2.031,-1.491 3.123,1.308 6.182,3.037 9.123,5.205 0.017,1.311 0.299,2.604 0.859,3.788 1.04,2.234 2.896,3.934 5.222,4.778 2.328,0.846 4.844,0.734 7.086,-0.314 2.479,-1.159 4.206,-3.33 4.926,-5.916 5.223,-0.753 10.094,-2.186 14.519,-4.296 2.022,1.218 4.49,1.486 6.673,0.465 2.572,-1.205 4.115,-3.771 4.115,-6.487 0,-0.326 -0.113,-0.656 -0.159,-0.986 2.217,-1.971 4.24,-4.171 6.056,-6.563 2.378,0.585 4.858,0.482 7.111,-0.574 2.606,-1.22 4.579,-3.381 5.557,-6.081 2.025,-5.579 -0.866,-11.765 -6.449,-13.798 -5.58,-2.019 -11.771,0.872 -13.802,6.45 -0.432,1.193 -0.642,2.428 -0.642,3.655 0,2.296 0.765,4.537 2.149,6.408 -1.337,1.731 -2.826,3.35 -4.466,4.834 -1.793,-0.684 -3.767,-0.68 -5.541,0.152 -2.42,1.128 -3.926,3.518 -4.061,6.118 -3.604,1.65 -7.58,2.787 -11.853,3.415 2.273,-3.198 4.152,-6.516 5.563,-9.915 0.61,-0.128 1.243,-0.186 1.809,-0.45 2.007,-0.937 3.527,-2.601 4.282,-4.683 0.335,-0.922 0.501,-1.876 0.501,-2.829 0,-1.198 -0.263,-2.389 -0.785,-3.506 -0.542,-1.159 -1.403,-2.093 -2.397,-2.885 0.07,-1.032 0.141,-2.066 0.141,-3.104 0,-1.579 -0.154,-3.155 -0.316,-4.729 2.639,-1.406 4.666,-3.668 5.691,-6.499 0.489,-1.345 0.731,-2.738 0.731,-4.126 0,-1.747 -0.383,-3.486 -1.145,-5.113 -2.824,-6.036 -10.035,-8.654 -16.076,-5.833 z"
             fill="url(#XMLID_17_)"
             style="fill:url(#XMLID_17_)" />
        </g>
        <g
           id="g986">
          <g
             id="g984">
            <g
               id="g982">
              <radialGradient
                 gradientUnits="userSpaceOnUse"
                 r="55.666401"
                 cy="59.631302"
                 cx="131.353"
                 id="XMLID_18_">
                <stop
                   id="stop951"
                   style="stop-color:#FFD528"
                   offset="0" />
                <stop
                   id="stop953"
                   style="stop-color:#FFD227"
                   offset="0.222" />
                <stop
                   id="stop955"
                   style="stop-color:#FFC925"
                   offset="0.4435" />
                <stop
                   id="stop957"
                   style="stop-color:#FDBB21"
                   offset="0.6647" />
                <stop
                   id="stop959"
                   style="stop-color:#FAA61D"
                   offset="0.8846" />
                <stop
                   id="stop961"
                   style="stop-color:#F8991D"
                   offset="1" />
              </radialGradient>
              <path
                 id="path964"
                 d="m 128.544,38.833 c 0.172,-2.384 -1.622,-4.455 -4.006,-4.626 -2.385,-0.171 -4.454,1.623 -4.625,4.007 -0.172,2.384 1.623,4.455 4.011,4.624 2.379,0.173 4.45,-1.621 4.62,-4.005 z"
                 fill="url(#XMLID_18_)"
                 style="fill:url(#radialGradient1385)" />
              <circle
                 id="circle966"
                 r="6.6900001"
                 cy="59.631001"
                 cx="131.353"
                 fill="url(#XMLID_18_)"
                 style="fill:url(#radialGradient1387)" />
              <circle
                 id="circle968"
                 r="6.493"
                 cy="50.263"
                 cx="82.981003"
                 fill="url(#XMLID_18_)"
                 style="fill:url(#radialGradient1389)" />
              <path
                 id="path970"
                 d="m 111.45,19.487 c 0.257,-3.577 -2.437,-6.684 -6.014,-6.941 -3.575,-0.253 -6.682,2.435 -6.937,6.012 -0.257,3.577 2.433,6.685 6.014,6.941 3.574,0.256 6.68,-2.436 6.937,-6.012 z"
                 fill="url(#XMLID_18_)"
                 style="fill:url(#radialGradient1391)" />
              <path
                 id="path972"
                 d="m 108.147,45.254 c -2.372,-0.171 -4.433,1.612 -4.605,3.986 -0.168,2.372 1.614,4.433 3.989,4.604 2.372,0.169 4.434,-1.616 4.605,-3.988 0.167,-2.372 -1.616,-4.434 -3.989,-4.602 z"
                 fill="url(#XMLID_18_)"
                 style="fill:url(#radialGradient1393)" />
              <path
                 id="path974"
                 d="m 174.369,26.85 c -3.894,-0.279 -7.277,2.651 -7.555,6.546 -0.279,3.895 2.651,7.277 6.544,7.557 3.897,0.281 7.277,-2.651 7.559,-6.546 0.277,-3.893 -2.653,-7.278 -6.548,-7.557 z"
                 fill="url(#XMLID_18_)"
                 style="fill:url(#radialGradient1395)" />
              <circle
                 id="circle976"
                 r="4.3270001"
                 cy="51.766998"
                 cx="158.276"
                 fill="url(#XMLID_18_)"
                 style="fill:url(#radialGradient1397)" />
              <circle
                 id="circle978"
                 r="5.2259998"
                 cy="36.931999"
                 cx="143.19099"
                 fill="url(#XMLID_18_)"
                 style="fill:url(#radialGradient1399)" />
              <path
                 id="path980"
                 d="m 143.05,3.719 c -4.624,-0.333 -8.638,3.146 -8.971,7.768 -0.328,4.625 3.147,8.64 7.77,8.971 4.626,0.33 8.638,-3.149 8.97,-7.771 0.328,-4.623 -3.146,-8.638 -7.769,-8.968 z"
                 fill="url(#XMLID_18_)"
                 style="fill:url(#radialGradient1401)" />
            </g>
          </g>
        </g>
      </g>
    </g>
    <g
       id="g1238"
       transform="matrix(0.10657951,0,0,0.10657951,79.247035,2.6743749)">
      <g
         id="g1188">
        <rect
           id="rect1082"
           height="166.5"
           width="144.5"
           class="st0"
           y="176"
           x="124.2" />
        <rect
           id="rect1084"
           height="166.5"
           width="144.5"
           class="st1"
           y="176"
           x="272.10001" />
        <path
           id="path1086"
           d="m 272.1,346.1 v 185.1 c 22.3,-0.1 44.1,-2.2 65.3,-6.3 45.1,-8.6 79.1,-48.1 79.1,-95.7 v -83.1"
           class="st0" />
        <path
           id="path1088"
           d="M 268.7,531.2 V 346.1 H 124.2 v 83.1 c 0,47.4 33.9,86.9 78.9,95.7 21.4,4 43.2,6.1 65.6,6.3"
           class="st1" />
        <path
           id="path1090"
           d="m 170.7,476.2 v 0 c 0.9,-0.1 2,-0.1 3.2,-0.3 0,0 -7.5,-11.4 0.6,-20.8 0,0 5.8,-10.1 17.1,-2.9 0,0 4.8,4.9 5.1,12.8 0,0 -6.6,0.3 -10.5,11.3 -1.3,4 -2.5,9.5 -2.7,17 H 179 c 0,0 -1.3,-3.9 -0.7,-5.8 0,0 -6,1 -7.7,0.3 0,0 -1.3,4.3 0.2,5.8 l -4.8,-0.7 c 0,0 -1.2,-3.5 -0.9,-5.8 0,0 -2.7,0 -4.3,-1.2 0,0 -2.6,2.9 -2.6,5.5 l -4.8,-2.2 c 0,0 0.6,-3.9 1.9,-4.8 0,0 -6.5,-1.3 -7.8,-2.3 l -1,-5.6 -4.5,-23.7 c 0,0 12,-3.6 16.1,8.2 0,0 0.9,6.5 -0.3,12.1 0,0 0.6,2.9 7.9,3.5 1.8,-0.3 3.3,-0.3 5,-0.4"
           class="st2" />
        <path
           id="path1092"
           d="m 168.8,446.6 c 0.4,-1.3 1.1,-3.4 1.9,-4 0,0 -7.5,-1.3 -8.4,-2 l -3.6,5.3 -5.5,-1.6 1.9,-4.3 -8.2,-2.9 -2.1,4.3 -4.6,-2.6 2.7,-4.6 -7.2,-2.6 v -26 c 0,0 13,-1.2 12.6,11.5 -0.1,2 -0.4,4.5 -1.3,7.4 0,0 11,2.9 14.9,1 0,0 10.3,14 15.1,16.6 0,0 -1.7,2 -3,4.8 -0.2,0.4 -0.4,0.9 -0.6,1.5 h -5.1 c 0.2,-0.4 0.3,-0.9 0.5,-1.8"
           class="st2" />
        <path
           id="path1094"
           d="m 175.3,416.9 c -3,1.5 -6.2,2.9 -9.7,4 l -3,-3.9 c 0,0 18.5,-5 26.9,-15.3 l 6,-0.7 c 0.1,0.1 -6.5,9 -20.2,15.9"
           class="st2" />
        <path
           id="path1096"
           d="m 191.8,416.9 c 10.4,-7.8 21.7,-19.8 25.1,-35.9 l -3.4,-6.8 c 0,0 -0.4,23.8 -31.2,42.7 -4.1,2.6 -8.8,5 -14.2,7.4 l 3.9,4.3 c 0.1,-0.2 9.5,-4 19.8,-11.7"
           class="st2" />
        <path
           id="path1098"
           d="m 197.9,416.9 v 0 c -6,5.4 -13.9,10.5 -23.6,14.9 l 3.5,3.6 c 0,0 13.7,-4.3 27.5,-18.5 6,-6.3 12.3,-14.5 17.3,-25.2 l -2.9,-6.2 c 0.1,0 -4.2,16.2 -21.8,31.4"
           class="st2" />
        <path
           id="path1100"
           d="m 210.4,416.9 c -6.7,7.3 -16.6,15.2 -30.2,21 l 3.9,2.9 c 0,0 17.9,-7.8 32.4,-23.9 3.1,-3.5 6.2,-7.5 8.8,-11.9 l -1.6,-7.8 c -0.1,0 -3.6,9.2 -13.3,19.7"
           class="st2" />
        <path
           id="path1102"
           d="m 237.5,399.8 c -0.8,-9.4 -4.7,-15.1 -5.5,-19 -0.4,-1.7 -2.2,-6.7 -0.2,-9.6 3.7,-5.3 10.1,-4.8 14.2,4.3 h 4.8 c 0,0 -1.8,-11.7 -12.5,-12.1 0,0 -13.2,-0.3 -12.6,13 0,0 1.5,8.8 5.3,18.4 0,0 3.8,6.7 -0.4,15.2 0,0 -1.9,3.2 -3.4,6.9 -0.9,2.2 -1.6,4.7 -1.5,6.7 l 4.6,4.6 c -0.7,-5.1 1.1,-9.4 1.9,-11.3 1.1,-1.9 6.2,-7.9 5.3,-17.1"
           class="st2" />
        <path
           id="path1104"
           d="m 239.3,434.9 -4.8,-3.2 c 0,0 -0.7,-7.8 2.7,-13.7 0,0 0.1,-0.4 0.4,-1.2 1.3,-2.9 4.5,-10.7 4,-15.4 l 3.6,5.5 c 0,0 0.2,4.8 -2.8,10 -2.2,3.8 -5.1,12.9 -3.1,18"
           class="st2" />
        <path
           id="path1106"
           d="m 238.1,476.2 v 0 c 0.8,0.1 1.6,0.1 2.2,0.1 v 3.9 c 0,0 -3.2,0.3 -4.3,-0.3 0,0 0.3,4.6 0,6.9 0,0 3.9,1 4.8,1 l -0.3,5.1 c 0,0 -3.5,-0.7 -4.5,-1.6 l -0.3,4.3 c 0,0 2.7,1.2 4.3,0.9 l 0.3,4.9 c 0,0 -4.6,-0.3 -5.8,-1.6 l -1.6,6.2 h -29 c 0,0 -0.7,-21.5 19.4,-9.7 0,0 7.4,-3.2 -2.7,-19.8 0,0 -1.2,0 -3.1,-0.1 -9.1,-0.3 -16.6,-6.5 -19.1,-19.5 0,0 -1.2,-6 -5,-10.2 -1.5,-1.6 -3.4,-2.9 -5.5,-3.5 0,0 18.9,-9.4 23.2,-15.3 0,0 -6,9.7 2.2,15.7 0,0 2.8,1.2 6.2,3.1 4.6,2.6 10.3,6.4 12.5,10.9 0,0 18,4.1 17,-10.9 0,-0.8 -1.1,-4.6 -3.8,-8.3 -1.7,-2.5 -3.7,-8.7 -0.3,-15.8 0,0 1.5,-2.9 2.6,-5.7 0.3,-1.2 0.7,-2.5 0.7,-3.4 l 1.1,3.4 1.5,4.8 c 0,0 -4.4,3.5 -3.1,10.6 0.9,5 5.1,8.8 6.4,14.2 0.3,2.9 0.2,7.4 -2.1,10.9 -1.3,2 -8.2,9.2 -20.5,5.1 0,0 -1.9,8.5 4.3,13 -0.3,0.2 1,0.5 2.3,0.7"
           class="st2" />
        <path
           id="path1108"
           d="m 245.8,378.3 5.8,0.1 c 0,0 6.9,4.8 -0.1,18.2 0,0 -0.9,3.2 0,5.1 0,0 -12.2,-7.1 -5.7,-23.4"
           class="st2" />
        <path
           id="path1110"
           d="m 181.3,403 c 0,0 -10,7.5 -16,8.2 0,0 -2.7,0.7 -5.1,3.2 l -4.3,-2.6 c 0,0 0,-3.6 4.3,-4.6 0,0 -7.5,-5.3 -8.1,-7.5 0,0 -3.2,1 -4.3,3.9 l -3.6,-3.2 c 0,0 2.2,-2.6 4.8,-3.6 0,0 -5.1,-6.8 -5.4,-9.4 v -23.7 c 0,0 17.1,-1.7 9.3,18.5 0.1,0 9.8,16.2 28.4,20.8"
           class="st2" />
        <path
           id="path1112"
           d="m 194.6,390.4 c 0,0 -0.7,-1.7 -7.5,1.6 0,0 -2.2,2.2 -5.8,-1 0,0 -4.1,-6.2 -10.3,-2.3 0,0 3.9,0.3 6.5,4.6 0,0 2.9,6.5 10,2.3 0,0.1 3.6,-4.9 7.1,-5.2"
           class="st2" />
        <path
           id="path1114"
           d="m 193.6,375.7 h -4.1 l 4.4,-4.1 c -0.3,0.2 -1.4,1.6 -0.3,4.1 m 15.4,-7.5 h -15.4 c 0,0 -12,7.2 -15.4,15.7 l 7.8,5.8 c 0,0 0.6,-8.1 8.7,-6.2 0,0 11.5,8.4 -3.9,11.3 0,0 5.7,6.8 10.9,-2.6 -0.1,0.1 8.1,-15.8 7.3,-24 z"
           class="st2" />
        <polyline
           id="polyline1116"
           points="193.1,364 192.8,356.6 196.7,360.7 201,355.8 205.4,361.4 209.2,355.8 209.9,364   "
           class="st2" />
        <path
           id="path1118"
           d="m 320.9,303.1 v 0 c 1,0 2,-0.1 3.2,-0.2 0,0 -7.4,-11.4 0.7,-20.8 0,0 5.8,-10.2 17.1,-2.9 0,0 4.8,4.8 5.1,12.6 0,0 -6.7,0.3 -10.5,11.3 -1.5,4 -2.6,9.6 -2.7,17 h -4.6 c 0,0 -1.2,-3.9 -0.6,-5.9 0,0 -6.2,1 -7.8,0.3 0,0 -1.2,4.3 0.3,5.8 l -4.8,-0.7 c 0,0 -1.2,-3.6 -1,-5.8 0,0 -2.6,0 -4.1,-1.3 0,0 -2.7,2.9 -2.7,5.6 l -4.8,-2.2 c 0,0 0.7,-3.9 1.9,-4.9 0,0 -6.4,-1.2 -7.7,-2.2 l -1,-5.6 -4.5,-23.7 c 0,0 12,-3.5 16,8.2 0,0 1,6.5 -0.2,12.1 0,0 0.6,3 7.9,3.5 1.5,-0.2 3.1,-0.1 4.8,-0.2"
           class="st2" />
        <path
           id="path1120"
           d="m 319.1,273.4 c 0.3,-1.3 1,-3.2 1.8,-4 0,0 -7.4,-1.2 -8.4,-1.9 l -3.6,5.1 -5.5,-1.6 1.9,-4.3 -8.1,-2.9 -2.2,4.3 -4.5,-2.6 2.7,-4.6 -7.2,-2.6 -0.1,-26.1 c 0,0 13.1,-1.2 12.8,11.5 v 0.1 c -0.1,2 -0.4,4.5 -1.3,7.3 0,0 11,2.9 14.8,1 0,0 10.3,14 15.1,16.6 0,0 -1.6,1.9 -2.9,4.8 v -0.1 c -0.2,0.4 -0.4,1 -0.6,1.5 h -5.1 c 0.1,0 0.2,-0.7 0.4,-1.5"
           class="st2" />
        <path
           id="path1122"
           d="m 325.6,243.8 c -3,1.5 -6.2,2.9 -9.8,4 l -2.9,-3.9 c 0,0 18.5,-4.9 26.7,-15.2 l 6.2,-0.7 c -0.1,0 -6.5,8.8 -20.2,15.8"
           class="st2" />
        <path
           id="path1124"
           d="m 342.1,243.8 c 10.3,-7.8 21.7,-19.8 25,-35.9 l -3.2,-6.8 c 0,0 -0.4,23.7 -31.3,42.7 -4.1,2.6 -8.8,5 -14.1,7.3 l 3.8,4.3 c -0.2,-0.1 9.3,-3.9 19.8,-11.6"
           class="st2" />
        <path
           id="path1126"
           d="m 348.2,243.8 v 0 c -6.2,5.4 -13.9,10.5 -23.7,14.9 l 3.6,3.5 c 0,0 13.7,-4.3 27.5,-18.4 6,-6.4 12.3,-14.5 17.3,-25.2 l -3,-6.2 c 0,0 -4.1,16.2 -21.7,31.4"
           class="st2" />
        <path
           id="path1128"
           d="m 360.6,243.8 c -6.7,7.3 -16.6,15.1 -30.2,20.9 l 3.8,2.9 c 0,0 18,-7.8 32.4,-23.9 3.2,-3.6 6.2,-7.5 8.8,-11.9 l -1.6,-7.8 c -0.1,0.1 -3.4,9.3 -13.2,19.8"
           class="st2" />
        <path
           id="path1130"
           d="m 387.8,226.7 c -0.8,-9.5 -4.7,-15.1 -5.6,-19 -0.3,-1.7 -2.2,-6.7 -0.2,-9.7 3.8,-5.1 10.2,-4.8 14.3,4.3 h 4.8 c 0,0 -1.9,-11.6 -12.5,-12.1 0,0 -13.3,-0.3 -12.6,13 0,0 1.5,9 5.3,18.4 0,0 3.8,6.7 -0.4,15.2 0,0 -1.9,3.2 -3.5,6.9 -0.8,2.2 -1.5,4.7 -1.3,6.7 l 4.5,4.6 c -0.6,-5.1 1.2,-9.4 2,-11.3 0.7,-1.8 6.1,-7.9 5.2,-17"
           class="st2" />
        <path
           id="path1132"
           d="m 389.6,261.8 -4.8,-3.2 c 0,0 -0.7,-7.8 2.6,-13.8 0,0 0.2,-0.4 0.6,-1.1 1.2,-2.9 4.5,-10.7 4,-15.4 l 3.5,5.6 c 0,0 0.3,4.8 -2.7,10 -2.3,3.7 -5.2,12.8 -3.2,17.9"
           class="st2" />
        <path
           id="path1134"
           d="m 388.4,303.1 v 0 c 0.8,0.1 1.6,0.2 2.1,0.1 v 3.9 c 0,0 -3.2,0.3 -4.1,-0.3 0,0 0.3,4.6 0,6.8 0,0 3.9,1 4.8,1 l -0.3,5.3 c 0,0 -3.6,-0.7 -4.5,-1.6 l -0.3,4.3 c 0,0 2.6,1.3 4.3,1 l 0.2,4.8 c 0,0 -4.5,-0.3 -5.7,-1.6 l -1.6,6.2 h -29 c 0,0 -0.7,-21.5 19.2,-9.7 0,0 7.5,-3.2 -2.6,-19.8 0,0 -1.2,0.1 -3.1,-0.1 -9.1,-0.3 -16.7,-6.4 -19.1,-19.5 0,0 -1.3,-6.2 -5.1,-10.2 v -0.1 c -1.3,-1.6 -3.2,-2.9 -5.5,-3.5 0,0 19,-9.4 23.3,-15.2 0,0 -6.2,9.7 2.1,15.7 0,0 2.9,1.2 6.3,3.1 4.5,2.6 10.2,6.5 12.4,10.9 0,0 18.1,4.1 17.1,-10.9 v 0.1 c 0,-0.9 -1.1,-4.6 -3.8,-8.3 -1.7,-2.5 -3.7,-8.8 -0.3,-15.8 0,0 1.5,-2.9 2.5,-5.7 0.4,-1.2 0.8,-2.5 0.8,-3.4 l 1,3.4 1.5,4.8 c 0,0 -4.4,3.5 -3.1,10.7 0.9,5 5.3,8.8 6.4,14.2 0.4,2.9 0.3,7.4 -2,10.9 -1.3,2 -8.3,9.1 -20.5,5.1 0,0 -1.9,8.4 4.1,13 -0.2,-0.1 1,0.2 2.5,0.4"
           class="st2" />
        <path
           id="path1136"
           d="m 396,205.2 5.8,0.1 c 0,0 7.2,4.8 0,18.1 0,0 -1,3.2 0,5.3 0,-0.1 -12.2,-7.3 -5.8,-23.5"
           class="st2" />
        <path
           id="path1138"
           d="m 331.5,229.9 c 0,0 -10,7.5 -16.1,8.1 0,0 -2.6,0.7 -5,3.2 l -4.3,-2.6 c 0,0 0,-3.5 4.3,-4.5 0,0 -7.5,-5.3 -8.2,-7.5 0,0 -3.2,1 -4.1,3.9 l -3.6,-3.2 c 0,0 2.1,-2.6 4.8,-3.6 0,0 -5.1,-6.9 -5.5,-9.5 v -23.6 c 0,0 17.1,-1.7 9.4,18.5 0,0 9.7,16.3 28.3,20.8"
           class="st2" />
        <path
           id="path1140"
           d="m 344.7,217.3 c 0,0 -0.6,-1.6 -7.4,1.6 0,0 -2.2,2.3 -5.8,-1 0,0 -4.3,-6.2 -10.3,-2.2 0,0 3.9,0.3 6.4,4.6 0,0 3,6.5 10,2.2 0.1,-0.1 3.7,-4.9 7.1,-5.2"
           class="st2" />
        <path
           id="path1142"
           d="m 343.8,202.6 h -4.3 l 4.5,-4.1 c -0.3,0.2 -1.3,1.6 -0.2,4.1 m 15.5,-7.5 h -15.4 c 0,0 -12,7.2 -15.4,15.7 l 7.7,5.8 c 0,0 0.7,-8.2 8.7,-6.2 0,0 11.5,8.4 -3.9,11.4 0,0 5.8,6.8 11,-2.6 -0.1,0 7.8,-16 7.3,-24.1 z"
           class="st2" />
        <polyline
           id="polyline1144"
           points="343.4,190.9 343.1,183.4 347,187.6 351.1,182.7 355.6,188.3 359.4,182.7 360.2,190.9   "
           class="st2" />
        <path
           id="path1146"
           d="m 309.6,398.9 h 19.2 v -19.5 l 1.8,-1.5 v -1.5 h -9.8 v 3.5 h -3.5 v -3.4 l -9.7,-0.1 v 1.8 l 1.9,1.5 m 12.7,9.1 c 0,-1.7 -1.3,-3 -3,-3 -1.7,0 -3.1,1.3 -3.1,3 v 6.5 h 6 v -6.5 z m -17.4,13.5 H 319 v 4.4 h 8.1 v -4.1 h 13 v 4.3 h 9.3 v -4.3 h 14.4 v 4.3 h 8.2 v -4.4 h 14.4 v 5 l -3.7,5.3 h -73.8 l -4,-5.6 v -4.9 z m 29.2,-34 9.2,-0.1 v 4.7 l 3.9,-0.1 v -4.6 h 9.3 v 1.9 l -2.1,1.5 v 27.5 H 336 v -27.4 l -1.9,-1.5 v -1.9 z m 14.1,16 c 0,-1.6 -1.2,-3 -3,-2.9 -1.6,0 -3,1.3 -3,2.9 v 10 h 6 z m 15.2,15.2 h 19.1 V 380 l 1.9,-1.5 V 377 h -9.8 v 3.5 h -3.4 v -3.4 l -9.7,-0.1 v 1.8 l 1.9,1.5 z M 376,389.3 c 0,-1.7 -1.2,-3 -3,-3 -1.6,0 -3,1.3 -3,3 v 6.5 h 6 z m -18.5,76.2 H 391 l -8.7,-48.8 h -73 l -9.5,47.9 h 33.9 l 0.6,-27.4 c 0,-3 5.1,-5.5 11.5,-5.5 6.4,0 11.5,2.5 11.5,5.5 z m -58.9,3.1 h 34.9 v 9.4 h -42.7 v -3.4 z m 93.5,0.6 h -34.8 v 9.4 h 38 l 3.1,-3.7 z m -68.6,-33 c 0,-2.3 -1.8,-4.3 -4.1,-4.3 -2.5,0 -4.3,1.9 -4.3,4.3 v 9.2 h 8.4 z m 51.8,0.6 c 0,-2.3 -1.9,-4.3 -4.3,-4.3 -2.2,0 -4.1,1.9 -4.3,4.3 l 0.1,9.2 8.4,-0.1 z m 8.5,56.9 11,-10.9 H 290.6 v 10.9 z"
           class="st3" />
        <path
           id="path1148"
           d="m 158.8,226.1 h 19.1 v -19.5 l 1.8,-1.6 v -1.5 h -9.6 v 3.5 h -3.8 v -3.4 l -9.8,-0.1 v 1.8 l 2.1,1.5 m 12.7,9.2 c 0,-1.6 -1.3,-3 -3,-3 -1.7,0 -3,1.5 -3,3 v 6.5 h 5.9 V 216 Z m -16.7,13.5 h 14.2 v 4.4 h 7.9 v -4.3 h 13.1 v 4.3 h 9.2 v -4.3 h 14.3 v 4.3 h 8.1 v -4.4 h 14.4 v 5 l -3.6,5.3 h -73.7 l -3.9,-5.6 z m 29.2,-34.2 h 9.1 v 4.6 h 3.9 v -4.6 l 9.4,-0.1 v 2 l -2.1,1.5 v 27.6 H 186 v -27.6 l -2,-1.5 v -1.9 z m 14.5,16.3 c 0,-1.6 -1.3,-3 -3,-3 -1.7,0 -3,1.3 -3,3 v 9.8 h 5.9 v -9.8 z m 14.7,15 h 19.1 v -19.5 l 1.8,-1.6 V 204 h -9.6 v 3.5 h -3.8 v -3.4 l -9.8,-0.1 v 1.8 l 2.1,1.5 z m 12.7,-10.1 c 0,-1.6 -1.3,-3 -3,-3 -1.7,0 -3,1.5 -3,3 v 6.5 h 5.9 v -6.5 z m -18.5,76 h 33.3 l -8.6,-48.8 h -72.7 l -9.5,47.8 h 33.8 l 0.4,-27.2 c 0,-3 5.3,-5.5 11.5,-5.5 6.4,0 11.5,2.5 11.5,5.5 z m -58.5,3.2 h 34.7 v 9.4 h -42.6 v -3.4 z m 93,0.4 H 207 v 9.4 h 42.5 V 302 Z m -68.4,-33.2 c 0,-2.3 -1.9,-4.3 -4.3,-4.3 -2.2,0 -4.1,1.9 -4.1,4.3 v 9.2 l 8.4,-0.1 z m 51.6,0 c 0,-2.3 -1.8,-4.3 -4.1,-4.3 -2.5,0 -4.3,1.9 -4.3,4.3 v 9.2 h 8.5 z m -84.5,46.8 h 109.3 v 10.9 H 140.4 Z"
           class="st3" />
        <path
           id="path1150"
           d="m 337.5,524.9 v 0 c -21.3,4 -43.1,6.2 -65.3,6.3 V 346.1 h 144.5 v 83.1 c -0.1,47.6 -34.3,87.1 -79.2,95.7 M 124.2,429.2 v -83.1 h 144.5 v 185.1 c -22.4,-0.1 -44.2,-2.2 -65.6,-6.4 -44.9,-8.6 -78.9,-48.1 -78.9,-95.6 z M 268.7,176.1 V 342.6 H 124.2 V 176.1 Z m 147.9,0 V 342.6 H 272.1 V 176.1 Z m -295.9,-4.3 v 259.4 c 0,48.6 34.7,89.1 80.8,97.9 22.3,4.3 45.3,6.5 68.9,6.5 23.5,0 46.4,-2.1 68.7,-6.5 v 0.1 c 46.2,-8.8 81,-49.3 81,-98 V 171.8 Z" />
        <path
           id="path1152"
           d="m 270.3,134.4 c -41.4,0 -81.1,6.5 -118.4,18.7 L 145,131.7 c 39.5,-12.8 81.6,-19.8 125.4,-19.8 43.8,0 85.8,6.9 125.4,19.8 l -6.9,21.4 C 351.6,140.9 311.7,134.4 270.3,134.4"
           class="st3" />
        <path
           id="path1154"
           d="m 409.3,90.2 c -4.6,14.2 -18,24.4 -33.7,24.4 -19.5,0 -35.4,-15.8 -35.4,-35.4 0,-1.8 0.1,-3.7 0.4,-5.5 l 8.8,1.5 c -0.2,1.3 -0.2,2.7 -0.2,4 0,14.5 11.6,26.4 26.3,26.4 11.9,0 21.7,-7.7 25.1,-18.2 l 8.7,2.8"
           class="st3" />
        <path
           id="path1156"
           d="m 340.7,73.7 c -2.7,17 -17.3,30 -35,30 -19.5,0 -35.5,-15.9 -35.5,-35.5 h 9.1 v 0.1 c 0,14.5 11.9,26.3 26.4,26.3 13.2,0 24.1,-9.6 26.1,-22.3 l 9,1.5"
           class="st3" />
        <path
           id="path1158"
           d="m 199.8,73.7 c 2.7,17 17.3,30 34.9,30 19.6,0 35.5,-15.9 35.5,-35.5 h -9.1 v 0.1 c 0,14.5 -11.9,26.3 -26.4,26.3 -13.2,0 -24.1,-9.6 -26.1,-22.3 l -8.8,1.4"
           class="st3" />
        <path
           id="path1160"
           d="m 131.4,90.2 c 4.6,14.2 17.9,24.4 33.6,24.4 19.5,0 35.4,-15.8 35.4,-35.4 0,-1.8 -0.1,-3.7 -0.3,-5.5 H 200 l -8.8,1.5 c 0.2,1.3 0.3,2.7 0.3,4 0,14.5 -11.9,26.4 -26.4,26.4 -11.6,0 -21.7,-7.7 -25.1,-18.2"
           class="st3" />
        <polyline
           id="polyline1162"
           points="272.5,53.5 281.4,44.5 299.3,44.5 290.5,53.5 299.3,62.4 281.4,62.4   "
           class="st3" />
        <polyline
           id="polyline1164"
           points="415.1,71.8 409.4,60.6 414.9,43.5 420.7,54.7   "
           class="st3" />
        <polyline
           id="polyline1166"
           points="411.9,75.4 406.1,64.2 389,58.6 394.8,69.9 383.6,75.8 400.6,81.3   "
           class="st3" />
        <polyline
           id="polyline1168"
           points="341,58.9 330.9,66.4 313.2,63.6 323.4,56.1 316,45.8 333.7,48.6   "
           class="st3" />
        <polyline
           id="polyline1170"
           points="345,59.5 355.1,51.9 372.9,54.8 362.8,62.3 370.1,72.6 352.3,69.7   "
           class="st3" />
        <polyline
           id="polyline1172"
           points="343.7,54.7 336.1,44.5 339,26.7 346.5,36.9 356.8,29.5 353.9,47.3   "
           class="st3" />
        <polyline
           id="polyline1174"
           points="270.3,49 261.4,40.1 261.4,22.2 270.3,31.1 279.3,22.2 279.3,40.1   "
           class="st3" />
        <polyline
           id="polyline1176"
           points="268.3,53.5 259.4,44.5 241.5,44.5 250.3,53.5 241.5,62.4 259.4,62.4   "
           class="st3" />
        <polyline
           id="polyline1178"
           points="125.5,71.8 131.4,60.6 125.9,43.5 119.9,54.7   "
           class="st3" />
        <polyline
           id="polyline1180"
           points="128.9,75.4 134.6,64.2 151.6,58.6 146,69.9 157.2,75.8 140.2,81.3   "
           class="st3" />
        <polyline
           id="polyline1182"
           points="199.6,58.9 209.9,66.4 227.6,63.6 217.4,56.1 224.8,45.8 207.1,48.6   "
           class="st3" />
        <polyline
           id="polyline1184"
           points="195.8,59.5 185.5,51.9 167.8,54.8 178,62.3 170.6,72.6 188.3,69.7   "
           class="st3" />
        <polyline
           id="polyline1186"
           points="197,54.7 204.4,44.5 201.7,26.7 194.1,36.9 184,29.5 186.7,47.3   "
           class="st3" />
      </g>
      <g
         id="g1236">
        <g
           id="g1216">
          <path
             id="path1190"
             d="m 120.1,664.3 c -1.3,6.2 -2.5,12.8 -3.2,19.8 -11.9,2 -22,2.9 -30.7,2.9 -16.9,0 -31,-4 -42.1,-12.3 C 30.6,664.9 24,650.3 24,631 c 0,-12.8 2.9,-23.9 8.7,-33.5 6.2,-10.3 15.4,-17.9 28,-22.8 9.2,-3.7 19.4,-5.5 30.4,-5.5 8.6,0 18.5,1 29.5,3.2 0.2,4.7 0.6,11.2 1.1,19.5 -11.1,-2.8 -20.3,-4.3 -27.5,-4.3 -14.4,0 -25.6,4.5 -33.9,13.3 -7.4,7.9 -11,18 -11,30.1 0,12.6 4.3,22.5 12.8,29.4 7.2,5.8 16.1,8.6 27.1,8.6 8.5,0.3 18.7,-1.3 30.9,-4.7" />
          <path
             id="path1192"
             d="m 142.2,619 c 0.7,-3.7 1.5,-9 2.6,-15.7 14.1,-3.4 26.3,-4.9 36.3,-4.9 11.3,0 19.8,1.9 25.4,5.6 5.5,3.7 8.3,9.3 8.3,16.8 0,4.5 -0.3,12.3 -1.2,23.4 -0.9,12.6 -1.5,26.3 -1.6,41.1 -4,0 -7.9,0 -11.5,0 -3.7,0 -7.7,0 -12.1,0 0.8,-7.8 1.6,-20.6 2.6,-38.2 l 0.3,-5.8 c -2.9,1.8 -5,2.9 -6.6,3.7 -1.7,0.7 -5.8,1.9 -12.5,3.8 -6.7,1.9 -11.4,3.9 -14.3,6.3 -2.9,2.2 -4.3,5.1 -4.3,8.6 0,3.2 1.2,5.8 3.8,7.7 2.6,1.8 6,2.8 10.6,2.8 4,0 8.6,-0.9 13.5,-2.5 -1.1,3.4 -2.6,8.1 -4,14.1 -5.8,1 -11.2,1.5 -15.9,1.5 -10.9,0 -18.6,-2.2 -23.4,-6.7 -2.1,-2 -3.9,-4.5 -5.1,-7.7 -1.2,-3.2 -1.9,-6.5 -1.9,-9.7 0,-7.7 3.8,-14.1 11.2,-19.2 5.4,-3.7 15.4,-7.2 30,-10.3 7.8,-1.6 12.9,-3.5 15,-5.5 2.2,-2 3.5,-4.3 3.5,-6.8 0,-3 -1.2,-5.4 -3.9,-6.9 -2.7,-1.5 -6.4,-2.5 -11.2,-2.5 -9.9,-0.4 -20.8,2.1 -33.6,7" />
          <path
             id="path1194"
             d="m 230.8,683.7 c -0.2,-1.7 -0.4,-4.8 -0.8,-9.6 -0.3,-2.9 -0.7,-5.8 -1,-8.8 9.7,4 17.9,6 24.2,6 4.6,0 8.2,-0.8 10.6,-2.3 2.6,-1.6 3.8,-3.9 3.8,-6.8 0,-2.7 -1.6,-5.4 -4.7,-8.2 -0.7,-0.6 -4.1,-3.2 -10.3,-8.1 -4.6,-3.6 -7.9,-6.4 -10,-8.4 -5.1,-5.1 -7.7,-10.7 -7.7,-16.8 0,-3.4 0.8,-6.5 2.5,-9.6 1.7,-3.1 3.9,-5.5 6.6,-7.3 5.4,-3.5 12.9,-5.3 22.4,-5.3 6.7,0 15.1,0.9 25,2.7 l 0.1,2.5 c 0.2,4.4 0.6,9.3 0.9,14.9 -6.7,-2.8 -13.1,-4.1 -18.8,-4.1 -10.1,0 -15.2,2.8 -15.2,8.3 0,2.7 1.5,5.4 4.4,7.8 1.1,0.9 4.4,3.5 9.7,7.5 4.5,3.4 7.8,6.2 10,8.1 5.7,5.5 8.7,11.5 8.7,18 0,7.4 -3.2,13.1 -9.5,17.1 -6.2,4 -14.1,5.9 -23.6,5.9 -8,-0.1 -17.2,-1.3 -27.3,-3.5" />
          <path
             id="path1196"
             d="m 359.8,667.7 c -0.8,3.7 -1.7,8.4 -2.8,14 l -0.4,2.9 c -7.3,1.6 -13.4,2.5 -18.8,2.5 -8.4,0 -14.4,-1.7 -18.4,-4.9 -3.9,-3.4 -5.8,-8.4 -5.8,-15.4 0,-1.6 0.3,-9.6 1.2,-24.2 0.6,-10.9 1,-19.2 1.3,-25.2 H 304 c 0.3,-3.8 0.6,-8.3 0.7,-13.4 l 0.1,-2.8 h 12.6 c 0.2,-3.8 0.6,-9.2 0.9,-16.3 l 3.7,-0.8 c 6,-1.2 12.2,-2.6 18.1,-3.9 -0.3,7.6 -0.6,14.5 -0.7,21 h 21.3 c -0.3,7.7 -0.6,13.2 -0.6,16.2 h -21.4 l -0.2,4.7 -0.8,12.8 c -0.6,12.2 -0.9,19.5 -0.9,21.7 0,4.5 0.7,7.7 2,9.7 1.6,2.3 4.4,3.7 8.3,3.7 3,-0.1 7.3,-0.9 12.7,-2.3" />
          <path
             id="path1198"
             d="m 375.6,585.8 c 0.2,-6.2 0.3,-10.5 0.3,-13 0,-0.4 0,-1.5 0,-2.9 5.4,0.1 9.7,0.3 13,0.3 3.4,0 7.2,-0.1 11.4,-0.3 -0.2,1.5 -0.3,4 -0.4,7.7 -0.1,3.7 -0.2,6.4 -0.3,8.2 -5,-0.1 -8.8,-0.1 -11.5,-0.1 -2.7,0.1 -6.9,0.1 -12.5,0.1 m -4.6,99.3 c 2.2,-20.8 3.7,-49.1 4.1,-84.8 5.4,0 9.4,0 12.2,0 2.7,0 6.7,0 12.3,0 -1.9,23 -3.1,51.2 -3.2,84.8 -5.4,0 -9.5,0 -12.2,0 -2.6,0 -7,0 -13.2,0 z" />
          <path
             id="path1200"
             d="m 416.9,685.1 c 1.2,-14.3 2.2,-32.3 3.4,-54.2 0.9,-21.8 1.6,-41.7 1.9,-59.6 6,-0.1 10.2,-0.1 12.8,-0.1 2.6,0 6.4,0 11.6,0.1 -1.1,14.5 -2.1,32.8 -3.2,54.7 -1,21.8 -1.7,41.6 -2,59.1 -4.9,0 -8.6,0 -11.2,0 -1.5,0 -5.9,0 -13.3,0" />
          <path
             id="path1202"
             d="m 462.1,685.1 c 1.1,-14.3 2.2,-32.3 3.4,-54.2 0.9,-21.8 1.6,-41.7 1.9,-59.6 5.9,-0.1 10.2,-0.1 12.8,-0.1 2.6,0 6.4,0 11.5,0.1 -1,14.5 -2.1,32.8 -3.1,54.7 -1,21.8 -1.7,41.6 -2,59.1 -4.9,0 -8.7,0 -11.2,0 -1.4,0 -5.8,0 -13.3,0" />
          <path
             id="path1204"
             d="m 513.1,619 c 0.7,-3.7 1.5,-9 2.6,-15.7 14.1,-3.4 26.3,-4.9 36.4,-4.9 11.3,0 19.7,1.9 25.3,5.6 5.5,3.7 8.4,9.3 8.4,16.8 0,4.5 -0.4,12.3 -1.2,23.4 -1,12.6 -1.6,26.3 -1.7,41.1 -4,0 -7.8,0 -11.4,0 -3.6,0 -7.8,0 -12.2,0 0.8,-7.8 1.7,-20.6 2.6,-38.2 l 0.3,-5.8 c -2.8,1.8 -5,2.9 -6.6,3.7 -1.6,0.7 -5.8,1.9 -12.5,3.8 -6.6,1.9 -11.4,3.9 -14.3,6.3 -2.9,2.2 -4.3,5.1 -4.3,8.6 0,3.2 1.2,5.8 3.8,7.7 2.6,1.8 6,2.8 10.6,2.8 4,0 8.6,-0.9 13.5,-2.5 -1.1,3.4 -2.6,8.1 -4,14.1 -5.8,1 -11.1,1.5 -15.9,1.5 -10.7,0 -18.6,-2.2 -23.4,-6.7 -2,-2 -3.8,-4.5 -5.1,-7.7 -1.2,-3.2 -1.9,-6.5 -1.9,-9.7 0,-7.7 3.8,-14.1 11.2,-19.2 5.4,-3.7 15.4,-7.2 30,-10.3 7.8,-1.6 12.9,-3.5 15.1,-5.5 2.1,-2 3.4,-4.3 3.4,-6.8 0,-3 -1.2,-5.4 -3.9,-6.9 -2.7,-1.5 -6.3,-2.5 -11.1,-2.5 -9.8,-0.4 -20.9,2.1 -33.7,7" />
          <path
             id="path1206"
             d="m 636.1,723.5 c -0.9,-8.1 -1.7,-14.1 -2.5,-18 5.6,2.6 10.5,3.7 15,3.7 3.1,0 5.7,-0.6 7.9,-1.7 2.1,-1.2 4.1,-3.1 6,-5.8 3.2,-4.5 5.6,-9.4 7.5,-14.5 l -1.8,-5.3 C 658.6,653.6 650,628.8 642.5,607.2 l -2.5,-6.8 c 6.2,0 10.3,0 12.5,0 2.6,0 6.4,0 11.6,0 1.2,5.5 3.8,14.2 7.6,26.3 5.9,19.6 9.6,33.1 11.1,40.7 2.7,-8.1 7.9,-22 15.9,-41.8 5,-12.2 8.4,-20.6 10,-25.1 5.4,0 9.2,0 11.3,0 2,0 6,0 12.2,0 -1.8,4.1 -6.5,14.5 -14.1,31.3 -9,20 -18.6,42 -29,65.9 -2.7,6.4 -5,11.1 -6.9,14.1 -2,3 -4.4,5.6 -6.9,7.7 -5.6,4.3 -13,6.4 -22,6.4 -5.4,-0.2 -11.2,-1 -17.2,-2.4" />
          <path
             id="path1208"
             d="m 786.5,685.1 c 3.5,-33.7 5.4,-71.6 5.7,-113.8 6,-0.1 10.5,-0.1 13.4,-0.1 2.8,0 7.2,0 13.1,0.1 -2.5,36.1 -3.9,68.1 -4.8,96.1 8.6,0.1 15.6,0.1 21,0.1 13.3,0 24.1,-0.1 32.3,-0.6 -0.6,5.6 -0.9,10.7 -1.1,15.4 l -0.2,2.6 c -14.5,0 -27.3,0 -37.9,0 -10.9,0.2 -24.6,0.2 -41.5,0.2" />
          <path
             id="path1210"
             d="m 899.2,632.6 h 38.9 c 0,-4 -0.3,-6.9 -0.9,-9 -2.2,-7.7 -7.8,-11.5 -16.3,-11.5 -11.9,0.1 -19.1,6.9 -21.7,20.5 m 53.9,33.6 c -0.8,3.4 -1.8,9.2 -3.1,17.7 -10.5,2.1 -19.8,3.2 -27.9,3.2 -11,0 -19.7,-1.6 -26.2,-4.6 -7.6,-3.6 -13.1,-9.1 -16.7,-16.6 -3,-6.2 -4.5,-13.1 -4.5,-20.9 0,-9.8 2.2,-18.7 6.6,-26.5 7.7,-13.4 20.7,-20.1 39.2,-20.1 14,0 24.4,3.8 31.1,11.4 5.7,6.4 8.6,14.5 8.6,24.4 0,2.6 -0.2,5.3 -0.8,8.2 h -61.1 c -0.1,1.9 -0.1,3.6 -0.1,5 0,7.4 2.2,13.3 6.8,17.7 4.8,4.7 11.3,6.9 19.4,6.9 7.4,-0.1 16.9,-2 28.7,-5.8 z" />
          <path
             id="path1212"
             d="m 1008.9,588.9 c 5.1,-13 7.8,-19.8 7.9,-20.3 4.9,0.2 8.8,0.3 12.1,0.3 3,0 7.4,-0.1 13,-0.3 -3.8,4.7 -8.8,11.5 -15.2,20.3 -3.1,-0.1 -6,-0.1 -8.7,-0.1 -2.8,0 -5.8,0 -9.1,0.1 m 10.1,26.6 c -8.7,0 -15.2,3.1 -19.7,9.5 -3.5,5.1 -5.1,11.5 -5.1,19 0,8.4 1.9,14.9 5.8,19.2 4.1,4.6 9.5,6.9 16.1,6.9 9.5,0 16.3,-3.7 20.6,-11.2 2.8,-5 4.1,-11.2 4.1,-18.5 0,-8.1 -1.9,-14.3 -5.7,-18.6 -3.9,-3.9 -9.3,-6.2 -16.1,-6.3 z m -0.2,-17.2 c 15.3,0 27.3,4.6 35.7,13.8 6.6,7.3 10,16.8 10,28.6 0,7.9 -1.7,15.4 -5,22.5 -7.7,15.8 -22.3,23.8 -43.6,23.8 -7.9,0 -15.4,-1.6 -22.6,-4.9 -7.8,-3.5 -13.7,-9.1 -17.5,-16.6 -3.4,-6.6 -5,-14.1 -5,-22.5 0,-9 2.2,-17 6.8,-24.4 4,-6.7 9.6,-11.6 16.9,-15 7.2,-3.3 15.2,-5.1 24.3,-5.3 z" />
          <path
             id="path1214"
             d="m 1077.7,685.1 c 2.8,-27 4.4,-55.3 4.6,-84.8 5,0 9.3,0 12.5,0 3.6,0 7.4,0 11.3,0 l -0.9,14.2 c 3.7,-5.4 7.5,-9.1 11.2,-11.2 5.7,-3.4 13,-5 21.7,-5 21.3,0 31.8,9 31.8,27 0,3.4 -0.2,9 -0.7,17 -1,20.3 -1.6,34.6 -1.6,43 -4.7,0 -8.7,0 -12,0 -3.4,0 -7.4,0 -12.2,0 0.6,-6.9 1.1,-15.9 1.8,-26.9 0.6,-10.9 0.8,-18.4 0.8,-22.3 0,-5.8 -1.2,-10.1 -3.7,-13 -3.2,-3.9 -8.1,-5.8 -14.3,-5.8 -7.6,0 -13.5,2.9 -18,9 -2.9,3.8 -4.8,9.4 -5.8,16.8 -1,7.4 -1.8,21.5 -2.2,42.2 -4.6,0 -8.5,0 -11.5,0 -3,-0.2 -7.4,-0.2 -12.8,-0.2" />
        </g>
        <g
           id="g1234">
          <g
             id="g1228">
            <path
               id="path1218"
               d="m 470.2,515.5 c -0.2,-6.5 -0.8,-13.1 -1.5,-19.9 10.4,3.5 18.5,5.3 24.2,5.3 9.6,0 16,-3.5 19.2,-10.3 1.3,-2.9 2.2,-7.2 2.8,-12.6 0.4,-5.5 1,-19 1.8,-40.7 0.1,-7 0.3,-18.2 0.4,-33.5 6.7,-0.1 11,-0.1 13,-0.1 1.9,0 6.3,0 13.2,0.1 -1.8,26.1 -3.1,52 -4,77.9 -0.2,8.4 -1.1,14.9 -2.7,19.1 -1.6,4.3 -4.3,7.8 -8.1,10.6 -7.3,5.4 -17,8.1 -29,8.1 -7.6,-0.2 -17.4,-1.6 -29.3,-4" />
            <path
               id="path1220"
               d="m 646.2,517.3 c -4.8,0 -8.7,0 -11.6,0 -3.2,0 -6.7,0 -10.6,0 v -13.9 c -3.4,5.1 -6.6,8.7 -10.3,10.9 -5.4,3.4 -12.5,4.9 -21.3,4.9 -10.2,0 -18,-2.2 -23.3,-6.7 -5.3,-4.5 -8.1,-11.1 -8.1,-19.8 0,-2.5 0.3,-7.6 0.9,-15.3 1.2,-21.3 1.8,-36.3 1.7,-44.9 5.1,0 9.3,-0.1 12.4,-0.1 3.1,0 6.9,0.1 11.5,0.1 -2,26.5 -3.1,43.1 -3.1,49.8 0,12.1 5.8,18.1 17.5,18.1 7.7,0 13.5,-2.8 17.5,-8.4 2,-2.8 3.5,-6 4.3,-9.6 0.8,-3.6 1.5,-9.1 1.8,-16.6 0.6,-10.2 1,-21.4 1.2,-33.3 5.4,0 9.6,-0.1 12.6,-0.1 3.4,0 7.2,0.1 11.1,0.1 -2.4,30.8 -4,59 -4.2,84.8" />
            <path
               id="path1222"
               d="m 666.2,517.3 c 2.9,-27 4.4,-55.3 4.7,-84.8 5,0 9.2,-0.1 12.5,-0.1 3.6,0 7.4,0.1 11.2,0.1 l -0.9,14.1 c 3.7,-5.3 7.5,-9 11.2,-11.2 5.7,-3.4 13.1,-5 21.7,-5 21.3,0 31.9,9 31.9,27 0,3.4 -0.2,9 -0.7,17 -1.1,20.3 -1.7,34.6 -1.7,43 -4.7,0 -8.6,0 -12,0 -3.2,0 -7.3,0 -12.1,0 0.6,-6.9 1.1,-15.9 1.7,-26.9 0.6,-11 0.9,-18.4 0.9,-22.3 0,-5.8 -1.2,-10.2 -3.7,-13 -3.4,-3.9 -8.1,-5.8 -14.3,-5.8 -7.6,0 -13.7,2.9 -18,8.8 -3,3.9 -4.9,9.5 -5.9,16.9 -1,7.4 -1.7,21.5 -2.2,42.2 -4.6,0 -8.5,0 -11.5,0 -3.1,0 -7.3,0 -12.8,0" />
            <path
               id="path1224"
               d="m 828.3,499.7 c -0.8,3.7 -1.7,8.3 -2.8,14 l -0.4,2.9 c -7.2,1.6 -13.4,2.3 -18.7,2.3 -8.5,0 -14.5,-1.6 -18.5,-4.8 -3.9,-3.4 -5.8,-8.4 -5.8,-15.4 0,-1.6 0.4,-9.6 1.2,-24.2 0.6,-10.7 1,-19.1 1.3,-25.1 h -12.1 c 0.3,-3.8 0.6,-8.3 0.7,-13.4 l 0.1,-2.8 H 786 c 0.3,-3.8 0.7,-9.2 0.9,-16.3 l 3.7,-0.8 c 6.2,-1.2 12.2,-2.6 18.1,-3.9 -0.3,7.6 -0.6,14.5 -0.7,21 h 21.3 c -0.3,7.7 -0.6,13.2 -0.6,16.2 h -21.3 l -0.3,4.7 -0.7,12.8 c -0.7,12.2 -1,19.5 -1,21.7 0,4.5 0.7,7.7 2,9.7 1.6,2.5 4.4,3.7 8.3,3.7 3,-0.1 7.2,-0.7 12.6,-2.3" />
            <path
               id="path1226"
               d="m 847.9,451 c 0.7,-3.7 1.5,-9 2.6,-15.8 14.1,-3.2 26.3,-4.8 36.3,-4.8 11.3,0 19.8,1.8 25.4,5.6 5.5,3.7 8.3,9.3 8.3,16.8 0,4.5 -0.3,12.3 -1.2,23.4 -0.9,12.6 -1.5,26.3 -1.6,41.1 -4,0 -7.9,0 -11.5,0 -3.7,0 -7.7,0 -12.1,0 0.8,-7.8 1.6,-20.6 2.6,-38.2 l 0.3,-5.8 c -2.9,1.8 -5,3 -6.6,3.7 -1.7,0.7 -5.8,2 -12.5,3.9 -6.7,1.9 -11.4,3.9 -14.3,6.3 -2.9,2.2 -4.3,5.1 -4.3,8.6 0,3.2 1.2,5.8 3.8,7.6 2.6,1.8 6,2.8 10.6,2.8 4,0 8.6,-0.8 13.5,-2.3 -1.1,3.4 -2.6,8.1 -4,14.1 -5.8,1 -11.2,1.5 -15.9,1.5 -10.9,0 -18.7,-2.2 -23.4,-6.7 -2.1,-2 -3.9,-4.6 -5.1,-7.8 -1.2,-3.1 -1.9,-6.5 -1.9,-9.7 0,-7.7 3.8,-14.1 11.2,-19.2 5.4,-3.7 15.4,-7.2 30,-10.4 7.8,-1.6 12.9,-3.4 15,-5.4 2.2,-2 3.5,-4.3 3.5,-6.8 0,-3 -1.2,-5.4 -3.9,-6.9 -2.7,-1.6 -6.4,-2.5 -11.2,-2.5 -9.9,-0.4 -20.8,2 -33.6,6.9" />
          </g>
          <path
             id="path1230"
             d="m 1046.1,447.8 c -4.5,-1.2 -8.7,-1.8 -12.5,-1.8 -11,0 -19.4,3.4 -25,10.3 -2.5,2.8 -4.3,6.3 -5.6,10.4 -1.5,4 -2.1,8.3 -2.1,12.2 0,6.5 1.6,11.9 4.9,16 3.8,4.8 9,7.2 15.6,7.2 8.4,0 14.7,-3.8 18.8,-11.4 2.1,-4 3.6,-8.6 4.3,-13.7 0.6,-5 1,-14.8 1.6,-29.2 m 20.5,69.5 c -4.5,0 -8.1,0 -10.7,0 -2.8,0 -6.5,0 -11.4,0 l 0.8,-14.5 c -3.8,4.8 -7.2,8.3 -10.2,10.5 -5.8,4 -12.6,5.9 -20.4,5.9 -11.1,0 -20,-3.7 -26.9,-11.1 -6.4,-6.9 -9.6,-16.2 -9.6,-27.7 0,-9.8 2.2,-19 6.9,-27.4 8.5,-15 23.3,-22.5 44.5,-22.5 4.9,0 10.6,0.4 17.3,1.6 0.4,-7.7 0.7,-15.6 0.7,-23.5 -0.1,-1 -0.1,-2.8 -0.1,-5 5.9,-0.1 10.1,-0.1 12.4,-0.1 2.6,0 6.4,0 11.9,0.1 -1.3,16 -2.6,35.4 -3.6,58 -1,22.6 -1.5,41.1 -1.6,55.7 z" />
          <path
             id="path1232"
             d="m 1109.1,464.8 h 38.9 c 0,-4 -0.3,-7 -0.9,-9.1 -2.2,-7.6 -7.8,-11.4 -16.3,-11.4 -11.9,0 -19,6.8 -21.7,20.5 m 53.7,33.6 c -0.7,3.4 -1.7,9.2 -3,17.7 -10.5,2.1 -19.8,3.2 -28,3.2 -10.9,0 -19.6,-1.6 -26.1,-4.6 -7.6,-3.6 -13.1,-9.1 -16.7,-16.6 -3,-6.2 -4.5,-13.2 -4.5,-20.9 0,-9.8 2.2,-18.7 6.6,-26.5 7.7,-13.4 20.7,-20.1 39.2,-20.1 14,0 24.4,3.8 31.1,11.3 5.7,6.4 8.6,14.5 8.6,24.4 0,2.5 -0.2,5.3 -0.8,8.2 h -61.1 c -0.1,1.9 -0.1,3.6 -0.1,4.9 0,7.5 2.2,13.3 6.8,17.8 4.8,4.7 11.3,6.9 19.4,6.9 7.5,0 17.1,-1.9 28.6,-5.7 z" />
        </g>
      </g>
    </g>
    <g
       id="g1347"
       transform="matrix(0.11362686,0,0,0.11362686,83.344036,154.25082)">
      <path
         id="path1327"
         style="fill:#990000"
         d="m 119.4207,543.01679 h 29.16277 V 43.052497 H 119.4207 Z m 60.27256,0 h 89.42926 V 43.052497 H 179.69326 Z M 298.29136,43.052497 V 542.99895 h 89.42926 V 43.052497 Z" />
      <path
         id="path1329"
         style="fill:#339966"
         d="m 838.97933,543.0524 h 29.16883 V 43.052437 H 838.97933 Z M 899.25795,43.052437 V 543.0524 h 29.16277 V 43.052437 Z M 417.85387,543.05247 h 29.16277 V 43.052497 H 417.85387 Z M 478.13249,43.052497 V 543.03463 h 29.16884 V 43.052497 Z" />
      <path
         id="path1331"
         style="fill:#006699"
         d="m 537.42244,543.05247 h 89.4414 V 43.052497 h -89.4414 z m 118.5981,0 h 31.10372 V 43.052497 H 656.02054 Z M 716.2931,43.052497 V 543.03463 h 89.42926 V 43.052497 Z" />
      <path
         id="path1333"
         style="font-family:'Gill Sans MT';fill:#484848;fill-opacity:1;stroke:none"
         d="M 883.98859,598.08811 930.00421,701.7717 H 902.2464 l -8.53516,-20.48438 h -46.38672 l -7.71875,20.48438 h -27.38672 l 41.78516,-103.68359 h 29.98438 m 2.07812,65.08984 -16.69922,-40.30078 -15.21484,40.30078 h 31.91406 m -60.26562,-65.08984 v 19 H 788.2464 v 84.68359 h -25.82813 v -84.68359 h -37.55468 v -19 h 100.9375 m -133.59375,0 46.01562,103.68359 h -27.75781 l -8.53516,-20.48438 h -46.38672 l -7.71875,20.48438 H 620.4378 l 41.78516,-103.68359 h 29.98438 m 2.07812,65.08984 -16.69922,-40.30078 -15.21484,40.30078 h 31.91406 M 517.71905,598.08811 h 45.71875 c 17.66399,10e-5 31.6171,4.84905 41.85938,14.54687 10.29156,9.64852 15.43739,22.142 15.4375,37.48047 -1.1e-4,16.08076 -5.22016,28.72268 -15.66016,37.92578 -10.39071,9.15365 -25.23444,13.73047 -44.53125,13.73047 H 517.71905 V 598.08811 m 25.82813,19 v 65.68359 h 16.84766 c 10.93483,2e-5 19.2968,-2.99347 25.08593,-8.98047 5.78898,-6.03642 8.68351,-13.97782 8.6836,-23.82422 -9e-5,-10.19264 -2.9441,-18.20826 -8.83203,-24.04687 -5.83862,-5.88794 -14.25007,-8.83195 -25.23438,-8.83203 h -16.55078 m -49.72656,-19 V 701.7717 H 467.99249 V 598.08811 h 25.82813 m -48.91016,0 -33.76953,48.6875 45.79297,54.99609 H 424.57452 L 383.53155,653.15842 V 701.7717 H 357.70343 V 598.08811 h 25.82812 v 46.68359 l 32.95313,-46.68359 h 28.42578 m -111.10547,0 V 701.7717 H 307.97687 V 598.08811 h 25.82812 m -127.21094,37.40625 -32.0625,67.61328 H 163.39874 L 117.82843,598.08811 h 27.38672 l 24.41797,57.29687 26.64453,-57.29687 h 20.78125 l 26.64453,57.29687 24.26953,-57.29687 h 27.38672 L 249.9378,703.10764 h -11.13281 l -32.21094,-67.61328" />
    </g>
  </g>
  <style
     id="style1080"
     type="text/css">
	.st0{fill:#CA0026;}
	.st1{fill:#FFFFFF;}
	.st2{fill:#81003F;}
	.st3{fill:#FFB300;}
</style>
</svg>
