<?xml version="1.0" encoding="UTF-8" standalone="no"?>
<svg
   viewBox="0 0 135.46667 135.46667"
   height="512"
   width="512"
   version="1.1"
   id="svg119"
   sodipodi:docname="logo.svg"
   inkscape:version="1.3.2 (091e20e, 2023-11-25)"
   xmlns:inkscape="http://www.inkscape.org/namespaces/inkscape"
   xmlns:sodipodi="http://sodipodi.sourceforge.net/DTD/sodipodi-0.dtd"
   xmlns="http://www.w3.org/2000/svg"
   xmlns:svg="http://www.w3.org/2000/svg">
  <!-- <sodipodi:namedview
     id="namedview119"
     pagecolor="#ffffff"
     bordercolor="#666666"
     borderopacity="1.0"
     inkscape:showpageshadow="2"
     inkscape:pageopacity="0.0"
     inkscape:pagecheckerboard="0"
     inkscape:deskcolor="#d1d1d1"
     inkscape:zoom="0.93964214"
     inkscape:cx="354.39024"
     inkscape:cy="276.70109"
     inkscape:window-width="1680"
     inkscape:window-height="965"
     inkscape:window-x="0"
     inkscape:window-y="25"
     inkscape:window-maximized="1"
     inkscape:current-layer="svg119" /> -->
  <defs
     id="defs2">
    <clipPath
       id="a"
       clipPathUnits="userSpaceOnUse">
      <path
         transform="rotate(-1.353)"
         style="fill:#ffffff;fill-opacity:1;fill-rule:evenodd;stroke-width:7.08504;stroke-linejoin:round;paint-order:markers stroke fill"
         d="M 385.541,368.784 H 491.995 V 507.735 H 385.541 Z"
         id="path1" />
    </clipPath>
    <clipPath
       id="b"
       clipPathUnits="userSpaceOnUse">
      <path
         transform="rotate(-1.353)"
         style="fill:#ff0000;fill-opacity:1;fill-rule:evenodd;stroke-width:8.50991;stroke-linejoin:round;paint-order:markers stroke fill"
         d="m 405.249,215.32 h 68.57 v 153.501 h -68.57 z"
         id="path2" />
    </clipPath>
  </defs>
  <g
     transform="matrix(0.00655675,0.00147222,-0.00147222,0.00655675,1.723936,3.2491999)"
     id="g11" />
  <g
     transform="matrix(0.00655675,0.00147222,-0.00147222,0.00655675,1.723936,3.2491999)"
     id="g12" />
  <g
     transform="matrix(0.00655675,0.00147222,-0.00147222,0.00655675,1.723936,3.2491999)"
     id="g13" />
  <g
     transform="matrix(0.00655675,0.00147222,-0.00147222,0.00655675,1.723936,3.2491999)"
     id="g14" />
  <g
     transform="matrix(0.00655675,0.00147222,-0.00147222,0.00655675,1.723936,3.2491999)"
     id="g15" />
  <g
     transform="matrix(0.00655675,0.00147222,-0.00147222,0.00655675,1.723936,3.2491999)"
     id="g16" />
  <g
     transform="matrix(0.00655675,0.00147222,-0.00147222,0.00655675,1.723936,3.2491999)"
     id="g17" />
  <g
     transform="matrix(0.00655675,0.00147222,-0.00147222,0.00655675,1.723936,3.2491999)"
     id="g18" />
  <g
     transform="matrix(0.00655675,0.00147222,-0.00147222,0.00655675,1.723936,3.2491999)"
     id="g19" />
  <g
     transform="matrix(0.00655675,0.00147222,-0.00147222,0.00655675,1.723936,3.2491999)"
     id="g20" />
  <g
     transform="matrix(0.00655675,0.00147222,-0.00147222,0.00655675,1.723936,3.2491999)"
     id="g21" />
  <g
     transform="matrix(0.00655675,0.00147222,-0.00147222,0.00655675,1.723936,3.2491999)"
     id="g22" />
  <g
     transform="matrix(0.00655675,0.00147222,-0.00147222,0.00655675,1.723936,3.2491999)"
     id="g23" />
  <g
     transform="matrix(0.00655675,0.00147222,-0.00147222,0.00655675,1.723936,3.2491999)"
     id="g24" />
  <g
     transform="matrix(0.00655675,0.00147222,-0.00147222,0.00655675,1.723936,3.2491999)"
     id="g25" />
  <g
     transform="matrix(0.00674,-0.00167,0.00167,0.00674,7.031,3.896)"
     id="g28" />
  <g
     transform="matrix(0.00674,-0.00167,0.00167,0.00674,7.031,3.896)"
     id="g29" />
  <g
     transform="matrix(0.00674,-0.00167,0.00167,0.00674,7.031,3.896)"
     id="g30" />
  <g
     transform="matrix(0.00674,-0.00167,0.00167,0.00674,7.031,3.896)"
     id="g31" />
  <g
     transform="matrix(0.00674,-0.00167,0.00167,0.00674,7.031,3.896)"
     id="g32" />
  <g
     transform="matrix(0.00674,-0.00167,0.00167,0.00674,7.031,3.896)"
     id="g33" />
  <g
     transform="matrix(0.00674,-0.00167,0.00167,0.00674,7.031,3.896)"
     id="g34" />
  <g
     transform="matrix(0.00674,-0.00167,0.00167,0.00674,7.031,3.896)"
     id="g35" />
  <g
     transform="matrix(0.00674,-0.00167,0.00167,0.00674,7.031,3.896)"
     id="g36" />
  <g
     transform="matrix(0.00674,-0.00167,0.00167,0.00674,7.031,3.896)"
     id="g37" />
  <g
     transform="matrix(0.00674,-0.00167,0.00167,0.00674,7.031,3.896)"
     id="g38" />
  <g
     transform="matrix(0.00674,-0.00167,0.00167,0.00674,7.031,3.896)"
     id="g39" />
  <g
     transform="matrix(0.00674,-0.00167,0.00167,0.00674,7.031,3.896)"
     id="g40" />
  <g
     transform="matrix(0.00674,-0.00167,0.00167,0.00674,7.031,3.896)"
     id="g41" />
  <g
     transform="matrix(0.00674,-0.00167,0.00167,0.00674,7.031,3.896)"
     id="g42" />
  <g
     transform="matrix(0.00589086,-0.00124022,0.00124022,0.00589086,3.0016375,4.0292578)"
     id="g49" />
  <g
     transform="matrix(0.00589086,-0.00124022,0.00124022,0.00589086,3.0016375,4.0292578)"
     id="g50" />
  <g
     transform="matrix(0.00589086,-0.00124022,0.00124022,0.00589086,3.0016375,4.0292578)"
     id="g51" />
  <g
     transform="matrix(0.00589086,-0.00124022,0.00124022,0.00589086,3.0016375,4.0292578)"
     id="g52" />
  <g
     transform="matrix(0.00589086,-0.00124022,0.00124022,0.00589086,3.0016375,4.0292578)"
     id="g53" />
  <g
     transform="matrix(0.00589086,-0.00124022,0.00124022,0.00589086,3.0016375,4.0292578)"
     id="g54" />
  <g
     transform="matrix(0.00589086,-0.00124022,0.00124022,0.00589086,3.0016375,4.0292578)"
     id="g55" />
  <g
     transform="matrix(0.00589086,-0.00124022,0.00124022,0.00589086,3.0016375,4.0292578)"
     id="g56" />
  <g
     transform="matrix(0.00589086,-0.00124022,0.00124022,0.00589086,3.0016375,4.0292578)"
     id="g57" />
  <g
     transform="matrix(0.00589086,-0.00124022,0.00124022,0.00589086,3.0016375,4.0292578)"
     id="g58" />
  <g
     transform="matrix(0.00589086,-0.00124022,0.00124022,0.00589086,3.0016375,4.0292578)"
     id="g59" />
  <g
     transform="matrix(0.00589086,-0.00124022,0.00124022,0.00589086,3.0016375,4.0292578)"
     id="g60" />
  <g
     transform="matrix(0.00589086,-0.00124022,0.00124022,0.00589086,3.0016375,4.0292578)"
     id="g61" />
  <g
     transform="matrix(0.00589086,-0.00124022,0.00124022,0.00589086,3.0016375,4.0292578)"
     id="g62" />
  <g
     transform="matrix(0.00589086,-0.00124022,0.00124022,0.00589086,3.0016375,4.0292578)"
     id="g63" />
  <g
     transform="matrix(0.00574,2.9e-4,-2.9e-4,0.00574,5.726,3.893)"
     id="g83" />
  <g
     transform="matrix(0.00574,2.9e-4,-2.9e-4,0.00574,5.726,3.893)"
     id="g84" />
  <g
     transform="matrix(0.00574,2.9e-4,-2.9e-4,0.00574,5.726,3.893)"
     id="g85" />
  <g
     transform="matrix(0.00574,2.9e-4,-2.9e-4,0.00574,5.726,3.893)"
     id="g86" />
  <g
     transform="matrix(0.00574,2.9e-4,-2.9e-4,0.00574,5.726,3.893)"
     id="g87" />
  <g
     transform="matrix(0.00574,2.9e-4,-2.9e-4,0.00574,5.726,3.893)"
     id="g88" />
  <g
     transform="matrix(0.00574,2.9e-4,-2.9e-4,0.00574,5.726,3.893)"
     id="g89" />
  <g
     transform="matrix(0.00574,2.9e-4,-2.9e-4,0.00574,5.726,3.893)"
     id="g90" />
  <g
     transform="matrix(0.00574,2.9e-4,-2.9e-4,0.00574,5.726,3.893)"
     id="g91" />
  <g
     transform="matrix(0.00574,2.9e-4,-2.9e-4,0.00574,5.726,3.893)"
     id="g92" />
  <g
     transform="matrix(0.00574,2.9e-4,-2.9e-4,0.00574,5.726,3.893)"
     id="g93" />
  <g
     transform="matrix(0.00574,2.9e-4,-2.9e-4,0.00574,5.726,3.893)"
     id="g94" />
  <g
     transform="matrix(0.00574,2.9e-4,-2.9e-4,0.00574,5.726,3.893)"
     id="g95" />
  <g
     transform="matrix(0.00574,2.9e-4,-2.9e-4,0.00574,5.726,3.893)"
     id="g96" />
  <g
     transform="matrix(0.00574,2.9e-4,-2.9e-4,0.00574,5.726,3.893)"
     id="g97" />
  <g
     id="g120"
     transform="translate(16.703013,16.468406)">
    <g
       transform="matrix(1.2086859,0,0,1.2086859,0.53048901,12.785876)"
       id="g3">
      <rect
         ry="2.6459999"
         rx="2.6459999"
         y="0.66100001"
         x="5.2919998"
         height="34.396"
         width="68.792"
         style="fill:#d38d5f;fill-opacity:1;stroke:#000000;stroke-width:1.32292;stroke-miterlimit:4;stroke-dasharray:none;stroke-opacity:1;stop-color:#000000"
         id="rect2" />
      <rect
         ry="1.323"
         rx="1.323"
         y="5.9530001"
         x="10.583"
         height="29.104"
         width="58.208"
         style="fill:#28170b;fill-opacity:1;stroke:#000000;stroke-width:1.32292;stroke-miterlimit:4;stroke-dasharray:none;stroke-opacity:1;stop-color:#000000"
         id="rect3" />
    </g>
    <path
       d="m 23.730219,31.549912 c -0.320683,-0.072 -0.521722,-0.390571 -0.449705,-0.711308 l 0.391182,-1.742194 a 0.59416728,0.59416728 0 0 1 0.710425,-0.449846 0.59416728,0.59416728 0 0 1 0.449913,0.710382 l -0.391183,1.742194 c -0.07202,0.320737 -0.389895,0.522789 -0.710632,0.450772 z"
       style="fill:#434a54;stroke-width:0.0558008"
       id="path3" />
    <path
       d="m 25.62396,33.43879 -1.220689,-2.713533 a 0.59472529,0.59472529 0 0 0 -0.412333,-0.336499 0.59472529,0.59472529 0 0 0 -0.516612,0.127919 l -2.263644,1.93118 a 0.59500429,0.59500429 0 0 0 -0.191021,0.596037 0.5953949,0.5953949 0 0 0 0.446718,0.438069 l 3.484333,0.782353 a 0.5953949,0.5953949 0 0 0 0.591117,-0.205038 0.59299546,0.59299546 0 0 0 0.08213,-0.620488 z"
       style="fill:#656d78;stroke-width:0.0558008"
       id="path4" />
    <path
       d="m 25.211639,33.102237 -3.484333,-0.782354 c -0.320683,-0.072 -0.638616,0.130035 -0.710633,0.450772 l -0.521646,2.323234 a 0.59416728,0.59416728 0 0 0 0.449913,0.710382 l 3.484333,0.782353 a 0.59416728,0.59416728 0 0 0 0.710425,-0.449846 l 0.521646,-2.323234 c 0.07202,-0.320737 -0.128968,-0.639291 -0.449705,-0.711307 z"
       style="fill:#e9573f;stroke-width:0.0558008"
       id="path5" />
    <path
       d="M 26.322916,38.476453 25.102314,35.762024 A 0.59461369,0.59461369 0 0 0 24.689993,35.42547 l -3.484334,-0.782353 a 0.59461369,0.59461369 0 0 0 -0.516623,0.127973 l -2.263841,1.932051 a 0.59316287,0.59316287 0 0 0 -0.190813,0.595112 0.59372087,0.59372087 0 0 0 0.446718,0.438069 l 6.968775,1.564731 a 0.59372087,0.59372087 0 0 0 0.591118,-0.205039 c 0.142841,-0.174383 0.175321,-0.414552 0.08192,-0.619561 z"
       style="fill:#fc6e51;stroke-width:0.0558008"
       id="path6" />
    <path
       d="m 23.954681,46.850868 -6.968776,-1.564731 a 0.59427888,0.59427888 0 0 0 -0.710436,0.449901 l -2.086366,9.291954 c -0.07202,0.320737 0.128968,0.639292 0.449705,0.711308 l 6.968776,1.564731 c 0.320737,0.07202 0.638616,-0.130035 0.710632,-0.450772 l 2.086365,-9.291954 a 0.59427888,0.59427888 0 0 0 -0.4499,-0.710437 z m 1.955913,-8.710969 -6.968775,-1.564731 a 0.59427888,0.59427888 0 0 0 -0.710437,0.449901 L 17.8402,38.767262 c -0.07201,0.320683 0.12898,0.639237 0.449717,0.711254 l 6.968775,1.564731 c 0.320737,0.07202 0.638616,-0.130035 0.71062,-0.450718 l 0.391183,-1.742193 a 0.59427888,0.59427888 0 0 0 -0.449901,-0.710437 z"
       style="fill:#e9573f;stroke-width:0.0558008"
       id="path7" />
    <path
       d="m 18.656366,48.710936 c -0.319866,-0.07182 -0.638433,0.129218 -0.710633,0.450772 l -1.564731,6.968775 1.162025,0.260915 1.564732,-6.968776 c 0.0722,-0.321553 -0.12984,-0.639486 -0.451393,-0.711686 z m 2.324104,0.521842 c -0.321553,-0.0722 -0.640174,0.128827 -0.712374,0.45038 l -1.564731,6.968776 1.161971,0.260902 1.564731,-6.968775 c 0.0722,-0.321554 -0.129731,-0.639462 -0.449597,-0.711283 z m 5.287032,-9.793046 -8.203975,-1.842077 c -0.319866,-0.07182 -0.638432,0.129219 -0.710632,0.450772 l -1.82545,8.12993 c -0.07202,0.320737 0.129839,0.639487 0.449705,0.711308 l 8.203975,1.842076 c 0.319866,0.07182 0.638615,-0.130035 0.710632,-0.450772 l 1.82545,-8.12993 c 0.0722,-0.321553 -0.129839,-0.639486 -0.449705,-0.711307 z"
       style="fill:#fc6e51;stroke-width:0.0558008"
       id="path8" />
    <path
       d="m 21.904756,39.679896 c -1.920829,-0.431293 -3.835461,0.781193 -4.266753,2.702022 -0.431476,1.921645 0.781193,3.835461 2.702022,4.266753 1.920774,0.431281 3.835277,-0.780376 4.266753,-2.702022 0.431293,-1.920829 -0.781248,-3.835473 -2.702022,-4.266753 z"
       style="fill:#e6e9ed;stroke-width:0.0558008"
       id="path9" />
    <path
       d="m 20.991939,43.745269 c -0.320682,-0.072 -0.521722,-0.390571 -0.449717,-0.711253 l 0.521451,-2.322363 c 0.0722,-0.321554 0.389949,-0.522776 0.710632,-0.450772 0.320737,0.07202 0.521905,0.389754 0.449705,0.711308 l -0.521451,2.322363 c -0.072,0.320682 -0.389883,0.522734 -0.71062,0.450717 z"
       style="fill:#424953;stroke-width:0.0558008"
       id="path10" />
    <path
       d="M 22.265826,45.756785 A 0.5957855,0.5957855 0 0 1 21.89313,45.494383 l -1.273015,-2.011321 a 0.59349767,0.59349767 0 0 1 0.184509,-0.821742 c 0.277081,-0.175468 0.644587,-0.09295 0.820055,0.184131 l 1.274648,2.011687 c 0.175273,0.277952 0.09277,0.645403 -0.184509,0.821742 a 0.5957297,0.5957297 0 0 1 -0.448992,0.07791 z"
       style="fill:#424953;stroke-width:0.0558008"
       id="path11" />
    <path
       d="m 72.094538,40.471397 c -0.329645,0.08168 -0.663522,-0.119601 -0.745213,-0.449302 L 68.391152,28.083122 c -0.08169,-0.329701 0.119601,-0.663522 0.449246,-0.745199 0.329701,-0.08169 0.662725,0.119739 0.744416,0.44944 l 2.958173,11.938973 c 0.08169,0.329701 -0.118748,0.66337 -0.448449,0.745061 z"
       style="fill:#434a54;stroke-width:0.0576593"
       id="path25" />
    <path
       d="M 83.39824,53.193719 C 80.625137,50.310297 77.456909,45.40855 74.237095,39.017881 71.793324,34.166878 70.16614,30.133552 70.150478,30.09288 70.035701,29.809454 69.730358,29.652133 69.433006,29.725809 l -8.96e-4,2.22e-4 a 0.61435969,0.61435969 0 0 0 -0.464154,0.658898 c 0.0041,0.04259 0.437443,4.372725 0.535977,9.804818 0.129642,7.157225 -0.378109,12.970677 -1.467118,16.812933 a 0.61435969,0.61435969 0 0 0 0.149296,0.595114 0.61580117,0.61580117 0 0 0 0.590461,0.169247 l 2.387268,-0.591505 c 0.257112,-0.0637 0.444603,-0.284687 0.465476,-0.548795 6.76e-4,-0.0085 0.07984,-0.880113 0.540712,-1.829629 0.612703,-1.261932 1.582334,-2.064608 2.882613,-2.386784 1.285896,-0.318612 2.507852,-0.06911 3.629719,0.742602 0.874887,0.631498 1.361637,1.382393 1.364953,1.388105 a 0.61522458,0.61522458 0 0 0 0.667798,0.268 l 2.388164,-0.591726 a 0.61580117,0.61580117 0 0 0 0.442914,-0.426242 0.61539756,0.61539756 0 0 0 -0.147949,-0.597348 z m -7.777784,-5.596352 a 0.61441735,0.61441735 0 0 1 -0.40995,0.338236 l -2.387717,0.591615 a 0.61447501,0.61447501 0 0 1 -0.762207,-0.581421 l -0.137545,-5.668414 a 0.61574351,0.61574351 0 0 1 0.467316,-0.612337 c 0.279834,-0.06934 0.57022,0.06478 0.698363,0.323511 l 2.52431,5.077035 a 0.61361012,0.61361012 0 0 1 0.0074,0.531775 z"
       style="fill:#da4453;stroke-width:0.0576593"
       id="path26" />
    <path
       d="M 79.663888,45.565284 67.77786,48.510338 c -0.329701,0.08169 -0.530084,0.415347 -0.448407,0.744992 l 0.591519,2.387324 c 0.08168,0.329645 0.414714,0.531132 0.74436,0.449455 L 80.55136,49.147054 c 0.329701,-0.08169 0.530084,-0.415346 0.448406,-0.744991 l -0.591518,-2.387325 c -0.08168,-0.329645 -0.414715,-0.531132 -0.74436,-0.449454 z m -9.958881,-1.968053 5.960755,-1.476923 c 0.329701,-0.08169 0.531188,-0.414729 0.449525,-0.744318 L 75.52356,38.987826 c -0.08169,-0.329701 -0.415568,-0.53098 -0.745269,-0.449289 l -5.960755,1.476924 c -0.329645,0.08168 -0.530924,0.415554 -0.449233,0.745255 l 0.591726,2.388164 c 0.08168,0.329645 0.415333,0.530028 0.744978,0.448351 z"
       style="fill:#ed5564;stroke-width:0.0576593"
       id="path27" />
    <path
       d="m 71.64507,41.215701 c 0.08169,0.329701 -0.119588,0.663578 -0.449233,0.745256 -0.329701,0.08169 -0.662682,-0.11981 -0.744374,-0.449511 a 0.61395607,0.61395607 0 0 1 0.448629,-0.744096 c 0.329645,-0.08168 0.6633,0.118706 0.744978,0.448351 z m 2.31244,-0.572964 c 0.08169,0.329701 -0.118691,0.663356 -0.448337,0.745034 -0.329253,0.08158 -0.663074,-0.119712 -0.744765,-0.449413 -0.08169,-0.329701 0.119767,-0.662613 0.44902,-0.744193 a 0.61389841,0.61389841 0 0 1 0.744082,0.448572 z m -2.777671,8.925509 c 0.08169,0.329702 -0.118692,0.663356 -0.448393,0.745048 -0.329701,0.08169 -0.663522,-0.119601 -0.745213,-0.449302 -0.08169,-0.329701 0.119587,-0.663578 0.449232,-0.745256 0.329645,-0.08168 0.662682,0.119809 0.744374,0.44951 z m 2.388164,-0.591726 c 0.08169,0.329701 -0.119588,0.663578 -0.449233,0.745256 -0.329701,0.08169 -0.662682,-0.119809 -0.744374,-0.44951 -0.08169,-0.329701 0.118748,-0.66337 0.448393,-0.745048 0.329645,-0.08168 0.663522,0.119601 0.745214,0.449302 z m 2.38766,-0.591601 c 0.08169,0.329701 -0.119531,0.663564 -0.449233,0.745256 -0.329253,0.08158 -0.663074,-0.119713 -0.744765,-0.449414 -0.08169,-0.329701 0.119531,-0.663564 0.448785,-0.745144 0.329701,-0.08169 0.663521,0.119601 0.745213,0.449302 z m 2.387324,-0.591518 c 0.08169,0.329701 -0.118747,0.66337 -0.448393,0.745047 -0.329645,0.08168 -0.663577,-0.119587 -0.745269,-0.449288 -0.08169,-0.329701 0.119587,-0.663578 0.449289,-0.745269 0.329701,-0.08169 0.662682,0.119809 0.744373,0.44951 z"
       style="fill:#da4453;stroke-width:0.0576593"
       id="path28" />
    <path
       d="m 34.015733,31.445401 c -0.288164,0.06067 -0.570485,-0.124127 -0.631142,-0.412242 L 33.164947,29.98988 c -0.06067,-0.288164 0.123239,-0.571064 0.411354,-0.631722 0.288114,-0.06066 0.570474,0.124079 0.631142,0.412242 l 0.219644,1.043279 c 0.06065,0.288066 -0.12319,0.571054 -0.411354,0.631722 z"
       style="fill:#434a54;stroke-width:0.0499882"
       id="path42" />
    <path
       d="m 37.28971,34.326286 -2.966736,-3.734154 a 0.53262477,0.53262477 0 0 0 -0.932435,0.196308 l -1.208581,4.613194 a 0.53342459,0.53342459 0 0 0 0.129005,0.502838 0.53397446,0.53397446 0 0 0 0.496972,0.153958 l 4.173017,-0.878556 c 0.181919,-0.0383 0.32968,-0.166774 0.392711,-0.341266 a 0.53542412,0.53542412 0 0 0 -0.08395,-0.512322 z"
       style="fill:#656d78;stroke-width:0.0499882"
       id="path43" />
    <path
       style="fill:#5d9cec;stroke-width:0.0499882"
       d="m 33.522155,38.355348 3.951918,-0.832007 3.461085,16.439665 -3.951918,0.832007 z"
       id="path44" />
    <path
       d="m 39.864377,41.111428 -2.086558,0.439288 A 0.53232484,0.53232484 45 0 1 37.14688,41.139198 l -0.659076,-3.130522 c -0.06067,-0.288164 0.123239,-0.571064 0.411305,-0.631711 l 2.086557,-0.439289 c 0.288898,-0.06082 0.571991,0.12376 0.632659,0.411923 l 0.659077,3.130522 c 0.06066,0.288115 -0.124079,0.570474 -0.413025,0.631307 z m -5.21703,1.098355 -2.086509,0.439278 c -0.288898,0.06082 -0.571896,-0.123064 -0.632553,-0.411179 L 31.269208,39.10736 c -0.06067,-0.288163 0.123973,-0.571218 0.412919,-0.632051 l 2.086509,-0.439278 c 0.288164,-0.06067 0.570474,0.124079 0.631142,0.412242 l 0.659077,3.130522 a 0.53237483,0.53237483 45 0 1 -0.411508,0.630988 z"
       style="fill:#f6bb42;stroke-width:0.0499882"
       id="path45" />
    <path
       d="M 34.427713,41.166553 31.81839,41.7159 c -0.287332,0.06049 -0.471973,0.343547 -0.411305,0.631711 l 2.746047,13.043334 3.651769,-0.768816 -2.746046,-13.043334 c -0.06067,-0.288164 -0.342979,-0.47291 -0.631142,-0.412242 z m 5.739795,-1.208414 -2.609323,0.549347 c -0.288115,0.06066 -0.471973,0.343548 -0.411305,0.631712 L 39.892927,54.182532 43.544696,53.413715 40.79865,40.370381 C 40.73798,40.082217 40.454889,39.897636 40.167508,39.958139 Z M 39.2053,37.980906 31.901761,39.518539 a 0.53367453,0.53367453 0 0 1 -0.437742,-0.100224 0.53287471,0.53287471 0 0 1 -0.205318,-0.398957 l -0.137829,-3.240261 a 0.53402444,0.53402444 0 0 1 0.423416,-0.544098 l 6.261043,-1.318153 c 0.255292,-0.05375 0.511116,0.08478 0.606851,0.327193 l 1.180276,3.020792 a 0.53277474,0.53277474 0 0 1 -0.02703,0.447875 0.5333746,0.5333746 0 0 1 -0.360126,0.2682 z"
       style="fill:#ffce54;stroke-width:0.0499882"
       id="path46" />
    <path
       d="m 36.514222,40.727275 -1.042497,0.219479 c -0.288897,0.06082 -0.572001,-0.123808 -0.632669,-0.411972 -0.06067,-0.288164 0.124079,-0.570474 0.413025,-0.631307 l 1.042496,-0.219479 c 0.288849,-0.06081 0.571847,0.123074 0.632505,0.411189 0.06066,0.288115 -0.123963,0.571267 -0.41286,0.63209 z m 0.439432,2.087242 -1.042496,0.21948 c -0.288898,0.06082 -0.572001,-0.123809 -0.632659,-0.411923 -0.06067,-0.288164 0.123914,-0.571257 0.41286,-0.63209 l 1.042496,-0.219479 c 0.288849,-0.06081 0.572002,0.123808 0.632669,0.411971 0.06066,0.288115 -0.123973,0.571219 -0.41287,0.632041 z m 0.439278,2.086509 -1.042496,0.219479 c -0.288898,0.06082 -0.571847,-0.123074 -0.632504,-0.411189 -0.06066,-0.288115 0.123913,-0.571257 0.41286,-0.632089 l 1.042496,-0.21948 c 0.288848,-0.06081 0.572001,0.123808 0.632669,0.411972 0.06067,0.288164 -0.124127,0.570485 -0.413025,0.631307 z m 0.439433,2.087243 -1.042497,0.219479 c -0.288897,0.06082 -0.571991,-0.123759 -0.632658,-0.411923 -0.06067,-0.288164 0.124078,-0.570474 0.413024,-0.631307 l 1.042497,-0.219479 c 0.288848,-0.06081 0.571846,0.123074 0.632504,0.411189 0.06066,0.288115 -0.123973,0.571218 -0.41287,0.632041 z m 0.439453,2.08734 -1.042497,0.21948 c -0.288897,0.06082 -0.572001,-0.123809 -0.632669,-0.411972 -0.06067,-0.288164 0.123914,-0.571257 0.41286,-0.63209 l 1.042497,-0.219479 c 0.288848,-0.06081 0.572001,0.123808 0.632669,0.411971 0.06067,0.288164 -0.123963,0.571268 -0.41286,0.63209 z m 0.439267,2.08646 -1.042496,0.219479 c -0.288897,0.06082 -0.571847,-0.123074 -0.632504,-0.411189 -0.06066,-0.288115 0.123924,-0.571208 0.41287,-0.632041 l 1.042497,-0.219479 c 0.288848,-0.06081 0.57199,0.123759 0.632658,0.411923 0.06067,0.288164 -0.124127,0.570485 -0.413025,0.631307 z"
       style="fill:#4a89dc;stroke-width:0.0499882"
       id="path47" />
    <path
       d="m 41.841607,50.502992 c -0.287381,0.0605 -0.472012,0.343607 -0.411344,0.631771 0.06067,0.288164 0.343772,0.472794 0.631153,0.412291 l 1.044012,-0.219799 -0.219808,-1.044061 z m -0.439268,-2.08646 c -0.287381,0.0605 -0.472166,0.342873 -0.411519,0.630939 0.06067,0.288164 0.343772,0.472794 0.631153,0.412291 l 1.044013,-0.219798 -0.219634,-1.04323 z m -0.439453,-2.08734 c -0.287381,0.0605 -0.472011,0.343607 -0.411344,0.63177 0.06067,0.288164 0.343607,0.472012 0.630988,0.411509 l 1.044013,-0.219799 -0.219644,-1.043279 z m -0.439432,-2.087243 c -0.287382,0.0605 -0.472012,0.343607 -0.411344,0.631771 0.06067,0.288164 0.343761,0.472745 0.631142,0.412242 l 1.044013,-0.219799 -0.219799,-1.044012 z m -0.439278,-2.086508 c -0.287382,0.0605 -0.472166,0.342873 -0.411509,0.630987 0.06066,0.288115 0.343761,0.472746 0.631142,0.412243 l 1.044013,-0.219799 -0.219634,-1.04323 z m -7.083906,2.580862 c 0.287381,-0.0605 0.472022,-0.343558 0.411354,-0.631721 -0.06067,-0.288164 -0.343607,-0.472012 -0.630988,-0.411509 l -1.044012,0.219799 0.219634,1.04323 z m 0.439443,2.087292 c 0.287381,-0.0605 0.472022,-0.343558 0.411354,-0.631722 -0.06067,-0.288164 -0.343772,-0.472794 -0.631153,-0.412291 l -1.044012,0.219799 0.219798,1.044012 z m 0.439278,2.086509 c 0.287381,-0.0605 0.472166,-0.342873 0.411508,-0.630988 -0.06066,-0.288115 -0.343771,-0.472794 -0.631152,-0.412291 l -1.044013,0.219798 0.219644,1.043279 z m 0.439443,2.087291 c 0.287381,-0.0605 0.472011,-0.343607 0.411343,-0.63177 -0.06066,-0.288115 -0.343596,-0.471963 -0.630977,-0.41146 l -1.044013,0.219799 0.219634,1.04323 z m 0.439443,2.087292 c 0.287381,-0.0605 0.472011,-0.343607 0.411343,-0.631771 -0.06067,-0.288164 -0.343771,-0.472794 -0.631152,-0.412291 l -1.044013,0.219799 0.219809,1.044061 z"
       style="fill:#5d9cec;stroke-width:0.0499882"
       id="path48" />
    <path
       style="fill:#f6bb42;stroke-width:0.0499882"
       d="m 31.17066,36.948299 0.04614,1.079808 8.014336,-1.687279 -0.3931,-1.006761 z"
       id="path49" />
    <path
       d="m 55.672976,35.546742 c -0.281451,-0.01422 -0.497101,-0.253574 -0.482915,-0.534358 l 0.154112,-3.05035 c 0.01419,-0.280784 0.25284,-0.496756 0.534291,-0.482537 0.280832,0.01419 0.496456,0.253112 0.48227,0.533896 l -0.154112,3.05035 c -0.01419,0.280784 -0.252862,0.497185 -0.533646,0.482999 z"
       style="fill:#f6bb42;stroke-width:0.047724"
       id="path63" />
    <path
       d="M 56.792673,33.564284 54.758455,33.46151 c -0.280784,-0.01419 -0.496406,-0.253157 -0.482222,-0.533893 0.01419,-0.280784 0.252843,-0.496804 0.533579,-0.48262 l 2.034218,0.102774 c 0.280022,0.01415 0.496358,0.253154 0.482172,0.533938 -0.01418,0.280689 -0.253507,0.496722 -0.533529,0.482575 z"
       style="fill:#ffce54;stroke-width:0.047724"
       id="path64" />
    <path
       d="m 55.364753,41.647443 c -0.14075,-0.0071 -0.243152,-0.240744 -0.228969,-0.521481 l 0.07706,-1.525175 c 0.01419,-0.280784 0.139595,-0.502525 0.280345,-0.495414 0.140034,0.0071 0.242503,0.240329 0.228317,0.521113 l -0.07706,1.525175 c -0.01418,0.280737 -0.139659,0.502857 -0.279693,0.495782 z"
       style="fill:#434a54;stroke-width:0.047724"
       id="path65" />
    <path
       style="fill:#ffce54;stroke-width:0.047724"
       d="m 54.519839,38.185413 2.034218,0.102774 -0.06955,1.376657 -2.034219,-0.102774 z"
       id="path66" />
    <path
       d="m 58.014506,37.930667 -1.878533,-3.153045 a 0.50945375,0.50945375 0 0 0 -0.411621,-0.247774 0.50754479,0.50754479 0 0 0 -0.434401,0.205031 l -2.187949,2.947595 a 0.50754479,0.50754479 0 0 0 -0.09989,0.277505 l -0.154114,3.050398 c -0.01418,0.280737 0.202181,0.520128 0.482965,0.534313 l 4.066483,0.20545 c 0.281498,0.01422 0.520937,-0.20214 0.53512,-0.482877 l 0.154115,-3.050398 c 0.0051,-0.10014 -0.01976,-0.199927 -0.07218,-0.286198 z m -1.073583,2.776918 -3.049969,-0.154093 0.120646,-2.387974 1.640758,-2.210683 1.409211,2.364775 z"
       style="fill:#eaad7a;stroke-width:0.047724"
       id="path67" />
    <path
       d="M 57.551557,38.69979 53.485075,38.49434 A 0.50974009,0.50974009 0 0 1 53.05032,38.203203 0.50840382,0.50840382 0 0 1 53.102,37.682474 l 2.187949,-2.947595 a 0.50754479,0.50754479 0 0 1 0.434401,-0.205031 c 0.169824,0.0086 0.324206,0.101484 0.411621,0.247774 l 1.878533,3.153045 a 0.50659031,0.50659031 0 0 1 -0.0011,0.523286 0.50888106,0.50888106 0 0 1 -0.461885,0.245837 z"
       style="fill:#ed5564;stroke-width:0.047724"
       id="path68" />
    <path
       d="m 52.006159,47.594413 -1.525175,-0.07706 c -0.281499,-0.01422 -0.497103,-0.253527 -0.482879,-0.535073 l 0.205452,-4.06653 a 0.50897651,0.50897651 0 0 1 0.534311,-0.482918 l 1.525175,0.07706 c 0.280784,0.01419 0.496388,0.253491 0.482203,0.534275 l -0.205452,4.06653 c -0.01423,0.281546 -0.252898,0.4979 -0.533635,0.483716 z m 7.625542,0.385263 -1.525175,-0.07706 c -0.281499,-0.01422 -0.496388,-0.253491 -0.482164,-0.535037 l 0.205452,-4.06653 c 0.01419,-0.280784 0.252097,-0.497176 0.533596,-0.482954 l 1.525175,0.07706 c 0.281451,0.01422 0.496341,0.253488 0.482155,0.534272 l -0.205452,4.06653 c -0.01422,0.281546 -0.252135,0.497938 -0.533587,0.483719 z"
       style="fill:#965353;stroke-width:0.047724"
       id="path69" />
    <path
       d="m 52.185987,44.035067 -2.033789,-0.102752 -0.05138,1.016894 2.033789,0.102753 c 0.280784,0.01419 0.519412,-0.202218 0.533559,-0.482239 0.0142,-0.281118 -0.201447,-0.520472 -0.482183,-0.534656 z m 6.048991,1.325102 2.033026,0.102713 0.05138,-1.016894 -2.033027,-0.102714 c -0.281499,-0.01422 -0.519412,0.202217 -0.533615,0.483335 -0.01415,0.280021 0.20074,0.519338 0.482239,0.53356 z M 60.34506,43.937707 50.177877,43.424034 c -0.280784,-0.01419 -0.497168,-0.253195 -0.482982,-0.533979 0.01419,-0.280784 0.253575,-0.497101 0.534359,-0.482915 l 10.167182,0.513673 c 0.281499,0.01422 0.497914,0.253567 0.483728,0.534351 -0.01419,0.280784 -0.253605,0.496765 -0.535104,0.482543 z"
       style="fill:#7f4545;stroke-width:0.047724"
       id="path70" />
    <path
       d="m 58.466145,40.784643 -6.100367,-0.308206 a 0.50869017,0.50869017 0 0 0 -0.534293,0.482583 l -0.308205,6.10032 c -0.01422,0.281499 0.201381,0.520851 0.482879,0.535073 l 6.100367,0.308207 c 0.281499,0.01422 0.51941,-0.20217 0.533635,-0.483717 l 0.308204,-6.100319 c 0.01419,-0.280784 -0.200721,-0.519719 -0.48222,-0.533941 z"
       style="fill:#f4be8e;stroke-width:0.047724"
       id="path71" />
    <path
       d="m 50.429666,48.533108 -5.084187,-0.256867 c -0.280737,-0.01418 -0.520127,0.202181 -0.534352,0.483728 l -0.308223,6.100701 c -0.01415,0.280021 0.202217,0.519412 0.482953,0.533595 l 5.084187,0.256867 c 0.280784,0.01419 0.519413,-0.202217 0.53356,-0.482239 l 0.308224,-6.1007 c 0.01422,-0.281499 -0.201426,-0.520902 -0.482162,-0.535085 z m 14.234142,0.719146 -5.083425,-0.256828 c -0.281499,-0.01422 -0.519412,0.202218 -0.533637,0.483764 l -0.308223,6.100701 c -0.01415,0.280021 0.20074,0.519337 0.482239,0.533559 l 5.083424,0.256828 c 0.281499,0.01422 0.520938,-0.20214 0.535085,-0.482161 l 0.308224,-6.100701 a 0.50983554,0.50983554 0 0 0 -0.483687,-0.535162 z"
       style="fill:#965353;stroke-width:0.047724"
       id="path72" />
    <path
       d="m 59.950197,47.053545 -0.312961,-0.218133 -3.850644,-2.881966 a 0.50840382,0.50840382 0 0 0 -0.487129,-0.0679 l -1.298897,0.497664 c -0.02584,0.0092 -0.05111,0.02131 -0.07493,0.03502 l -3.676016,2.151197 a 0.50730617,0.50730617 0 0 0 -0.251517,0.412865 l -0.411014,8.135252 c -0.01415,0.280022 0.201455,0.519374 0.482953,0.533596 l 9.150718,0.462318 c 0.281451,0.01422 0.519364,-0.202219 0.533512,-0.482241 l 0.411014,-8.135252 a 0.51112409,0.51112409 0 0 0 -0.215091,-0.442412 z"
       style="fill:#ffd2a6;stroke-width:0.047724"
       id="path73" />
    <path
       d="m 54.902396,50.798923 c -0.84302,-0.04259 -1.55964,0.6051 -1.602229,1.448071 l -0.154112,3.050351 3.049969,0.154092 0.154112,-3.05035 c 0.04259,-0.843019 -0.605103,-1.559592 -1.44774,-1.602164 z"
       style="fill:#ed5564;stroke-width:0.047724"
       id="path74" />
    <path
       d="m 56.046963,48.324199 c -0.02837,0.561472 -0.506695,0.992791 -1.068263,0.964419 -0.562235,-0.0284 -0.994325,-0.505673 -0.965955,-1.067193 0.02837,-0.561521 0.506436,-0.994286 1.068671,-0.965881 0.561568,0.02837 0.993917,0.507134 0.965547,1.068655 z"
       style="fill:#5d9cec;stroke-width:0.047724"
       id="path75" />
    <path
       d="m 55.107077,46.747645 c -0.841494,-0.04252 -1.559717,0.606625 -1.602231,1.448119 -0.04244,0.840017 0.606625,1.559717 1.448119,1.602231 0.84116,0.0425 1.55941,-0.608122 1.60185,-1.448138 0.04251,-0.841494 -0.606578,-1.559714 -1.447738,-1.602212 z m -0.102714,2.033027 c -0.280736,-0.01418 -0.497104,-0.253527 -0.482956,-0.533548 0.01419,-0.280784 0.253615,-0.497912 0.534351,-0.483728 0.280069,0.01415 0.496396,0.254303 0.48221,0.535087 -0.01415,0.280021 -0.253536,0.496338 -0.533605,0.482189 z"
       style="fill:#f4be8e;stroke-width:0.047724"
       id="path76" />
    <path
       style="fill:#5d9cec;stroke-width:0.047724"
       d="m 46.259053,50.362238 2.033837,0.102755 -0.154112,3.05035 -2.033837,-0.102755 z"
       id="path77" />
    <path
       d="M 48.113311,54.023204 46.079474,53.92045 C 45.79869,53.90626 45.583086,53.666959 45.597233,53.386938 l 0.154112,-3.050351 c 0.01422,-0.281499 0.2529,-0.497947 0.533636,-0.483764 l 2.033837,0.102755 c 0.280737,0.01418 0.497101,0.253575 0.482877,0.535121 l -0.154112,3.05035 c -0.01415,0.280022 -0.253583,0.496337 -0.534272,0.482155 z m -1.473827,-1.094334 1.016561,0.05136 0.102716,-2.033075 -1.016561,-0.05136 z"
       style="fill:#7f4545;stroke-width:0.047724"
       id="path78" />
    <path
       style="fill:#5d9cec;stroke-width:0.047724"
       d="m 61.510805,51.132797 2.034551,0.102791 -0.154111,3.05035 -2.034552,-0.102791 z"
       id="path79" />
    <path
       d="M 63.365444,54.793783 61.330892,54.690992 C 61.05087,54.676844 60.834503,54.437501 60.848651,54.15748 l 0.154111,-3.050351 c 0.01422,-0.281499 0.253616,-0.497911 0.533637,-0.483764 l 2.034552,0.102791 c 0.280021,0.01415 0.496386,0.253539 0.482162,0.535085 l -0.154112,3.05035 c -0.01415,0.280022 -0.253536,0.496339 -0.533557,0.482192 z m -1.47378,-1.094332 1.015798,0.05132 0.102717,-2.033075 -1.015799,-0.05132 z"
       style="fill:#7f4545;stroke-width:0.047724"
       id="path80" />
    <path
       d="M 65.321462,56.421674 43.969344,55.342908 c -0.281499,-0.01422 -0.497149,-0.253576 -0.483001,-0.533598 0.01422,-0.281499 0.252897,-0.4979 0.534396,-0.483678 l 21.352119,1.078766 c 0.281499,0.01422 0.496341,0.253488 0.482116,0.535035 -0.01415,0.280021 -0.252013,0.496463 -0.533512,0.482241 z"
       style="fill:#656d78;stroke-width:0.047724"
       id="path81" />
    <path
       d="m 49.441669,47.917323 c -0.169061,-0.0085 -0.330867,-0.101104 -0.419169,-0.260102 -0.136907,-0.245841 -0.04957,-0.55571 0.196267,-0.692617 l 5.769036,-3.219861 c 0.245794,-0.13691 0.55572,-0.04881 0.692646,0.19665 0.136926,0.24546 0.04883,0.555291 -0.196286,0.692999 L 49.7144,47.8535 a 0.5093583,0.5093583 0 0 1 -0.272731,0.06382 z"
       style="fill:#ed5564;stroke-width:0.047724"
       id="path82" />
    <path
       d="m 60.62465,48.482317 c -0.09237,-0.0047 -0.183416,-0.03464 -0.264192,-0.091 l -5.416269,-3.784256 c -0.22999,-0.161712 -0.286409,-0.478843 -0.125441,-0.709253 0.160969,-0.230409 0.4781,-0.286829 0.708939,-0.125839 l 5.41547,3.784932 c 0.230791,0.160988 0.286448,0.478081 0.12546,0.708872 -0.104546,0.149302 -0.274143,0.225122 -0.443967,0.216542 z"
       style="fill:#ed5564;stroke-width:0.047724"
       id="path83" />
    <g
       transform="matrix(1.2086859,0,0,1.2086859,0.53048901,12.785876)"
       id="g100">
      <rect
         ry="2.6459999"
         rx="2.6459999"
         y="35.056999"
         x="0.66100001"
         height="38.365002"
         width="78.052002"
         style="fill:#d38d5f;fill-opacity:1;stroke:#000000;stroke-width:1.32292;stroke-miterlimit:4;stroke-dasharray:none;stroke-opacity:1;stop-color:#000000"
         id="rect97" />
      <rect
         ry="1.323"
         rx="1.323"
         y="35.056999"
         x="0.66100001"
         height="7.9380002"
         width="77.536003"
         style="fill:#784421;fill-opacity:1;stroke:#000000;stroke-width:1.32292;stroke-miterlimit:4;stroke-dasharray:none;stroke-opacity:1;stop-color:#000000"
         id="rect98" />
      <rect
         ry="2.6459999"
         rx="2.6459999"
         y="34.938999"
         x="32.410999"
         height="15.875"
         width="15.875"
         style="fill:#ffcc00;fill-opacity:1;stroke:#000000;stroke-width:1.32292;stroke-miterlimit:4;stroke-dasharray:none;stroke-opacity:1;stop-color:#000000"
         id="rect99" />
      <path
         style="fill:#784421;fill-opacity:1;stroke:#000000;stroke-width:1.32292;stroke-miterlimit:4;stroke-dasharray:none;stroke-opacity:1;stop-color:#000000"
         d="M 16.536,42.995 H 32.105 V 73.25 H 16.536 Z m 31.75,0 H 63.855 V 73.25 H 48.286 Z"
         id="path99" />
      <rect
         ry="1.5779999"
         rx="1.021"
         y="42.122002"
         x="39.210999"
         height="2.0109999"
         width="2.0109999"
         style="fill:#000000;fill-opacity:1;stroke:#000000;stroke-width:0.634786;stroke-miterlimit:4;stroke-dasharray:none;stroke-opacity:1;stop-color:#000000"
         id="rect100" />
    </g>
    <g
       style="fill:#000000"
       id="g119"
       transform="matrix(8.3036955,0,0,8.3036955,-3.8704696,-1.4632652)">
      <g
         style="fill:#000000"
         id="g103">
        <path
           clip-path="url(#a)"
           transform="matrix(0.00526,1.8e-4,-1.2e-4,0.00765,9.95,1.407)"
           style="fill:#ffcc00;fill-opacity:1"
           d="m 439.359,232.255 v 125.94 l -12.476,38.008 18.859,25.242 h 6.381 l 18.858,-25.242 -12.475,-38.008 V 222.599 Z"
           id="path100" />
        <path
           clip-path="url(#b)"
           transform="matrix(0.00524,2.6e-4,-1.2e-4,0.01087,9.957,0.217)"
           style="fill:#1a1a1a;fill-opacity:1"
           d="m 439.359,358.195 -12.476,38.008 18.859,25.242 h 6.381 l 18.858,-25.242 -12.475,-38.008 V 222.599 l -19.147,9.656 z"
           id="path101" />
        <path
           style="fill:#1a1a1a;fill-opacity:1;stroke-width:0.145563"
           d="m -527.922,499.232 v 10.146 l 21.228,10.226 h 3.567 l 21.17,-10.198 0.058,-0.134 v -10.04 l -23.012,11.085 z"
           transform="matrix(0.06478187,0.03719408,-0.03719408,0.06478187,61.577089,-11.598837)"
           id="path102" />
        <path
           style="fill:#333333;fill-opacity:1"
           transform="matrix(0.00942676,0.00541231,-0.00541231,0.00942676,9.1004876,-1.4878265)"
           d="M 241.897,62.561 0,179.083 v 10.863 L 241.897,306.471 484.006,189.845 v -10.659 z"
           id="path103" />
      </g>
      <g
         style="fill:#000000"
         transform="matrix(0.05467,0,0,0.05467,66.226,-17.491)"
         id="g104" />
      <g
         style="fill:#000000"
         transform="matrix(0.05467,0,0,0.05467,66.226,-17.491)"
         id="g105" />
      <g
         style="fill:#000000"
         transform="matrix(0.05467,0,0,0.05467,66.226,-17.491)"
         id="g106" />
      <g
         style="fill:#000000"
         transform="matrix(0.05467,0,0,0.05467,66.226,-17.491)"
         id="g107" />
      <g
         style="fill:#000000"
         transform="matrix(0.05467,0,0,0.05467,66.226,-17.491)"
         id="g108" />
      <g
         style="fill:#000000"
         transform="matrix(0.05467,0,0,0.05467,66.226,-17.491)"
         id="g109" />
      <g
         style="fill:#000000"
         transform="matrix(0.05467,0,0,0.05467,66.226,-17.491)"
         id="g110" />
      <g
         style="fill:#000000"
         transform="matrix(0.05467,0,0,0.05467,66.226,-17.491)"
         id="g111" />
      <g
         style="fill:#000000"
         transform="matrix(0.05467,0,0,0.05467,66.226,-17.491)"
         id="g112" />
      <g
         style="fill:#000000"
         transform="matrix(0.05467,0,0,0.05467,66.226,-17.491)"
         id="g113" />
      <g
         style="fill:#000000"
         transform="matrix(0.05467,0,0,0.05467,66.226,-17.491)"
         id="g114" />
      <g
         style="fill:#000000"
         transform="matrix(0.05467,0,0,0.05467,66.226,-17.491)"
         id="g115" />
      <g
         style="fill:#000000"
         transform="matrix(0.05467,0,0,0.05467,66.226,-17.491)"
         id="g116" />
      <g
         style="fill:#000000"
         transform="matrix(0.05467,0,0,0.05467,66.226,-17.491)"
         id="g117" />
      <g
         style="fill:#000000"
         transform="matrix(0.05467,0,0,0.05467,66.226,-17.491)"
         id="g118" />
    </g>
  </g>
</svg>
