<?xml version="1.0" encoding="UTF-8" standalone="no"?>
<svg
   xmlns:dc="http://purl.org/dc/elements/1.1/"
   xmlns:cc="http://creativecommons.org/ns#"
   xmlns:rdf="http://www.w3.org/1999/02/22-rdf-syntax-ns#"
   xmlns:svg="http://www.w3.org/2000/svg"
   xmlns="http://www.w3.org/2000/svg"
   xmlns:sodipodi="http://sodipodi.sourceforge.net/DTD/sodipodi-0.dtd"
   xmlns:inkscape="http://www.inkscape.org/namespaces/inkscape"
   inkscape:export-ydpi="2048"
   inkscape:export-xdpi="2048"
   inkscape:export-filename="/Users/pablo/Desktop/chestIcon01.png"
   sodipodi:docname="chestICON01.svg"
   inkscape:version="1.0 (4035a4fb49, 2020-05-01)"
   id="svg8"
   version="1.1"
   viewBox="0 0 12.7 12.7"
   height="48"
   width="48">
  <defs
     id="defs2">
    <clipPath
       id="clipPath1047"
       clipPathUnits="userSpaceOnUse">
      <rect
         transform="rotate(-1.353402)"
         y="368.78366"
         x="385.54092"
         height="138.95103"
         width="106.45442"
         id="rect1049"
         style="fill:#ffffff;fill-opacity:1;fill-rule:evenodd;stroke-width:7.08504;stroke-linejoin:round;paint-order:markers stroke fill" />
    </clipPath>
    <clipPath
       clipPathUnits="userSpaceOnUse"
       id="clipPath1047-4">
      <rect
         style="fill:#ffffff;fill-opacity:1;fill-rule:evenodd;stroke-width:7.08504;stroke-linejoin:round;paint-order:markers stroke fill"
         id="rect1049-1"
         width="106.45442"
         height="138.95103"
         x="385.54092"
         y="368.78366"
         transform="rotate(-1.353402)" />
    </clipPath>
    <clipPath
       id="clipPath1110"
       clipPathUnits="userSpaceOnUse">
      <rect
         transform="rotate(-1.353402)"
         y="215.31964"
         x="405.2489"
         height="153.50079"
         width="68.569511"
         id="rect1112"
         style="fill:#ff0000;fill-opacity:1;fill-rule:evenodd;stroke-width:8.50991;stroke-linejoin:round;paint-order:markers stroke fill" />
    </clipPath>
  </defs>
  <sodipodi:namedview
     inkscape:window-maximized="1"
     inkscape:window-y="-8"
     inkscape:window-x="-8"
     inkscape:window-height="1057"
     inkscape:window-width="1920"
     fit-margin-bottom="0"
     fit-margin-right="0"
     fit-margin-left="0"
     fit-margin-top="0"
     units="px"
     showgrid="false"
     inkscape:document-rotation="0"
     inkscape:current-layer="g1800"
     inkscape:document-units="px"
     inkscape:cy="19.103526"
     inkscape:cx="20.498786"
     inkscape:zoom="11.364674"
     inkscape:pageshadow="2"
     inkscape:pageopacity="0.0"
     borderopacity="1.0"
     bordercolor="#666666"
     pagecolor="#ffffff"
     id="base" />
  <metadata
     id="metadata5">
    <rdf:RDF>
      <cc:Work
         rdf:about="">
        <dc:format>image/svg+xml</dc:format>
        <dc:type
           rdf:resource="http://purl.org/dc/dcmitype/StillImage" />
        <dc:title></dc:title>
      </cc:Work>
    </rdf:RDF>
  </metadata>
  <g
     transform="translate(-1.9669533e-6,10.419155)"
     id="layer1"
     inkscape:groupmode="layer"
     inkscape:label="chest">
    <g
       transform="matrix(0.14556246,0,0,0.14556246,0.52916835,-8.7040808)"
       id="g1000">
      <rect
         ry="2.6458333"
         rx="2.6458333"
         y="0.66145998"
         x="5.2916684"
         height="34.395832"
         width="68.791664"
         id="rect947"
         style="fill:#d38d5f;fill-opacity:1;stroke:#000000;stroke-width:1.32292;stroke-miterlimit:4;stroke-dasharray:none;stroke-opacity:1;stop-color:#000000" />
      <g
         id="g995">
        <rect
           ry="1.3229166"
           rx="1.3229166"
           y="5.9531264"
           x="10.583335"
           height="29.104166"
           width="58.208332"
           id="rect949"
           style="fill:#28170b;fill-opacity:1;stroke:#000000;stroke-width:1.32292;stroke-miterlimit:4;stroke-dasharray:none;stroke-opacity:1;stop-color:#000000" />
      </g>
    </g>
    <g
       transform="matrix(0.00655676,0.00146137,-0.00146137,0.00655676,1.7170836,-7.1172584)"
       id="g1198">
      <path
         id="path1101"
         d="m 255.992,53.326 c -5.89,0 -10.656,-4.781 -10.656,-10.672 V 10.655 C 245.336,4.764 250.102,0 255.992,0 c 5.891,0 10.656,4.765 10.656,10.655 v 31.999 c 0,5.891 -4.765,10.672 -10.656,10.672 z"
         style="fill:#434a54" />
      <path
         id="path1103"
         d="M 296.521,78.919 264.523,36.264 c -2.016,-2.687 -5.172,-4.265 -8.531,-4.265 -3.359,0 -6.515,1.578 -8.531,4.265 l -31.999,42.655 c -2.422,3.234 -2.812,7.562 -1,11.172 1.797,3.609 5.5,5.906 9.531,5.906 h 63.997 c 4.031,0 7.734,-2.297 9.531,-5.906 1.813,-3.61 1.438,-7.938 -1,-11.172 z"
         style="fill:#656d78" />
      <path
         id="path1105"
         d="m 287.99,74.653 h -63.997 c -5.89,0 -10.656,4.781 -10.656,10.672 v 42.671 c 0,5.891 4.766,10.655 10.656,10.655 h 63.997 c 5.891,0 10.656,-4.765 10.656,-10.655 V 85.325 c 0,-5.891 -4.765,-10.672 -10.656,-10.672 z"
         style="fill:#e9573f" />
      <path
         id="path1107"
         d="m 328.521,164.261 -32,-42.671 c -2.016,-2.688 -5.172,-4.266 -8.531,-4.266 h -63.997 c -3.359,0 -6.515,1.578 -8.531,4.266 l -31.999,42.671 c -2.422,3.219 -2.812,7.546 -1,11.155 1.797,3.625 5.5,5.906 9.531,5.906 H 319.99 c 4.031,0 7.734,-2.281 9.531,-5.906 1.813,-3.61 1.438,-7.937 -1,-11.155 z"
         style="fill:#fc6e51" />
      <g
         id="g1113">
        <path
           id="path1109"
           d="M 319.99,319.99 H 191.994 c -5.891,0 -10.656,4.766 -10.656,10.656 v 170.666 c 0,5.891 4.765,10.672 10.656,10.672 H 319.99 c 5.891,0 10.656,-4.781 10.656,-10.672 V 330.646 c 0,-5.89 -4.765,-10.656 -10.656,-10.656 z"
           style="fill:#e9573f" />
        <path
           id="path1111"
           d="M 319.99,159.995 H 191.994 c -5.891,0 -10.656,4.766 -10.656,10.656 v 31.999 c 0,5.89 4.765,10.671 10.656,10.671 H 319.99 c 5.891,0 10.656,-4.781 10.656,-10.671 v -31.999 c 0,-5.89 -4.765,-10.656 -10.656,-10.656 z"
           style="fill:#e9573f" />
      </g>
      <g
         id="g1121">
        <path
           id="path1115"
           d="m 234.649,373.316 c -5.875,0 -10.656,4.766 -10.656,10.672 v 127.996 h 21.343 V 383.988 c 0,-5.906 -4.781,-10.672 -10.687,-10.672 z"
           style="fill:#fc6e51" />
        <path
           id="path1117"
           d="m 277.336,373.316 c -5.906,0 -10.688,4.766 -10.688,10.672 V 511.984 H 287.99 V 383.988 c 0,-5.906 -4.779,-10.672 -10.654,-10.672 z"
           style="fill:#fc6e51" />
        <path
           id="path1119"
           d="M 331.334,181.322 H 180.651 c -5.875,0 -10.656,4.766 -10.656,10.672 v 149.323 c 0,5.891 4.781,10.672 10.656,10.672 h 150.683 c 5.875,0 10.656,-4.781 10.656,-10.672 V 191.994 c 0,-5.906 -4.781,-10.672 -10.656,-10.672 z"
           style="fill:#fc6e51" />
      </g>
      <path
         id="path1123"
         d="m 255.992,202.65 c -35.28,0 -63.998,28.718 -63.998,63.998 0,35.295 28.718,63.998 63.998,63.998 35.279,0 63.998,-28.703 63.998,-63.998 0,-35.28 -28.719,-63.998 -63.998,-63.998 z"
         style="fill:#e6e9ed" />
      <g
         id="g1129">
        <path
           id="path1125"
           d="m 255.992,277.319 c -5.89,0 -10.656,-4.781 -10.656,-10.671 v -42.655 c 0,-5.906 4.766,-10.672 10.656,-10.672 5.891,0 10.656,4.766 10.656,10.672 v 42.655 c 0,5.89 -4.765,10.671 -10.656,10.671 z"
           style="fill:#424953" />
        <path
           id="path1127"
           d="m 286.164,307.49 c -2.734,0 -5.453,-1.047 -7.547,-3.125 l -30.156,-30.171 c -4.188,-4.171 -4.188,-10.921 0,-15.093 4.156,-4.156 10.906,-4.156 15.062,0 l 30.186,30.171 c 4.156,4.172 4.156,10.921 0,15.093 -2.094,2.078 -4.813,3.125 -7.545,3.125 z"
           style="fill:#424953" />
      </g>
      <g
         id="g1131" />
      <g
         id="g1133" />
      <g
         id="g1135" />
      <g
         id="g1137" />
      <g
         id="g1139" />
      <g
         id="g1141" />
      <g
         id="g1143" />
      <g
         id="g1145" />
      <g
         id="g1147" />
      <g
         id="g1149" />
      <g
         id="g1151" />
      <g
         id="g1153" />
      <g
         id="g1155" />
      <g
         id="g1157" />
      <g
         id="g1159" />
    </g>
    <g
       transform="matrix(0.0067389,-0.00167441,0.00167441,0.0067389,7.0313254,-6.5244945)"
       id="g1288">
      <path
         id="path1200"
         d="m 256.001,234.665 c -5.89,0 -10.671,-4.781 -10.671,-10.672 V 10.671 C 245.33,4.78 250.111,0 256.001,0 c 5.891,0 10.657,4.78 10.657,10.671 v 213.322 c 0,5.891 -4.766,10.672 -10.657,10.672 z"
         style="fill:#434a54" />
      <path
         id="path1202"
         d="M 393.224,495.984 C 358.568,435.877 325.679,340.145 298.132,219.133 277.227,127.277 266.658,52.592 266.564,51.842 c -0.75,-5.25 -5.234,-9.172 -10.547,-9.172 -0.016,0 -0.016,0 -0.016,0 -5.312,0 -9.812,3.891 -10.562,9.156 -0.109,0.734 -10.875,75.436 -31.874,167.292 -27.671,121.027 -60.467,216.774 -94.826,276.913 -1.89,3.297 -1.875,7.344 0.031,10.641 1.906,3.281 5.422,5.312 9.234,5.312 h 42.655 c 4.594,0 8.672,-2.938 10.125,-7.297 0.047,-0.141 5.015,-14.483 16.734,-28.545 15.578,-18.688 35.249,-28.156 58.482,-28.156 22.976,0 42.506,9.297 58.006,27.641 12.094,14.28 17.156,28.951 17.188,29.061 1.453,4.359 5.531,7.297 10.124,7.297 h 42.671 c 3.797,0 7.328,-2.031 9.234,-5.328 1.906,-3.297 1.908,-7.36 10e-4,-10.673 z M 285.634,369.332 c -2.016,2.516 -5.078,3.984 -8.312,3.984 h -42.663 c -3.234,0 -6.297,-1.469 -8.312,-3.984 -2.031,-2.531 -2.797,-5.828 -2.094,-8.983 l 21.328,-95.997 c 1.094,-4.891 5.422,-8.359 10.421,-8.359 5,0 9.329,3.469 10.407,8.359 l 21.318,95.997 c 0.703,3.155 -0.063,6.452 -2.093,8.983 z"
         style="fill:#da4453" />
      <g
         id="g1208">
        <path
           id="path1204"
           d="M 362.178,351.989 H 149.802 c -5.891,0 -10.656,4.781 -10.656,10.671 v 42.656 c 0,5.89 4.766,10.671 10.656,10.671 h 212.376 c 5.891,0 10.656,-4.781 10.656,-10.671 V 362.66 c 0,-5.89 -4.766,-10.671 -10.656,-10.671 z"
           style="fill:#ed5564" />
        <path
           id="path1206"
           d="m 202.737,277.319 h 106.505 c 5.891,0 10.672,-4.766 10.672,-10.655 v -42.671 c 0,-5.891 -4.781,-10.672 -10.672,-10.672 H 202.737 c -5.89,0 -10.671,4.781 -10.671,10.672 v 42.671 c 0,5.89 4.781,10.655 10.671,10.655 z"
           style="fill:#ed5564" />
      </g>
      <g
         id="g1222">
        <path
           id="path1210"
           d="m 245.33,245.32 c 0,5.891 -4.781,10.672 -10.671,10.672 -5.891,0 -10.656,-4.781 -10.656,-10.672 0,-5.891 4.766,-10.655 10.656,-10.655 5.89,0 10.671,4.765 10.671,10.655 z"
           style="fill:#da4453" />
        <path
           id="path1212"
           d="m 286.648,245.32 c 0,5.891 -4.765,10.672 -10.655,10.672 -5.883,0 -10.663,-4.781 -10.663,-10.672 0,-5.891 4.78,-10.655 10.663,-10.655 5.891,0 10.655,4.765 10.655,10.655 z"
           style="fill:#da4453" />
        <path
           id="path1214"
           d="m 202.659,383.988 c 0,5.891 -4.765,10.672 -10.656,10.672 -5.891,0 -10.671,-4.781 -10.671,-10.672 0,-5.891 4.781,-10.672 10.671,-10.672 5.89,0 10.656,4.781 10.656,10.672 z"
           style="fill:#da4453" />
        <path
           id="path1216"
           d="m 245.33,383.988 c 0,5.891 -4.781,10.672 -10.671,10.672 -5.891,0 -10.656,-4.781 -10.656,-10.672 0,-5.891 4.766,-10.672 10.656,-10.672 5.89,0 10.671,4.781 10.671,10.672 z"
           style="fill:#da4453" />
        <path
           id="path1218"
           d="m 287.992,383.988 c 0,5.891 -4.78,10.672 -10.671,10.672 -5.883,0 -10.663,-4.781 -10.663,-10.672 0,-5.891 4.78,-10.672 10.663,-10.672 5.891,0 10.671,4.781 10.671,10.672 z"
           style="fill:#da4453" />
        <path
           id="path1220"
           d="m 330.648,383.988 c 0,5.891 -4.766,10.672 -10.656,10.672 -5.89,0 -10.672,-4.781 -10.672,-10.672 0,-5.891 4.781,-10.672 10.672,-10.672 5.891,0 10.656,4.781 10.656,10.672 z"
           style="fill:#da4453" />
      </g>
      <g
         id="g1224" />
      <g
         id="g1226" />
      <g
         id="g1228" />
      <g
         id="g1230" />
      <g
         id="g1232" />
      <g
         id="g1234" />
      <g
         id="g1236" />
      <g
         id="g1238" />
      <g
         id="g1240" />
      <g
         id="g1242" />
      <g
         id="g1244" />
      <g
         id="g1246" />
      <g
         id="g1248" />
      <g
         id="g1250" />
      <g
         id="g1252" />
    </g>
    <g
       transform="matrix(0.00589086,-0.00123005,0.00123005,0.00589086,2.971863,-6.3414571)"
       id="g1519">
      <path
         id="path1380"
         d="m 255.992,42.67 c -5.891,0 -10.656,-4.781 -10.656,-10.671 V 10.671 C 245.336,4.78 250.102,0 255.992,0 c 5.89,0 10.656,4.78 10.656,10.671 v 21.328 c 0,5.889 -4.765,10.671 -10.656,10.671 z"
         style="fill:#434a54" />
      <path
         id="path1382"
         d="M 308.209,112.558 265.523,27.233 c -1.797,-3.609 -5.5,-5.891 -9.531,-5.891 -4.031,0 -7.734,2.281 -9.531,5.891 l -42.671,85.325 c -1.655,3.312 -1.484,7.234 0.453,10.375 1.953,3.156 5.391,5.062 9.094,5.062 h 85.31 c 3.719,0 7.141,-1.906 9.094,-5.062 1.937,-3.14 2.108,-7.062 0.468,-10.375 z"
         style="fill:#656d78" />
      <rect
         id="rect1384"
         height="336.07999"
         width="80.790001"
         style="fill:#5d9cec"
         y="175.90199"
         x="217.85201" />
      <g
         id="g1390">
        <path
           id="path1386"
           d="M 330.646,255.992 H 287.99 c -5.89,0 -10.655,-4.766 -10.655,-10.656 v -63.998 c 0,-5.891 4.766,-10.671 10.655,-10.671 h 42.656 c 5.906,0 10.687,4.78 10.687,10.671 v 63.998 c 0,5.89 -4.78,10.656 -10.687,10.656 z"
           style="fill:#f6bb42" />
        <path
           id="path1388"
           d="m 223.993,255.992 h -42.655 c -5.906,0 -10.688,-4.766 -10.688,-10.656 v -63.998 c 0,-5.891 4.781,-10.671 10.688,-10.671 h 42.655 c 5.891,0 10.656,4.78 10.656,10.671 v 63.998 c 0,5.89 -4.765,10.656 -10.656,10.656 z"
           style="fill:#f6bb42" />
      </g>
      <g
         id="g1398">
        <path
           id="path1392"
           d="M 223.993,234.665 H 170.65 c -5.874,0 -10.655,4.78 -10.655,10.671 v 266.648 h 74.654 V 245.336 c 0,-5.891 -4.765,-10.671 -10.656,-10.671 z"
           style="fill:#ffce54" />
        <path
           id="path1394"
           d="M 341.333,234.665 H 287.99 c -5.89,0 -10.655,4.78 -10.655,10.671 v 266.648 h 74.654 V 245.336 c 0,-5.891 -4.781,-10.671 -10.656,-10.671 z"
           style="fill:#ffce54" />
        <path
           id="path1396"
           d="M 330.646,191.994 H 181.338 c -3.156,0 -6.125,-1.375 -8.156,-3.766 -2.031,-2.391 -2.891,-5.562 -2.375,-8.656 l 10.656,-63.998 c 0.875,-5.141 5.312,-8.906 10.531,-8.906 H 319.99 c 5.219,0 9.656,3.766 10.531,8.906 l 10.655,63.998 c 0.516,3.094 -0.344,6.266 -2.375,8.656 -2.03,2.391 -4.998,3.766 -8.155,3.766 z"
           style="fill:#ffce54" />
      </g>
      <g
         id="g1412">
        <path
           id="path1400"
           d="m 266.648,234.665 h -21.312 c -5.906,0 -10.687,-4.781 -10.687,-10.672 0,-5.891 4.78,-10.656 10.687,-10.656 h 21.312 c 5.905,0 10.687,4.766 10.687,10.656 0,5.89 -4.781,10.672 -10.687,10.672 z"
           style="fill:#4a89dc" />
        <path
           id="path1402"
           d="m 266.648,277.335 h -21.312 c -5.906,0 -10.687,-4.781 -10.687,-10.671 0,-5.891 4.78,-10.672 10.687,-10.672 h 21.312 c 5.905,0 10.687,4.781 10.687,10.672 0,5.89 -4.781,10.671 -10.687,10.671 z"
           style="fill:#4a89dc" />
        <path
           id="path1404"
           d="m 266.648,319.99 h -21.312 c -5.906,0 -10.687,-4.766 -10.687,-10.656 0,-5.89 4.78,-10.672 10.687,-10.672 h 21.312 c 5.905,0 10.687,4.781 10.687,10.672 0,5.891 -4.781,10.656 -10.687,10.656 z"
           style="fill:#4a89dc" />
        <path
           id="path1406"
           d="m 266.648,362.66 h -21.312 c -5.906,0 -10.687,-4.78 -10.687,-10.671 0,-5.891 4.78,-10.656 10.687,-10.656 h 21.312 c 5.905,0 10.687,4.766 10.687,10.656 0,5.89 -4.781,10.671 -10.687,10.671 z"
           style="fill:#4a89dc" />
        <path
           id="path1408"
           d="m 266.648,405.332 h -21.312 c -5.906,0 -10.687,-4.781 -10.687,-10.672 0,-5.891 4.78,-10.672 10.687,-10.672 h 21.312 c 5.905,0 10.687,4.781 10.687,10.672 0,5.891 -4.781,10.672 -10.687,10.672 z"
           style="fill:#4a89dc" />
        <path
           id="path1410"
           d="m 266.648,447.986 h -21.312 c -5.906,0 -10.687,-4.766 -10.687,-10.656 0,-5.89 4.78,-10.671 10.687,-10.671 h 21.312 c 5.905,0 10.687,4.78 10.687,10.671 0,5.891 -4.781,10.656 -10.687,10.656 z"
           style="fill:#4a89dc" />
      </g>
      <g
         id="g1434">
        <path
           id="path1414"
           d="m 330.646,447.986 c -5.875,0 -10.656,4.781 -10.656,10.672 0,5.891 4.781,10.672 10.656,10.672 h 21.343 v -21.344 z"
           style="fill:#5d9cec" />
        <path
           id="path1416"
           d="m 330.646,405.332 c -5.875,0 -10.656,4.766 -10.656,10.655 0,5.891 4.781,10.672 10.656,10.672 h 21.343 v -21.327 z"
           style="fill:#5d9cec" />
        <path
           id="path1418"
           d="m 330.646,362.66 c -5.875,0 -10.656,4.781 -10.656,10.672 0,5.891 4.781,10.656 10.656,10.656 h 21.343 V 362.66 Z"
           style="fill:#5d9cec" />
        <path
           id="path1420"
           d="m 330.646,319.99 c -5.875,0 -10.656,4.781 -10.656,10.672 0,5.891 4.781,10.671 10.656,10.671 h 21.343 V 319.99 Z"
           style="fill:#5d9cec" />
        <path
           id="path1422"
           d="m 330.646,277.335 c -5.875,0 -10.656,4.766 -10.656,10.656 0,5.89 4.781,10.671 10.656,10.671 h 21.343 v -21.327 z"
           style="fill:#5d9cec" />
        <path
           id="path1424"
           d="m 181.338,298.662 c 5.875,0 10.656,-4.78 10.656,-10.671 0,-5.891 -4.781,-10.656 -10.656,-10.656 h -21.343 v 21.327 z"
           style="fill:#5d9cec" />
        <path
           id="path1426"
           d="m 181.338,341.333 c 5.875,0 10.656,-4.78 10.656,-10.671 0,-5.891 -4.781,-10.672 -10.656,-10.672 h -21.343 v 21.343 z"
           style="fill:#5d9cec" />
        <path
           id="path1428"
           d="m 181.338,383.988 c 5.875,0 10.656,-4.766 10.656,-10.656 0,-5.89 -4.781,-10.672 -10.656,-10.672 h -21.343 v 21.328 z"
           style="fill:#5d9cec" />
        <path
           id="path1430"
           d="m 181.338,426.659 c 5.875,0 10.656,-4.781 10.656,-10.672 0,-5.89 -4.781,-10.655 -10.656,-10.655 h -21.343 v 21.327 z"
           style="fill:#5d9cec" />
        <path
           id="path1432"
           d="m 181.338,469.33 c 5.875,0 10.656,-4.781 10.656,-10.672 0,-5.891 -4.781,-10.672 -10.656,-10.672 h -21.343 v 21.344 z"
           style="fill:#5d9cec" />
      </g>
      <polygon
         id="polygon1436"
         points="177.619,138.667 174.072,159.995 337.911,159.995 334.365,138.667 "
         style="fill:#f6bb42" />
      <g
         id="g1438" />
      <g
         id="g1440" />
      <g
         id="g1442" />
      <g
         id="g1444" />
      <g
         id="g1446" />
      <g
         id="g1448" />
      <g
         id="g1450" />
      <g
         id="g1452" />
      <g
         id="g1454" />
      <g
         id="g1456" />
      <g
         id="g1458" />
      <g
         id="g1460" />
      <g
         id="g1462" />
      <g
         id="g1464" />
      <g
         id="g1466" />
    </g>
    <g
       transform="matrix(0.00573741,2.8595599e-4,-2.8595599e-4,0.00573741,5.7256519,-6.5272478)"
       id="g1660">
      <path
         id="path1521"
         d="m 256.004,85.333 c -5.905,0 -10.671,-4.781 -10.671,-10.672 V 10.663 C 245.333,4.772 250.099,0 256.004,0 c 5.892,0 10.657,4.772 10.657,10.663 v 63.998 c 0,5.891 -4.766,10.672 -10.657,10.672 z"
         style="fill:#f6bb42" />
      <path
         id="path1523"
         d="m 277.34,42.662 h -42.679 c -5.891,0 -10.656,-4.773 -10.656,-10.663 0,-5.891 4.766,-10.664 10.656,-10.664 h 42.679 c 5.875,0 10.655,4.773 10.655,10.664 0,5.889 -4.78,10.663 -10.655,10.663 z"
         style="fill:#ffce54" />
      <path
         id="path1525"
         d="m 256.004,213.329 c -2.953,0 -5.343,-4.781 -5.343,-10.671 v -31.999 c 0,-5.891 2.39,-10.664 5.343,-10.664 2.938,0 5.329,4.773 5.329,10.664 v 31.999 c 0,5.89 -2.391,10.671 -5.329,10.671 z"
         style="fill:#434a54" />
      <rect
         id="rect1527"
         height="28.882999"
         width="42.679001"
         style="fill:#ffce54"
         y="141.772"
         x="234.662" />
      <path
         id="path1529"
         d="M 307.526,132.746 264.88,68.748 c -1.984,-2.969 -5.312,-4.75 -8.876,-4.75 -3.577,0 -6.905,1.781 -8.874,4.75 l -42.671,63.998 c -1.172,1.75 -1.797,3.812 -1.797,5.913 v 63.999 c 0,5.89 4.781,10.671 10.672,10.671 h 85.317 c 5.906,0 10.688,-4.781 10.688,-10.671 v -63.999 c 0,-2.101 -0.625,-4.163 -1.813,-5.913 z m -19.531,59.248 h -63.99 v -50.101 l 31.999,-47.998 31.991,47.998 z"
         style="fill:#eaad7a" />
      <path
         id="path1531"
         d="m 298.651,149.331 h -85.317 c -3.938,0 -7.547,-2.172 -9.406,-5.633 -1.859,-3.469 -1.656,-7.679 0.531,-10.952 L 247.13,68.748 c 1.969,-2.969 5.297,-4.75 8.874,-4.75 3.563,0 6.892,1.781 8.876,4.75 l 42.646,63.998 c 2.188,3.273 2.406,7.483 0.531,10.952 -1.843,3.461 -5.468,5.633 -9.406,5.633 z"
         style="fill:#ed5564" />
      <g
         id="g1537">
        <path
           id="path1533"
           d="m 192.006,341.333 h -31.999 c -5.906,0 -10.671,-4.78 -10.671,-10.687 v -85.318 c 0,-5.891 4.765,-10.671 10.671,-10.671 h 31.999 c 5.891,0 10.656,4.78 10.656,10.671 v 85.318 c 0,5.907 -4.766,10.687 -10.656,10.687 z"
           style="fill:#965353" />
        <path
           id="path1535"
           d="m 351.994,341.333 h -31.999 c -5.906,0 -10.656,-4.78 -10.656,-10.687 v -85.318 c 0,-5.891 4.75,-10.671 10.656,-10.671 h 31.999 c 5.905,0 10.655,4.78 10.655,10.671 v 85.318 c 0,5.907 -4.75,10.687 -10.655,10.687 z"
           style="fill:#965353" />
      </g>
      <g
         id="g1545">
        <path
           id="path1539"
           d="m 192.006,266.656 h -42.67 v 21.335 h 42.67 c 5.891,0 10.656,-4.781 10.656,-10.656 0,-5.898 -4.766,-10.679 -10.656,-10.679 z"
           style="fill:#7f4545" />
        <path
           id="path1541"
           d="m 319.995,287.991 h 42.654 v -21.335 h -42.654 c -5.906,0 -10.656,4.781 -10.656,10.679 0,5.875 4.75,10.656 10.656,10.656 z"
           style="fill:#7f4545" />
        <path
           id="path1543"
           d="M 362.649,255.992 H 149.336 c -5.891,0 -10.672,-4.773 -10.672,-10.664 0,-5.891 4.781,-10.671 10.672,-10.671 h 213.313 c 5.906,0 10.688,4.78 10.688,10.671 0,5.891 -4.782,10.664 -10.688,10.664 z"
           style="fill:#7f4545" />
      </g>
      <path
         id="path1547"
         d="M 319.995,191.994 H 192.006 c -5.906,0 -10.671,4.773 -10.671,10.664 v 127.988 c 0,5.906 4.765,10.687 10.671,10.687 h 127.989 c 5.906,0 10.656,-4.78 10.656,-10.687 V 202.658 c 0,-5.891 -4.75,-10.664 -10.656,-10.664 z"
         style="fill:#f4be8e" />
      <g
         id="g1553">
        <path
           id="path1549"
           d="M 160.007,362.644 H 53.338 c -5.89,0 -10.671,4.781 -10.671,10.688 v 127.996 c 0,5.875 4.781,10.656 10.671,10.656 h 106.669 c 5.891,0 10.656,-4.781 10.656,-10.656 V 373.332 c 0,-5.906 -4.766,-10.688 -10.656,-10.688 z"
           style="fill:#965353" />
        <path
           id="path1551"
           d="M 458.647,362.644 H 351.994 c -5.906,0 -10.656,4.781 -10.656,10.688 v 127.996 c 0,5.875 4.75,10.656 10.656,10.656 h 106.653 c 5.906,0 10.688,-4.781 10.688,-10.656 V 373.332 c 0,-5.906 -4.781,-10.688 -10.688,-10.688 z"
           style="fill:#965353" />
      </g>
      <path
         id="path1555"
         d="m 357.68,321.615 -6.78,-4.234 -83.63,-56.24 c -3.047,-2.047 -6.922,-2.391 -10.266,-0.906 l -26.656,11.788 c -0.531,0.219 -1.047,0.5 -1.531,0.812 l -74.654,48.905 c -3.015,1.969 -4.827,5.312 -4.827,8.906 v 170.682 c 0,5.875 4.765,10.656 10.671,10.656 h 191.987 c 5.905,0 10.655,-4.781 10.655,-10.656 V 330.646 c 0,-3.656 -1.875,-7.062 -4.969,-9.031 z"
         style="fill:#ffd2a6" />
      <path
         id="path1557"
         d="m 256.004,405.332 c -17.687,0 -31.999,14.312 -31.999,31.998 v 63.998 h 63.99 V 437.33 c 0,-17.687 -14.312,-31.998 -31.991,-31.998 z"
         style="fill:#ed5564" />
      <path
         id="path1559"
         d="m 277.34,352.333 c 0,11.78 -9.554,21.312 -21.336,21.312 -11.796,0 -21.343,-9.531 -21.343,-21.312 0,-11.781 9.547,-21.343 21.343,-21.343 11.782,0 21.336,9.562 21.336,21.343 z"
         style="fill:#5d9cec" />
      <path
         id="path1561"
         d="m 256.004,320.334 c -17.655,0 -31.999,14.344 -31.999,31.999 0,17.624 14.344,31.999 31.999,31.999 17.648,0 31.991,-14.375 31.991,-31.999 0,-17.655 -14.343,-31.999 -31.991,-31.999 z m 0,42.654 c -5.89,0 -10.671,-4.78 -10.671,-10.655 0,-5.891 4.781,-10.688 10.671,-10.688 5.876,0 10.657,4.797 10.657,10.688 0,5.875 -4.781,10.655 -10.657,10.655 z"
         style="fill:#f4be8e" />
      <rect
         id="rect1563"
         height="63.998001"
         width="42.671001"
         style="fill:#5d9cec"
         y="405.332"
         x="74.662003" />
      <path
         id="path1565"
         d="M 117.337,479.985 H 74.666 c -5.891,0 -10.656,-4.78 -10.656,-10.655 v -63.998 c 0,-5.906 4.766,-10.688 10.656,-10.688 h 42.671 c 5.89,0 10.671,4.781 10.671,10.688 v 63.998 c 0,5.875 -4.782,10.655 -10.671,10.655 z m -32,-21.343 h 21.328 V 415.987 H 85.337 Z"
         style="fill:#7f4545" />
      <rect
         id="rect1567"
         height="63.998001"
         width="42.686001"
         style="fill:#5d9cec"
         y="405.332"
         x="394.65201" />
      <path
         id="path1569"
         d="m 437.335,479.985 h -42.686 c -5.875,0 -10.656,-4.78 -10.656,-10.655 v -63.998 c 0,-5.906 4.781,-10.688 10.656,-10.688 h 42.686 c 5.875,0 10.656,4.781 10.656,10.688 v 63.998 c 0,5.875 -4.781,10.655 -10.656,10.655 z m -31.999,-21.343 h 21.312 v -42.655 h -21.312 z"
         style="fill:#7f4545" />
      <path
         id="path1571"
         d="M 479.99,511.984 H 32.011 c -5.906,0 -10.672,-4.781 -10.672,-10.656 0,-5.906 4.766,-10.687 10.672,-10.687 H 479.99 c 5.906,0 10.655,4.78 10.655,10.687 0,5.875 -4.749,10.656 -10.655,10.656 z"
         style="fill:#656d78" />
      <g
         id="g1577">
        <path
           id="path1573"
           d="m 138.68,350.802 c -3.547,0 -7.031,-1.766 -9.047,-5 -3.125,-5 -1.625,-11.577 3.375,-14.702 l 117.325,-73.482 c 4.999,-3.125 11.578,-1.609 14.703,3.383 3.125,4.992 1.609,11.569 -3.375,14.71 L 144.32,349.178 c -1.75,1.092 -3.719,1.624 -5.64,1.624 z"
           style="fill:#ed5564" />
        <path
           id="path1575"
           d="m 373.305,350.802 c -1.938,0 -3.875,-0.531 -5.625,-1.625 L 250.332,275.71 c -4.984,-3.141 -6.5,-9.718 -3.375,-14.71 3.125,-4.992 9.702,-6.508 14.703,-3.383 l 117.332,73.482 c 5,3.125 6.5,9.702 3.375,14.702 -2.03,3.235 -5.499,5.001 -9.062,5.001 z"
           style="fill:#ed5564" />
      </g>
      <g
         id="g1579" />
      <g
         id="g1581" />
      <g
         id="g1583" />
      <g
         id="g1585" />
      <g
         id="g1587" />
      <g
         id="g1589" />
      <g
         id="g1591" />
      <g
         id="g1593" />
      <g
         id="g1595" />
      <g
         id="g1597" />
      <g
         id="g1599" />
      <g
         id="g1601" />
      <g
         id="g1603" />
      <g
         id="g1605" />
      <g
         id="g1607" />
    </g>
    <g
       transform="matrix(0.14556246,0,0,0.14556246,0.52916835,-8.7040808)"
       id="g992">
      <rect
         ry="2.6458333"
         rx="2.6458333"
         y="35.057297"
         x="0.66146195"
         height="38.364571"
         width="78.052078"
         id="rect945"
         style="fill:#d38d5f;fill-opacity:1;stroke:#000000;stroke-width:1.32292;stroke-miterlimit:4;stroke-dasharray:none;stroke-opacity:1;stop-color:#000000" />
      <rect
         ry="1.3229166"
         rx="1.3229166"
         y="35.057297"
         x="0.66146195"
         height="7.9375"
         width="77.536148"
         id="rect951"
         style="fill:#784421;fill-opacity:1;stroke:#000000;stroke-width:1.32292;stroke-miterlimit:4;stroke-dasharray:none;stroke-opacity:1;stop-color:#000000" />
      <rect
         ry="2.6458333"
         rx="2.6458333"
         y="34.939125"
         x="32.411461"
         height="15.875"
         width="15.875"
         id="rect953"
         style="fill:#ffcc00;fill-opacity:1;stroke:#000000;stroke-width:1.32292;stroke-miterlimit:4;stroke-dasharray:none;stroke-opacity:1;stop-color:#000000" />
      <rect
         y="42.994797"
         x="16.536461"
         height="30.254673"
         width="15.568518"
         id="rect955"
         style="fill:#784421;fill-opacity:1;stroke:#000000;stroke-width:1.32292;stroke-miterlimit:4;stroke-dasharray:none;stroke-opacity:1;stop-color:#000000" />
      <rect
         y="42.994797"
         x="48.286461"
         height="30.254673"
         width="15.568518"
         id="rect955-5"
         style="fill:#784421;fill-opacity:1;stroke:#000000;stroke-width:1.32292;stroke-miterlimit:4;stroke-dasharray:none;stroke-opacity:1;stop-color:#000000" />
      <rect
         ry="1.5782827"
         rx="1.0212414"
         y="42.121563"
         x="39.211143"
         height="2.0110471"
         width="2.0110466"
         id="rect977"
         style="fill:#000000;fill-opacity:1;stroke:#000000;stroke-width:0.634786;stroke-miterlimit:4;stroke-dasharray:none;stroke-opacity:1;stop-color:#000000" />
    </g>
    <g
       style="fill:#000000"
       transform="matrix(0.0546653,0,0,0.0546653,66.225566,-27.911008)"
       id="g1861">
      <g
         style="fill:#000000"
         id="g1802">
        <g
           style="fill:#000000"
           transform="matrix(1.1848767,0.68027705,-0.68027705,1.1848767,-85.12996,107.78964)"
           id="g1800">
          <polygon
             clip-path="url(#clipPath1047)"
             points="439.359,232.255 439.359,358.195 426.883,396.203 445.742,421.445 452.123,421.445 470.981,396.203 458.506,358.195 458.506,222.599 "
             id="polygon1798-5"
             transform="matrix(0.06222909,-0.03293938,0.04952112,0.08959269,-512.67419,495.11318)"
             style="fill:#ffcc00;fill-opacity:1" />
          <polygon
             clip-path="url(#clipPath1110)"
             points="439.359,358.195 426.883,396.203 445.742,421.445 452.123,421.445 470.981,396.203 458.506,358.195 458.506,222.599 439.359,232.255 "
             id="polygon1798-4"
             transform="matrix(0.06255738,-0.03195187,0.0710187,0.12702638,-520.52399,481.24462)"
             style="fill:#1a1a1a;fill-opacity:1" />
          <path
             style="fill:#1a1a1a;fill-opacity:1;stroke-width:0.145563"
             id="path1796"
             d="m -527.92248,499.2324 v 10.14571 l 21.22824,10.22576 h 3.56715 l 21.16988,-10.19767 c 0.0203,-0.0448 0.0394,-0.0893 0.0585,-0.1342 v -10.03974 l -23.01196,11.08487 z" />
          <polygon
             style="fill:#333333;fill-opacity:1"
             transform="matrix(0.14556246,0,0,0.14556246,-541.80109,467.14488)"
             id="polygon1794"
             points="241.897,62.561 0,179.083 0,189.946 241.897,306.471 484.006,189.845 484.006,179.186 " />
        </g>
      </g>
      <g
         style="fill:#000000"
         id="g1804" />
      <g
         style="fill:#000000"
         id="g1806" />
      <g
         style="fill:#000000"
         id="g1808" />
      <g
         style="fill:#000000"
         id="g1810" />
      <g
         style="fill:#000000"
         id="g1812" />
      <g
         style="fill:#000000"
         id="g1814" />
      <g
         style="fill:#000000"
         id="g1816" />
      <g
         style="fill:#000000"
         id="g1818" />
      <g
         style="fill:#000000"
         id="g1820" />
      <g
         style="fill:#000000"
         id="g1822" />
      <g
         style="fill:#000000"
         id="g1824" />
      <g
         style="fill:#000000"
         id="g1826" />
      <g
         style="fill:#000000"
         id="g1828" />
      <g
         style="fill:#000000"
         id="g1830" />
      <g
         style="fill:#000000"
         id="g1832" />
    </g>
  </g>
</svg>
