<?xml version="1.0" encoding="UTF-8" standalone="no"?>
<svg
   viewBox="0 0 102.12918 102.12918"
   height="386"
   width="386"
   version="1.1"
   id="svg119"
   sodipodi:docname="logo_monochrome2.svg"
   inkscape:version="1.4 (e7c3feb1, 2024-10-09)"
   inkscape:export-filename="icon/icon/icon/icon/icon/icon/icon/icon/icon/icon/icon/icon/icon/icon/icon/icon/icon/icon/icon/icon/icon/icon/icon/icon/icon/icon/icon/icon/icon/icon/chestIconMonochrome.png"
   inkscape:export-xdpi="254.67357"
   inkscape:export-ydpi="254.67357"
   xmlns:inkscape="http://www.inkscape.org/namespaces/inkscape"
   xmlns:sodipodi="http://sodipodi.sourceforge.net/DTD/sodipodi-0.dtd"
   xmlns="http://www.w3.org/2000/svg"
   xmlns:svg="http://www.w3.org/2000/svg">
  <sodipodi:namedview
     id="namedview1"
     pagecolor="#ffffff"
     bordercolor="#666666"
     borderopacity="1.0"
     inkscape:showpageshadow="2"
     inkscape:pageopacity="0.0"
     inkscape:pagecheckerboard="0"
     inkscape:deskcolor="#d1d1d1"
     inkscape:zoom="1.3934975"
     inkscape:cx="158.59375"
     inkscape:cy="257.62515"
     inkscape:window-width="2528"
     inkscape:window-height="1345"
     inkscape:window-x="24"
     inkscape:window-y="25"
     inkscape:window-maximized="0"
     inkscape:current-layer="svg119" />
  <!-- <sodipodi:namedview
     id="namedview119"
     pagecolor="#ffffff"
     bordercolor="#666666"
     borderopacity="1.0"
     inkscape:showpageshadow="2"
     inkscape:pageopacity="0.0"
     inkscape:pagecheckerboard="0"
     inkscape:deskcolor="#d1d1d1"
     inkscape:zoom="0.93964214"
     inkscape:cx="354.39024"
     inkscape:cy="276.70109"
     inkscape:window-width="1680"
     inkscape:window-height="965"
     inkscape:window-x="0"
     inkscape:window-y="25"
     inkscape:window-maximized="1"
     inkscape:current-layer="svg119" /> -->
  <defs
     id="defs2">
    <clipPath
       id="a"
       clipPathUnits="userSpaceOnUse">
      <path
         transform="rotate(-1.353)"
         style="fill:#ffffff;fill-opacity:1;fill-rule:evenodd;stroke-width:7.08504;stroke-linejoin:round;paint-order:markers stroke fill"
         d="M 385.541,368.784 H 491.995 V 507.735 H 385.541 Z"
         id="path1" />
    </clipPath>
    <clipPath
       id="b"
       clipPathUnits="userSpaceOnUse">
      <path
         transform="rotate(-1.353)"
         style="fill:#ff0000;fill-opacity:1;fill-rule:evenodd;stroke-width:8.50991;stroke-linejoin:round;paint-order:markers stroke fill"
         d="m 405.249,215.32 h 68.57 v 153.501 h -68.57 z"
         id="path2" />
    </clipPath>
  </defs>
  <g
     id="g120"
     transform="translate(0.0342681,-0.20033861)"
     inkscape:export-filename="icon/chestIconMonochrome.png"
     inkscape:export-xdpi="254.67357"
     inkscape:export-ydpi="254.67357">
    <g
       transform="matrix(1.2086859,0,0,1.2086859,0.53048901,12.785876)"
       id="g3">
      <rect
         ry="2.6459999"
         rx="2.6459999"
         y="0.66100001"
         x="5.2919998"
         height="34.396"
         width="68.792"
         style="fill:none;fill-opacity:1;stroke:#000000;stroke-width:1.32292;stroke-miterlimit:4;stroke-dasharray:none;stroke-opacity:1;stop-color:#000000"
         id="rect2" />
      <rect
         ry="1.323"
         rx="1.323"
         y="5.9530001"
         x="10.583"
         height="29.104"
         width="58.208"
         style="fill:none;fill-opacity:1;stroke:#000000;stroke-width:1.32292;stroke-miterlimit:4;stroke-dasharray:none;stroke-opacity:1;stop-color:#000000"
         id="rect3" />
    </g>
    <path
       d="m 23.663096,29.807986 c -0.323983,-0.05529 -0.541255,-0.363019 -0.485951,-0.687056 l 0.300403,-1.76012 a 0.59416728,0.59416728 0 0 1 0.686167,-0.486046 0.59416728,0.59416728 0 0 1 0.48611,0.686121 l -0.300404,1.76012 c -0.05531,0.324037 -0.362288,0.542285 -0.686325,0.486981 z"
       style="fill:#ababab;stroke-width:0.0558008"
       id="path3" />
    <path
       d="m 25.652147,31.596222 -1.359624,-2.646651 a 0.59472529,0.59472529 0 0 0 -0.429212,-0.314687 0.59472529,0.59472529 0 0 0 -0.509291,0.15451 l -2.16056,2.045855 a 0.59500429,0.59500429 0 0 0 -0.159887,0.605132 0.5953949,0.5953949 0 0 0 0.468812,0.414339 l 3.520184,0.600797 a 0.5953949,0.5953949 0 0 0 0.579701,-0.235385 0.59299546,0.59299546 0 0 0 0.04988,-0.62391 z"
       style="fill:#626262;stroke-width:0.0558008"
       id="path4" />
    <path
       d="M 25.222944,31.281482 21.70276,30.680683 c -0.323982,-0.05529 -0.631022,0.162944 -0.686326,0.486981 l -0.400591,2.347138 a 0.59416728,0.59416728 0 0 0 0.48611,0.686121 l 3.520184,0.600797 a 0.59416728,0.59416728 0 0 0 0.686166,-0.486045 l 0.400591,-2.347138 c 0.05531,-0.324038 -0.161913,-0.631752 -0.48595,-0.687055 z"
       style="fill:#5e5e5e;stroke-width:0.0558008"
       id="path5" />
    <path
       d="m 26.611139,36.590912 -1.359583,-2.647551 a 0.59461369,0.59461369 0 0 0 -0.429203,-0.314742 l -3.520185,-0.600798 a 0.59461369,0.59461369 0 0 0 -0.5093,0.154565 l -2.160711,2.046734 a 0.59316287,0.59316287 0 0 0 -0.159727,0.604198 0.59372087,0.59372087 0 0 0 0.468812,0.414339 l 7.040478,1.201614 a 0.59372087,0.59372087 0 0 0 0.579702,-0.235386 c 0.133615,-0.181549 0.15361,-0.423078 0.04971,-0.622973 z"
       style="fill:#6f6f6f;stroke-width:0.0558008"
       id="path6" />
    <path
       d="m 24.679918,45.076768 -7.040479,-1.201615 a 0.59427888,0.59427888 0 0 0 -0.686175,0.486101 l -1.602197,9.387561 c -0.05531,0.324037 0.161913,0.631752 0.48595,0.687056 l 7.040479,1.201614 c 0.324038,0.05531 0.631022,-0.162943 0.686326,-0.486981 l 1.602196,-9.38756 a 0.59427888,0.59427888 0 0 0 -0.4861,-0.686176 z m 1.502017,-8.800598 -7.040478,-1.201614 a 0.59427888,0.59427888 0 0 0 -0.686176,0.486101 l -0.300403,1.760118 c -0.0553,0.323983 0.161923,0.631697 0.48596,0.687002 l 7.040478,1.201614 c 0.324037,0.05531 0.631022,-0.162944 0.686316,-0.486926 l 0.300404,-1.760119 A 0.59427888,0.59427888 0 0 0 26.181935,36.27617 Z"
       style="fill:#5e5e5e;stroke-width:0.0558008"
       id="path7" />
    <path
       d="m 19.485078,47.208816 c -0.323157,-0.05515 -0.630882,0.162118 -0.686327,0.486981 l -1.201614,7.040478 1.173981,0.200366 1.201616,-7.040479 C 20.028179,47.5713 19.80994,47.264261 19.485078,47.208816 Z m 2.348017,0.400742 c -0.324861,-0.05544 -0.63264,0.161818 -0.688085,0.486679 l -1.201615,7.040479 1.173927,0.200356 1.201614,-7.040478 c 0.05544,-0.324862 -0.162684,-0.631882 -0.485841,-0.687036 z m 4.772607,-10.05379 -8.288388,-1.414599 c -0.323157,-0.05515 -0.63088,0.16212 -0.686325,0.486981 l -1.40183,8.213581 c -0.05531,0.324037 0.162793,0.631902 0.48595,0.687056 l 8.288387,1.414597 c 0.323157,0.05515 0.631021,-0.162943 0.686326,-0.486981 l 1.40183,-8.21358 c 0.05544,-0.324861 -0.162793,-0.631901 -0.48595,-0.687055 z"
       style="fill:#6f6f6f;stroke-width:0.0558008"
       id="path8" />
    <path
       d="m 22.261256,38.02162 c -1.940593,-0.331205 -3.789842,0.97884 -4.121047,2.919432 -0.331346,1.941418 0.978839,3.789842 2.919432,4.121047 1.940537,0.331196 3.7897,-0.978014 4.121046,-2.919432 0.331206,-1.940593 -0.978894,-3.789851 -2.919431,-4.121047 z"
       style="fill:#fdfdfd;stroke-width:0.0558008"
       id="path9" />
    <path
       d="m 21.56027,42.128823 c -0.323982,-0.05529 -0.541255,-0.363019 -0.48596,-0.687001 l 0.400442,-2.346258 c 0.05545,-0.324862 0.362343,-0.542275 0.686325,-0.486981 0.324038,0.05531 0.541396,0.362194 0.485951,0.687056 l -0.400442,2.346259 c -0.05529,0.323981 -0.362279,0.542229 -0.686316,0.486925 z"
       style="fill:#2f2f2f;stroke-width:0.0558008"
       id="path10" />
    <path
       d="M 22.936652,44.071645 A 0.5957855,0.5957855 0 0 1 22.550863,43.828902 L 21.175362,41.88623 a 0.59349767,0.59349767 0 0 1 0.141691,-0.830197 c 0.267619,-0.189586 0.638906,-0.126218 0.828492,0.141401 l 1.377152,1.942953 c 0.189437,0.268499 0.12608,0.639731 -0.141691,0.830197 a 0.5957297,0.5957297 0 0 1 -0.444353,0.101066 z"
       style="fill:#2f2f2f;stroke-width:0.0558008"
       id="path11" />
    <path
       d="m 72.813545,39.13504 c -0.335414,0.05325 -0.650892,-0.175799 -0.704143,-0.51127 L 70.181079,26.475872 c -0.05325,-0.335471 0.175799,-0.650892 0.511213,-0.704134 0.33547,-0.05325 0.650086,0.175869 0.703337,0.511339 l 1.928323,12.147899 c 0.05325,0.33547 -0.174937,0.650813 -0.510407,0.704064 z"
       style="fill:#ababab;fill-opacity:1;stroke-width:0.0576593"
       id="path25" />
    <path
       d="m 82.990078,52.775764 c -2.516868,-3.109599 -5.255144,-8.263882 -7.91773,-14.906057 -2.020794,-5.041888 -3.297774,-9.199384 -3.309907,-9.241244 -0.09017,-0.292189 -0.380967,-0.474998 -0.683523,-0.426971 l -9.11e-4,1.44e-4 a 0.61435969,0.61435969 0 0 0 -0.518701,0.616876 c 4.5e-4,0.04278 0.06261,4.394105 -0.302872,9.814784 -0.481738,7.142171 -1.483845,12.891068 -2.896836,16.626349 a 0.61435969,0.61435969 0 0 0 0.09795,0.605686 0.61580117,0.61580117 0 0 0 0.57386,0.219028 l 2.429044,-0.38558 c 0.261611,-0.04152 0.46728,-0.245699 0.51062,-0.507062 0.0014,-0.0084 0.154671,-0.870086 0.694907,-1.776799 0.718179,-1.205029 1.752785,-1.922013 3.075818,-2.132027 1.308398,-0.207692 2.504598,0.1452 3.553087,1.049707 0.817793,0.70387 1.238674,1.493571 1.24149,1.499545 a 0.61522458,0.61522458 0 0 0 0.642486,0.324022 l 2.429955,-0.385724 a 0.61580117,0.61580117 0 0 0 0.47768,-0.386881 0.61539756,0.61539756 0 0 0 -0.09642,-0.607796 z M 75.718356,46.53596 a 0.61441735,0.61441735 0 0 1 -0.437324,0.30201 l -2.429501,0.385652 a 0.61447501,0.61447501 0 0 1 -0.709798,-0.644357 l 0.346786,-5.659468 a 0.61574351,0.61574351 0 0 1 0.517877,-0.570215 c 0.284731,-0.0452 0.56261,0.113215 0.668201,0.38194 l 2.081746,5.27397 a 0.61361012,0.61361012 0 0 1 -0.03802,0.530466 z"
       style="fill:#676767;stroke-width:0.0576593"
       id="path26" />
    <path
       d="m 79.920481,44.856421 -12.094027,1.919771 c -0.33547,0.05325 -0.563601,0.368586 -0.510359,0.704 l 0.385589,2.429101 c 0.05325,0.335413 0.367866,0.564591 0.70328,0.511349 L 80.498991,48.50087 c 0.335471,-0.05325 0.563602,-0.368584 0.510359,-0.703998 L 80.623761,45.36777 c -0.05325,-0.335414 -0.367866,-0.564592 -0.70328,-0.511349 z m -9.754553,-2.810913 6.065065,-0.962752 c 0.33547,-0.05325 0.564648,-0.367875 0.511416,-0.703232 l -0.385726,-2.429956 c -0.05325,-0.33547 -0.368729,-0.564513 -0.7042,-0.511262 l -6.065065,0.962753 c -0.335413,0.05325 -0.564456,0.36872 -0.511205,0.70419 l 0.385725,2.429956 c 0.05325,0.335414 0.368576,0.563545 0.70399,0.510303 z"
       style="fill:#888888;stroke-width:0.0576593"
       id="path27" />
    <path
       d="m 72.302187,39.838263 c 0.05325,0.335471 -0.175792,0.650949 -0.511205,0.704192 -0.335471,0.05325 -0.650037,-0.175936 -0.70329,-0.511407 a 0.61395607,0.61395607 0 0 1 0.510505,-0.703087 c 0.335413,-0.05325 0.650747,0.174889 0.70399,0.510302 z m 2.352906,-0.373494 c 0.05325,0.335471 -0.174879,0.650805 -0.510293,0.704047 -0.335015,0.05318 -0.650436,-0.175872 -0.703687,-0.511342 -0.05325,-0.335471 0.175887,-0.649972 0.510902,-0.703151 a 0.61389841,0.61389841 0 0 1 0.703078,0.510446 z m -3.529373,8.655848 c 0.05325,0.335471 -0.17488,0.650804 -0.510351,0.704056 -0.33547,0.05325 -0.650892,-0.1758 -0.704143,-0.51127 -0.05325,-0.335471 0.175791,-0.650949 0.511204,-0.704192 0.335414,-0.05325 0.650038,0.175935 0.70329,0.511406 z m 2.429955,-0.385725 c 0.05325,0.335471 -0.175791,0.650949 -0.511205,0.704192 -0.33547,0.05325 -0.650037,-0.175935 -0.703289,-0.511406 -0.05325,-0.33547 0.174937,-0.650813 0.51035,-0.704056 0.335414,-0.05324 0.650892,0.1758 0.704144,0.51127 z m 2.429443,-0.385642 c 0.05325,0.33547 -0.175733,0.65094 -0.511205,0.704192 -0.335015,0.05318 -0.650436,-0.175873 -0.703687,-0.511344 -0.05325,-0.33547 0.175733,-0.65094 0.510749,-0.704118 0.33547,-0.05325 0.650891,0.175799 0.704143,0.51127 z m 2.429101,-0.385589 c 0.05325,0.335471 -0.174936,0.650814 -0.51035,0.704055 -0.335414,0.05325 -0.650948,-0.17579 -0.704201,-0.511261 -0.05325,-0.33547 0.175791,-0.650948 0.511262,-0.7042 0.335471,-0.05325 0.650038,0.175936 0.703289,0.511406 z"
       style="fill:#3f3f3f;stroke-width:0.0576593"
       id="path28" />
    <path
       d="m 34.015733,31.445401 c -0.288164,0.06067 -0.570485,-0.124127 -0.631142,-0.412242 L 33.164947,29.98988 c -0.06067,-0.288164 0.123239,-0.571064 0.411354,-0.631722 0.288114,-0.06066 0.570474,0.124079 0.631142,0.412242 l 0.219644,1.043279 c 0.06065,0.288066 -0.12319,0.571054 -0.411354,0.631722 z"
       style="fill:#ababab;stroke-width:0.0499882"
       id="path42" />
    <path
       d="m 37.28971,34.326286 -2.966736,-3.734154 a 0.53262477,0.53262477 0 0 0 -0.932435,0.196308 l -1.208581,4.613194 a 0.53342459,0.53342459 0 0 0 0.129005,0.502838 0.53397446,0.53397446 0 0 0 0.496972,0.153958 l 4.173017,-0.878556 c 0.181919,-0.0383 0.32968,-0.166774 0.392711,-0.341266 a 0.53542412,0.53542412 0 0 0 -0.08395,-0.512322 z"
       style="fill:#626262;stroke-width:0.0499882"
       id="path43" />
    <path
       style="fill:#555555;stroke-width:0.0499882"
       d="m 33.522155,38.355348 3.951918,-0.832007 3.461085,16.439665 -3.951918,0.832007 z"
       id="path44" />
    <path
       d="m 39.864377,41.111428 -2.086558,0.439288 A 0.53232484,0.53232484 45 0 1 37.14688,41.139198 l -0.659076,-3.130522 c -0.06067,-0.288164 0.123239,-0.571064 0.411305,-0.631711 l 2.086557,-0.439289 c 0.288898,-0.06082 0.571991,0.12376 0.632659,0.411923 l 0.659077,3.130522 c 0.06066,0.288115 -0.124079,0.570474 -0.413025,0.631307 z m -5.21703,1.098355 -2.086509,0.439278 c -0.288898,0.06082 -0.571896,-0.123064 -0.632553,-0.411179 L 31.269208,39.10736 c -0.06067,-0.288163 0.123973,-0.571218 0.412919,-0.632051 l 2.086509,-0.439278 c 0.288164,-0.06067 0.570474,0.124079 0.631142,0.412242 l 0.659077,3.130522 a 0.53237483,0.53237483 45 0 1 -0.411508,0.630988 z"
       style="fill:#848484;stroke-width:0.0499882"
       id="path45" />
    <path
       d="M 34.427713,41.166553 31.81839,41.7159 c -0.287332,0.06049 -0.471973,0.343547 -0.411305,0.631711 l 2.746047,13.043334 3.651769,-0.768816 -2.746046,-13.043334 c -0.06067,-0.288164 -0.342979,-0.47291 -0.631142,-0.412242 z m 5.739795,-1.208414 -2.609323,0.549347 c -0.288115,0.06066 -0.471973,0.343548 -0.411305,0.631712 L 39.892927,54.182532 43.544696,53.413715 40.79865,40.370381 C 40.73798,40.082217 40.454889,39.897636 40.167508,39.958139 Z M 39.2053,37.980906 31.901761,39.518539 a 0.53367453,0.53367453 0 0 1 -0.437742,-0.100224 0.53287471,0.53287471 0 0 1 -0.205318,-0.398957 l -0.137829,-3.240261 a 0.53402444,0.53402444 0 0 1 0.423416,-0.544098 l 6.261043,-1.318153 c 0.255292,-0.05375 0.511116,0.08478 0.606851,0.327193 l 1.180276,3.020792 a 0.53277474,0.53277474 0 0 1 -0.02703,0.447875 0.5333746,0.5333746 0 0 1 -0.360126,0.2682 z"
       style="fill:#ececec;stroke-width:0.0499882"
       id="path46" />
    <path
       d="m 36.514222,40.727275 -1.042497,0.219479 c -0.288897,0.06082 -0.572001,-0.123808 -0.632669,-0.411972 -0.06067,-0.288164 0.124079,-0.570474 0.413025,-0.631307 l 1.042496,-0.219479 c 0.288849,-0.06081 0.571847,0.123074 0.632505,0.411189 0.06066,0.288115 -0.123963,0.571267 -0.41286,0.63209 z m 0.439432,2.087242 -1.042496,0.21948 c -0.288898,0.06082 -0.572001,-0.123809 -0.632659,-0.411923 -0.06067,-0.288164 0.123914,-0.571257 0.41286,-0.63209 l 1.042496,-0.219479 c 0.288849,-0.06081 0.572002,0.123808 0.632669,0.411971 0.06066,0.288115 -0.123973,0.571219 -0.41287,0.632041 z m 0.439278,2.086509 -1.042496,0.219479 c -0.288898,0.06082 -0.571847,-0.123074 -0.632504,-0.411189 -0.06066,-0.288115 0.123913,-0.571257 0.41286,-0.632089 l 1.042496,-0.21948 c 0.288848,-0.06081 0.572001,0.123808 0.632669,0.411972 0.06067,0.288164 -0.124127,0.570485 -0.413025,0.631307 z m 0.439433,2.087243 -1.042497,0.219479 c -0.288897,0.06082 -0.571991,-0.123759 -0.632658,-0.411923 -0.06067,-0.288164 0.124078,-0.570474 0.413024,-0.631307 l 1.042497,-0.219479 c 0.288848,-0.06081 0.571846,0.123074 0.632504,0.411189 0.06066,0.288115 -0.123973,0.571218 -0.41287,0.632041 z m 0.439453,2.08734 -1.042497,0.21948 c -0.288897,0.06082 -0.572001,-0.123809 -0.632669,-0.411972 -0.06067,-0.288164 0.123914,-0.571257 0.41286,-0.63209 l 1.042497,-0.219479 c 0.288848,-0.06081 0.572001,0.123808 0.632669,0.411971 0.06067,0.288164 -0.123963,0.571268 -0.41286,0.63209 z m 0.439267,2.08646 -1.042496,0.219479 c -0.288897,0.06082 -0.571847,-0.123074 -0.632504,-0.411189 -0.06066,-0.288115 0.123924,-0.571208 0.41287,-0.632041 l 1.042497,-0.219479 c 0.288848,-0.06081 0.57199,0.123759 0.632658,0.411923 0.06067,0.288164 -0.124127,0.570485 -0.413025,0.631307 z"
       style="fill:#3c3c3c;stroke-width:0.0499882"
       id="path47" />
    <path
       d="m 41.841607,50.502992 c -0.287381,0.0605 -0.472012,0.343607 -0.411344,0.631771 0.06067,0.288164 0.343772,0.472794 0.631153,0.412291 l 1.044012,-0.219799 -0.219808,-1.044061 z m -0.439268,-2.08646 c -0.287381,0.0605 -0.472166,0.342873 -0.411519,0.630939 0.06067,0.288164 0.343772,0.472794 0.631153,0.412291 l 1.044013,-0.219798 -0.219634,-1.04323 z m -0.439453,-2.08734 c -0.287381,0.0605 -0.472011,0.343607 -0.411344,0.63177 0.06067,0.288164 0.343607,0.472012 0.630988,0.411509 l 1.044013,-0.219799 -0.219644,-1.043279 z m -0.439432,-2.087243 c -0.287382,0.0605 -0.472012,0.343607 -0.411344,0.631771 0.06067,0.288164 0.343761,0.472745 0.631142,0.412242 l 1.044013,-0.219799 -0.219799,-1.044012 z m -0.439278,-2.086508 c -0.287382,0.0605 -0.472166,0.342873 -0.411509,0.630987 0.06066,0.288115 0.343761,0.472746 0.631142,0.412243 l 1.044013,-0.219799 -0.219634,-1.04323 z m -7.083906,2.580862 c 0.287381,-0.0605 0.472022,-0.343558 0.411354,-0.631721 -0.06067,-0.288164 -0.343607,-0.472012 -0.630988,-0.411509 l -1.044012,0.219799 0.219634,1.04323 z m 0.439443,2.087292 c 0.287381,-0.0605 0.472022,-0.343558 0.411354,-0.631722 -0.06067,-0.288164 -0.343772,-0.472794 -0.631153,-0.412291 l -1.044012,0.219799 0.219798,1.044012 z m 0.439278,2.086509 c 0.287381,-0.0605 0.472166,-0.342873 0.411508,-0.630988 -0.06066,-0.288115 -0.343771,-0.472794 -0.631152,-0.412291 l -1.044013,0.219798 0.219644,1.043279 z m 0.439443,2.087291 c 0.287381,-0.0605 0.472011,-0.343607 0.411343,-0.63177 -0.06066,-0.288115 -0.343596,-0.471963 -0.630977,-0.41146 l -1.044013,0.219799 0.219634,1.04323 z m 0.439443,2.087292 c 0.287381,-0.0605 0.472011,-0.343607 0.411343,-0.631771 -0.06067,-0.288164 -0.343771,-0.472794 -0.631152,-0.412291 l -1.044013,0.219799 0.219809,1.044061 z"
       style="fill:#3c3c3c;stroke-width:0.0499882"
       id="path48" />
    <path
       style="fill:#848484;stroke-width:0.0499882"
       d="m 31.17066,36.948299 0.04614,1.079808 8.014336,-1.687279 -0.3931,-1.006761 z"
       id="path49" />
    <path
       d="m 55.672976,35.546742 c -0.281451,-0.01422 -0.497101,-0.253574 -0.482915,-0.534358 l 0.154112,-3.05035 c 0.01419,-0.280784 0.25284,-0.496756 0.534291,-0.482537 0.280832,0.01419 0.496456,0.253112 0.48227,0.533896 l -0.154112,3.05035 c -0.01419,0.280784 -0.252862,0.497185 -0.533646,0.482999 z"
       style="fill:#8d8d8d;stroke-width:0.047724"
       id="path63" />
    <path
       d="M 56.792673,33.564284 54.758455,33.46151 c -0.280784,-0.01419 -0.496406,-0.253157 -0.482222,-0.533893 0.01419,-0.280784 0.252843,-0.496804 0.533579,-0.48262 l 2.034218,0.102774 c 0.280022,0.01415 0.496358,0.253154 0.482172,0.533938 -0.01418,0.280689 -0.253507,0.496722 -0.533529,0.482575 z"
       style="fill:#888888;stroke-width:0.047724"
       id="path64" />
    <path
       d="m 55.364753,41.647443 c -0.14075,-0.0071 -0.243152,-0.240744 -0.228969,-0.521481 l 0.07706,-1.525175 c 0.01419,-0.280784 0.139595,-0.502525 0.280345,-0.495414 0.140034,0.0071 0.242503,0.240329 0.228317,0.521113 l -0.07706,1.525175 c -0.01418,0.280737 -0.139659,0.502857 -0.279693,0.495782 z"
       style="fill:#434a54;stroke-width:0.047724"
       id="path65" />
    <path
       style="fill:#8d8d8d;stroke-width:0.047724"
       d="m 54.519839,38.185413 2.034218,0.102774 -0.06955,1.376657 -2.034219,-0.102774 z"
       id="path66" />
    <path
       d="m 58.014506,37.930667 -1.878533,-3.153045 a 0.50945375,0.50945375 0 0 0 -0.411621,-0.247774 0.50754479,0.50754479 0 0 0 -0.434401,0.205031 l -2.187949,2.947595 a 0.50754479,0.50754479 0 0 0 -0.09989,0.277505 l -0.154114,3.050398 c -0.01418,0.280737 0.202181,0.520128 0.482965,0.534313 l 4.066483,0.20545 c 0.281498,0.01422 0.520937,-0.20214 0.53512,-0.482877 l 0.154115,-3.050398 c 0.0051,-0.10014 -0.01976,-0.199927 -0.07218,-0.286198 z m -1.073583,2.776918 -3.049969,-0.154093 0.120646,-2.387974 1.640758,-2.210683 1.409211,2.364775 z"
       style="fill:#9f9f9f;stroke-width:0.047724"
       id="path67" />
    <path
       d="M 57.551557,38.69979 53.485075,38.49434 A 0.50974009,0.50974009 0 0 1 53.05032,38.203203 0.50840382,0.50840382 0 0 1 53.102,37.682474 l 2.187949,-2.947595 a 0.50754479,0.50754479 0 0 1 0.434401,-0.205031 c 0.169824,0.0086 0.324206,0.101484 0.411621,0.247774 l 1.878533,3.153045 a 0.50659031,0.50659031 0 0 1 -0.0011,0.523286 0.50888106,0.50888106 0 0 1 -0.461885,0.245837 z"
       style="fill:#626262;fill-opacity:1;stroke-width:0.047724"
       id="path68" />
    <path
       d="m 52.006159,47.594413 -1.525175,-0.07706 c -0.281499,-0.01422 -0.497103,-0.253527 -0.482879,-0.535073 l 0.205452,-4.06653 a 0.50897651,0.50897651 0 0 1 0.534311,-0.482918 l 1.525175,0.07706 c 0.280784,0.01419 0.496388,0.253491 0.482203,0.534275 l -0.205452,4.06653 c -0.01423,0.281546 -0.252898,0.4979 -0.533635,0.483716 z m 7.625542,0.385263 -1.525175,-0.07706 c -0.281499,-0.01422 -0.496388,-0.253491 -0.482164,-0.535037 l 0.205452,-4.06653 c 0.01419,-0.280784 0.252097,-0.497176 0.533596,-0.482954 l 1.525175,0.07706 c 0.281451,0.01422 0.496341,0.253488 0.482155,0.534272 l -0.205452,4.06653 c -0.01422,0.281546 -0.252135,0.497938 -0.533587,0.483719 z"
       style="fill:#929292;stroke-width:0.047724"
       id="path69" />
    <path
       d="m 52.185987,43.5059 -2.033789,-0.102752 -0.05138,1.016894 2.033789,0.102753 c 0.280784,0.01419 0.519412,-0.202218 0.533559,-0.482239 0.0142,-0.281118 -0.201447,-0.520472 -0.482183,-0.534656 z m 6.048991,1.325102 2.033026,0.102713 0.05138,-1.016894 -2.033027,-0.102714 c -0.281499,-0.01422 -0.519412,0.202217 -0.533615,0.483335 -0.01415,0.280021 0.20074,0.519338 0.482239,0.53356 z M 60.34506,43.40854 50.177877,42.894867 c -0.280784,-0.01419 -0.497168,-0.253195 -0.482982,-0.533979 0.01419,-0.280784 0.253575,-0.497101 0.534359,-0.482915 l 10.167182,0.513673 c 0.281499,0.01422 0.497914,0.253567 0.483728,0.534351 -0.01419,0.280784 -0.253605,0.496765 -0.535104,0.482543 z"
       style="fill:#696969;stroke-width:0.047724"
       id="path70" />
    <path
       d="m 58.466145,40.784643 -6.100367,-0.308206 a 0.50869017,0.50869017 0 0 0 -0.534293,0.482583 l -0.308205,6.10032 c -0.01422,0.281499 0.201381,0.520851 0.482879,0.535073 l 6.100367,0.308207 c 0.281499,0.01422 0.51941,-0.20217 0.533635,-0.483717 l 0.308204,-6.100319 c 0.01419,-0.280784 -0.200721,-0.519719 -0.48222,-0.533941 z"
       style="fill:#9f9f9f;stroke-width:0.047724"
       id="path71" />
    <path
       d="m 50.429666,48.003941 -5.084187,-0.256867 c -0.280737,-0.01418 -0.520127,0.202181 -0.534352,0.483728 l -0.308223,6.100701 c -0.01415,0.280021 0.202217,0.519412 0.482953,0.533595 l 5.084187,0.256867 c 0.280784,0.01419 0.519413,-0.202217 0.53356,-0.482239 l 0.308224,-6.1007 c 0.01422,-0.281499 -0.201426,-0.520902 -0.482162,-0.535085 z m 14.234142,0.719146 -5.083425,-0.256828 c -0.281499,-0.01422 -0.519412,0.202218 -0.533637,0.483764 l -0.308223,6.100701 c -0.01415,0.280021 0.20074,0.519337 0.482239,0.533559 l 5.083424,0.256828 c 0.281499,0.01422 0.520938,-0.20214 0.535085,-0.482161 l 0.308224,-6.100701 a 0.50983554,0.50983554 0 0 0 -0.483687,-0.535162 z"
       style="fill:#929292;stroke-width:0.047724"
       id="path72" />
    <path
       d="m 59.950197,46.524378 -0.312961,-0.218133 -3.850644,-2.881966 a 0.50840382,0.50840382 0 0 0 -0.487129,-0.0679 l -1.298897,0.497664 c -0.02584,0.0092 -0.05111,0.02131 -0.07493,0.03502 L 50.24962,46.04026 a 0.50730617,0.50730617 0 0 0 -0.251517,0.412865 l -0.411014,8.135252 c -0.01415,0.280022 0.201455,0.519374 0.482953,0.533596 l 9.150718,0.462318 c 0.281451,0.01422 0.519364,-0.202219 0.533512,-0.482241 l 0.411014,-8.135252 a 0.51112409,0.51112409 0 0 0 -0.215091,-0.442412 z"
       style="fill:#9f9f9f;stroke-width:0.047724"
       id="path73" />
    <path
       d="m 54.902396,50.269756 c -0.84302,-0.04259 -1.55964,0.6051 -1.602229,1.448071 l -0.154112,3.050351 3.049969,0.154092 0.154112,-3.05035 c 0.04259,-0.843019 -0.605103,-1.559592 -1.44774,-1.602164 z"
       style="fill:#6f6f6f;fill-opacity:1;stroke-width:0.047724"
       id="path74" />
    <path
       d="m 56.046963,47.795032 c -0.02837,0.561472 -0.506695,0.992791 -1.068263,0.964419 -0.562235,-0.0284 -0.994325,-0.505673 -0.965955,-1.067193 0.02837,-0.561521 0.506436,-0.994286 1.068671,-0.965881 0.561568,0.02837 0.993917,0.507134 0.965547,1.068655 z"
       style="fill:#696969;stroke-width:0.047724"
       id="path75" />
    <path
       d="m 55.107077,46.218478 c -0.841494,-0.04252 -1.559717,0.606625 -1.602231,1.448119 -0.04244,0.840017 0.606625,1.559717 1.448119,1.602231 0.84116,0.0425 1.55941,-0.608122 1.60185,-1.448138 0.04251,-0.841494 -0.606578,-1.559714 -1.447738,-1.602212 z m -0.102714,2.033027 c -0.280736,-0.01418 -0.497104,-0.253527 -0.482956,-0.533548 0.01419,-0.280784 0.253615,-0.497912 0.534351,-0.483728 0.280069,0.01415 0.496396,0.254303 0.48221,0.535087 -0.01415,0.280021 -0.253536,0.496338 -0.533605,0.482189 z"
       style="fill:#8e8e8e;stroke-width:0.047724"
       id="path76" />
    <path
       style="fill:#696969;stroke-width:0.047724"
       d="m 46.259053,50.362238 2.033837,0.102755 -0.154112,3.05035 -2.033837,-0.102755 z"
       id="path77" />
    <path
       d="m 48.113311,53.494037 -2.033837,-0.102754 c -0.280784,-0.01419 -0.496388,-0.253491 -0.482241,-0.533512 l 0.154112,-3.050351 c 0.01422,-0.281499 0.2529,-0.497947 0.533636,-0.483764 l 2.033837,0.102755 c 0.280737,0.01418 0.497101,0.253575 0.482877,0.535121 l -0.154112,3.05035 c -0.01415,0.280022 -0.253583,0.496337 -0.534272,0.482155 z m -1.473827,-1.094334 1.016561,0.05136 0.102716,-2.033075 -1.016561,-0.05136 z"
       style="fill:#696969;stroke-width:0.047724"
       id="path78" />
    <path
       style="fill:#696969;stroke-width:0.047724"
       d="m 61.510805,50.60363 2.034551,0.102791 -0.154111,3.05035 -2.034552,-0.102791 z"
       id="path79" />
    <path
       d="M 63.365444,54.793783 61.330892,54.690992 C 61.05087,54.676844 60.834503,54.437501 60.848651,54.15748 l 0.154111,-3.050351 c 0.01422,-0.281499 0.253616,-0.497911 0.533637,-0.483764 l 2.034552,0.102791 c 0.280021,0.01415 0.496386,0.253539 0.482162,0.535085 l -0.154112,3.05035 c -0.01415,0.280022 -0.253536,0.496339 -0.533557,0.482192 z m -1.47378,-1.094332 1.015798,0.05132 0.102717,-2.033075 -1.015799,-0.05132 z"
       style="fill:#696969;stroke-width:0.047724"
       id="path80" />
    <path
       d="M 65.321462,55.892507 43.969344,54.813741 c -0.281499,-0.01422 -0.497149,-0.253576 -0.483001,-0.533598 0.01422,-0.281499 0.252897,-0.4979 0.534396,-0.483678 l 21.352119,1.078766 c 0.281499,0.01422 0.496341,0.253488 0.482116,0.535035 -0.01415,0.280021 -0.252013,0.496463 -0.533512,0.482241 z"
       style="fill:#656d78;stroke-width:0.047724"
       id="path81" />
    <path
       d="m 49.441669,47.917323 c -0.169061,-0.0085 -0.330867,-0.101104 -0.419169,-0.260102 -0.136907,-0.245841 -0.04957,-0.55571 0.196267,-0.692617 l 5.769036,-3.219861 c 0.245794,-0.13691 0.55572,-0.04881 0.692646,0.19665 0.136926,0.24546 0.04883,0.555291 -0.196286,0.692999 L 49.7144,47.8535 a 0.5093583,0.5093583 0 0 1 -0.272731,0.06382 z"
       style="fill:#626262;fill-opacity:1;stroke-width:0.047724"
       id="path82" />
    <path
       d="m 60.62465,48.482317 c -0.09237,-0.0047 -0.183416,-0.03464 -0.264192,-0.091 l -5.416269,-3.784256 c -0.22999,-0.161712 -0.286409,-0.478843 -0.125441,-0.709253 0.160969,-0.230409 0.4781,-0.286829 0.708939,-0.125839 l 5.41547,3.784932 c 0.230791,0.160988 0.286448,0.478081 0.12546,0.708872 -0.104546,0.149302 -0.274143,0.225122 -0.443967,0.216542 z"
       style="fill:#626262;fill-opacity:1;stroke-width:0.047724"
       id="path83" />
    <g
       transform="matrix(1.2086859,0,0,1.2086859,0.53048901,12.785876)"
       id="g100">
      <rect
         ry="2.6459999"
         rx="2.6459999"
         y="35.056999"
         x="0.66100001"
         height="38.365002"
         width="78.052002"
         style="fill:none;fill-opacity:1;stroke:#000000;stroke-width:1.32292;stroke-miterlimit:4;stroke-dasharray:none;stroke-opacity:1;stop-color:#000000"
         id="rect97" />
      <rect
         ry="1.323"
         rx="1.323"
         y="35.056999"
         x="0.66100001"
         height="7.9380002"
         width="31.740744"
         style="fill:none;fill-opacity:1;stroke:#000000;stroke-width:1.32292;stroke-miterlimit:4;stroke-dasharray:none;stroke-opacity:1;stop-color:#000000"
         id="rect98" />
      <rect
         ry="1.323"
         rx="1.323"
         y="35.056999"
         x="48.295506"
         height="7.9380002"
         width="30.427332"
         style="fill:none;fill-opacity:1;stroke:#000000;stroke-width:1.32292;stroke-miterlimit:4;stroke-dasharray:none;stroke-opacity:1;stop-color:#000000"
         id="rect98-3" />
      <rect
         ry="2.6459999"
         rx="2.6459999"
         y="34.938999"
         x="32.410999"
         height="15.875"
         width="15.875"
         style="fill:none;fill-opacity:1;stroke:#000000;stroke-width:1.32292;stroke-miterlimit:4;stroke-dasharray:none;stroke-opacity:1;stop-color:#000000"
         id="rect99" />
      <path
         style="fill:none;fill-opacity:1;stroke:#000000;stroke-width:1.32292;stroke-miterlimit:4;stroke-dasharray:none;stroke-opacity:1;stop-color:#000000"
         d="M 16.536,42.995 H 32.105 V 73.25 H 16.536 Z m 31.75,0 H 63.855 V 73.25 H 48.286 Z"
         id="path99" />
      <rect
         ry="1.5779999"
         rx="1.021"
         y="42.122002"
         x="39.210999"
         height="2.0109999"
         width="2.0109999"
         style="fill:none;fill-opacity:1;stroke:#000000;stroke-width:0.634786;stroke-miterlimit:4;stroke-dasharray:none;stroke-opacity:1;stop-color:#000000"
         id="rect100" />
    </g>
    <g
       style="fill:#000000"
       id="g119"
       transform="matrix(8.3036955,0,0,8.3036955,-3.8704696,-1.4632652)">
      <g
         style="fill:#000000"
         id="g103">
        <path
           clip-path="url(#a)"
           transform="matrix(0.00526,1.8e-4,-1.2e-4,0.00765,9.95,1.407)"
           style="fill:#8f8f8f;fill-opacity:1"
           d="m 439.359,232.255 v 125.94 l -12.476,38.008 18.859,25.242 h 6.381 l 18.858,-25.242 -12.475,-38.008 V 222.599 Z"
           id="path100" />
        <path
           clip-path="url(#b)"
           transform="matrix(0.00524,2.6e-4,-1.2e-4,0.01087,9.957,0.217)"
           style="fill:#1a1a1a;fill-opacity:1"
           d="m 439.359,358.195 -12.476,38.008 18.859,25.242 h 6.381 l 18.858,-25.242 -12.475,-38.008 V 222.599 l -19.147,9.656 z"
           id="path101" />
        <path
           style="fill:#1a1a1a;fill-opacity:1;stroke-width:0.145563"
           d="m -527.922,499.232 v 10.146 l 21.228,10.226 h 3.567 l 21.17,-10.198 0.058,-0.134 v -10.04 l -23.012,11.085 z"
           transform="matrix(0.06478187,0.03719408,-0.03719408,0.06478187,61.577089,-11.598837)"
           id="path102" />
        <path
           style="fill:#333333;fill-opacity:1"
           transform="matrix(0.00942676,0.00541231,-0.00541231,0.00942676,9.1004876,-1.4878265)"
           d="M 241.897,62.561 0,179.083 v 10.863 L 241.897,306.471 484.006,189.845 v -10.659 z"
           id="path103" />
      </g>
      <g
         style="fill:#000000"
         transform="matrix(0.05467,0,0,0.05467,66.226,-17.491)"
         id="g104" />
      <g
         style="fill:#000000"
         transform="matrix(0.05467,0,0,0.05467,66.226,-17.491)"
         id="g105" />
      <g
         style="fill:#000000"
         transform="matrix(0.05467,0,0,0.05467,66.226,-17.491)"
         id="g106" />
      <g
         style="fill:#000000"
         transform="matrix(0.05467,0,0,0.05467,66.226,-17.491)"
         id="g107" />
      <g
         style="fill:#000000"
         transform="matrix(0.05467,0,0,0.05467,66.226,-17.491)"
         id="g108" />
      <g
         style="fill:#000000"
         transform="matrix(0.05467,0,0,0.05467,66.226,-17.491)"
         id="g109" />
      <g
         style="fill:#000000"
         transform="matrix(0.05467,0,0,0.05467,66.226,-17.491)"
         id="g110" />
      <g
         style="fill:#000000"
         transform="matrix(0.05467,0,0,0.05467,66.226,-17.491)"
         id="g111" />
      <g
         style="fill:#000000"
         transform="matrix(0.05467,0,0,0.05467,66.226,-17.491)"
         id="g112" />
      <g
         style="fill:#000000"
         transform="matrix(0.05467,0,0,0.05467,66.226,-17.491)"
         id="g113" />
      <g
         style="fill:#000000"
         transform="matrix(0.05467,0,0,0.05467,66.226,-17.491)"
         id="g114" />
      <g
         style="fill:#000000"
         transform="matrix(0.05467,0,0,0.05467,66.226,-17.491)"
         id="g115" />
      <g
         style="fill:#000000"
         transform="matrix(0.05467,0,0,0.05467,66.226,-17.491)"
         id="g116" />
      <g
         style="fill:#000000"
         transform="matrix(0.05467,0,0,0.05467,66.226,-17.491)"
         id="g117" />
      <g
         style="fill:#000000"
         transform="matrix(0.05467,0,0,0.05467,66.226,-17.491)"
         id="g118" />
    </g>
  </g>
</svg>
