<svg xmlns="http://www.w3.org/2000/svg" viewBox="0 0 12.7 12.7" height="48" width="48"><defs><clipPath id="a" clipPathUnits="userSpaceOnUse"><path transform="rotate(-1.353)" style="fill:#fff;fill-opacity:1;fill-rule:evenodd;stroke-width:7.08504;stroke-linejoin:round;paint-order:markers stroke fill" d="M385.541 368.784h106.454v138.951H385.541z"/></clipPath><clipPath id="b" clipPathUnits="userSpaceOnUse"><path transform="rotate(-1.353)" style="fill:red;fill-opacity:1;fill-rule:evenodd;stroke-width:8.50991;stroke-linejoin:round;paint-order:markers stroke fill" d="M405.249 215.32h68.57v153.501h-68.57z"/></clipPath></defs><g transform="translate(.53 1.716) scale(.14556)"><rect ry="2.646" rx="2.646" y=".661" x="5.292" height="34.396" width="68.792" style="fill:#d38d5f;fill-opacity:1;stroke:#000;stroke-width:1.32292;stroke-miterlimit:4;stroke-dasharray:none;stroke-opacity:1;stop-color:#000"/><rect ry="1.323" rx="1.323" y="5.953" x="10.583" height="29.104" width="58.208" style="fill:#28170b;fill-opacity:1;stroke:#000;stroke-width:1.32292;stroke-miterlimit:4;stroke-dasharray:none;stroke-opacity:1;stop-color:#000"/></g><path d="M255.992 53.326c-5.89 0-10.656-4.781-10.656-10.672V10.655A10.648 10.648 0 0 1 255.992 0a10.648 10.648 0 0 1 10.656 10.655v31.999c0 5.891-4.765 10.672-10.656 10.672z" style="fill:#434a54" transform="rotate(12.655 -13.789 9.398) scale(.00672)"/><path d="m296.521 78.919-31.998-42.655a10.658 10.658 0 0 0-8.531-4.265 10.658 10.658 0 0 0-8.531 4.265l-31.999 42.655a10.663 10.663 0 0 0-1 11.172 10.67 10.67 0 0 0 9.531 5.906h63.997a10.67 10.67 0 0 0 9.531-5.906 10.627 10.627 0 0 0-1-11.172z" style="fill:#656d78" transform="rotate(12.655 -13.789 9.398) scale(.00672)"/><path d="M287.99 74.653h-63.997c-5.89 0-10.656 4.781-10.656 10.672v42.671a10.648 10.648 0 0 0 10.656 10.655h63.997a10.648 10.648 0 0 0 10.656-10.655V85.325c0-5.891-4.765-10.672-10.656-10.672z" style="fill:#e9573f" transform="rotate(12.655 -13.789 9.398) scale(.00672)"/><path d="m328.521 164.261-32-42.671a10.656 10.656 0 0 0-8.531-4.266h-63.997a10.656 10.656 0 0 0-8.531 4.266l-31.999 42.671a10.63 10.63 0 0 0-1 11.155 10.64 10.64 0 0 0 9.531 5.906H319.99a10.64 10.64 0 0 0 9.531-5.906c1.813-3.61 1.438-7.937-1-11.155z" style="fill:#fc6e51" transform="rotate(12.655 -13.789 9.398) scale(.00672)"/><path d="M319.99 319.99H191.994a10.65 10.65 0 0 0-10.656 10.656v170.666c0 5.891 4.765 10.672 10.656 10.672H319.99c5.891 0 10.656-4.781 10.656-10.672V330.646a10.65 10.65 0 0 0-10.656-10.656zm0-159.995H191.994a10.65 10.65 0 0 0-10.656 10.656v31.999c0 5.89 4.765 10.671 10.656 10.671H319.99c5.891 0 10.656-4.781 10.656-10.671v-31.999a10.65 10.65 0 0 0-10.656-10.656z" style="fill:#e9573f" transform="rotate(12.655 -13.789 9.398) scale(.00672)"/><path d="M234.649 373.316c-5.875 0-10.656 4.766-10.656 10.672v127.996h21.343V383.988c0-5.906-4.781-10.672-10.687-10.672zm42.687 0c-5.906 0-10.688 4.766-10.688 10.672v127.996h21.342V383.988c0-5.906-4.779-10.672-10.654-10.672zm53.998-191.994H180.651c-5.875 0-10.656 4.766-10.656 10.672v149.323c0 5.891 4.781 10.672 10.656 10.672h150.683c5.875 0 10.656-4.781 10.656-10.672V191.994c0-5.906-4.781-10.672-10.656-10.672z" style="fill:#fc6e51" transform="rotate(12.655 -13.789 9.398) scale(.00672)"/><path d="M255.992 202.65c-35.28 0-63.998 28.718-63.998 63.998 0 35.295 28.718 63.998 63.998 63.998 35.279 0 63.998-28.703 63.998-63.998 0-35.28-28.719-63.998-63.998-63.998z" style="fill:#e6e9ed" transform="rotate(12.655 -13.789 9.398) scale(.00672)"/><path d="M255.992 277.319c-5.89 0-10.656-4.781-10.656-10.671v-42.655c0-5.906 4.766-10.672 10.656-10.672 5.891 0 10.656 4.766 10.656 10.672v42.655c0 5.89-4.765 10.671-10.656 10.671z" style="fill:#424953" transform="rotate(12.655 -13.789 9.398) scale(.00672)"/><path d="M286.164 307.49a10.677 10.677 0 0 1-7.547-3.125l-30.156-30.171a10.636 10.636 0 0 1 0-15.093c4.156-4.156 10.906-4.156 15.062 0l30.186 30.171c4.156 4.172 4.156 10.921 0 15.093a10.676 10.676 0 0 1-7.545 3.125z" style="fill:#424953" transform="rotate(12.655 -13.789 9.398) scale(.00672)"/><g transform="rotate(12.655 -13.789 9.398) scale(.00672)"/><g transform="rotate(12.655 -13.789 9.398) scale(.00672)"/><g transform="rotate(12.655 -13.789 9.398) scale(.00672)"/><g transform="rotate(12.655 -13.789 9.398) scale(.00672)"/><g transform="rotate(12.655 -13.789 9.398) scale(.00672)"/><g transform="rotate(12.655 -13.789 9.398) scale(.00672)"/><g transform="rotate(12.655 -13.789 9.398) scale(.00672)"/><g transform="rotate(12.655 -13.789 9.398) scale(.00672)"/><g transform="rotate(12.655 -13.789 9.398) scale(.00672)"/><g transform="rotate(12.655 -13.789 9.398) scale(.00672)"/><g transform="rotate(12.655 -13.789 9.398) scale(.00672)"/><g transform="rotate(12.655 -13.789 9.398) scale(.00672)"/><g transform="rotate(12.655 -13.789 9.398) scale(.00672)"/><g transform="rotate(12.655 -13.789 9.398) scale(.00672)"/><g transform="rotate(12.655 -13.789 9.398) scale(.00672)"/><path d="M256.001 234.665c-5.89 0-10.671-4.781-10.671-10.672V10.671C245.33 4.78 250.111 0 256.001 0c5.891 0 10.657 4.78 10.657 10.671v213.322c0 5.891-4.766 10.672-10.657 10.672z" style="fill:#434a54" transform="matrix(.00674 -.00167 .00167 .00674 7.031 3.896)"/><path d="M393.224 495.984c-34.656-60.107-67.545-155.839-95.092-276.851-20.905-91.856-31.474-166.541-31.568-167.291-.75-5.25-5.234-9.172-10.547-9.172h-.016a10.655 10.655 0 0 0-10.562 9.156c-.109.734-10.875 75.436-31.874 167.292-27.671 121.027-60.467 216.774-94.826 276.913a10.655 10.655 0 0 0 .031 10.641 10.68 10.68 0 0 0 9.234 5.312h42.655c4.594 0 8.672-2.938 10.125-7.297.047-.141 5.015-14.483 16.734-28.545 15.578-18.688 35.249-28.156 58.482-28.156 22.976 0 42.506 9.297 58.006 27.641 12.094 14.28 17.156 28.951 17.188 29.061a10.67 10.67 0 0 0 10.124 7.297h42.671a10.68 10.68 0 0 0 9.234-5.328 10.673 10.673 0 0 0 .001-10.673zm-107.59-126.652a10.656 10.656 0 0 1-8.312 3.984h-42.663a10.657 10.657 0 0 1-10.406-12.967l21.328-95.997a10.679 10.679 0 0 1 10.421-8.359c5 0 9.329 3.469 10.407 8.359l21.318 95.997a10.642 10.642 0 0 1-2.093 8.983z" style="fill:#da4453" transform="matrix(.00674 -.00167 .00167 .00674 7.031 3.896)"/><path d="M362.178 351.989H149.802c-5.891 0-10.656 4.781-10.656 10.671v42.656c0 5.89 4.766 10.671 10.656 10.671h212.376c5.891 0 10.656-4.781 10.656-10.671V362.66c0-5.89-4.766-10.671-10.656-10.671zm-159.441-74.67h106.505c5.891 0 10.672-4.766 10.672-10.655v-42.671c0-5.891-4.781-10.672-10.672-10.672H202.737c-5.89 0-10.671 4.781-10.671 10.672v42.671c0 5.89 4.781 10.655 10.671 10.655z" style="fill:#ed5564" transform="matrix(.00674 -.00167 .00167 .00674 7.031 3.896)"/><path d="M245.33 245.32c0 5.891-4.781 10.672-10.671 10.672-5.891 0-10.656-4.781-10.656-10.672a10.648 10.648 0 0 1 10.656-10.655c5.89 0 10.671 4.765 10.671 10.655zm41.318 0c0 5.891-4.765 10.672-10.655 10.672-5.883 0-10.663-4.781-10.663-10.672 0-5.891 4.78-10.655 10.663-10.655a10.647 10.647 0 0 1 10.655 10.655zm-83.989 138.668c0 5.891-4.765 10.672-10.656 10.672-5.891 0-10.671-4.781-10.671-10.672 0-5.891 4.781-10.672 10.671-10.672s10.656 4.781 10.656 10.672zm42.671 0c0 5.891-4.781 10.672-10.671 10.672-5.891 0-10.656-4.781-10.656-10.672 0-5.891 4.766-10.672 10.656-10.672 5.89 0 10.671 4.781 10.671 10.672zm42.662 0c0 5.891-4.78 10.672-10.671 10.672-5.883 0-10.663-4.781-10.663-10.672 0-5.891 4.78-10.672 10.663-10.672 5.891 0 10.671 4.781 10.671 10.672zm42.656 0c0 5.891-4.766 10.672-10.656 10.672-5.89 0-10.672-4.781-10.672-10.672 0-5.891 4.781-10.672 10.672-10.672 5.891 0 10.656 4.781 10.656 10.672z" style="fill:#da4453" transform="matrix(.00674 -.00167 .00167 .00674 7.031 3.896)"/><g transform="matrix(.00674 -.00167 .00167 .00674 7.031 3.896)"/><g transform="matrix(.00674 -.00167 .00167 .00674 7.031 3.896)"/><g transform="matrix(.00674 -.00167 .00167 .00674 7.031 3.896)"/><g transform="matrix(.00674 -.00167 .00167 .00674 7.031 3.896)"/><g transform="matrix(.00674 -.00167 .00167 .00674 7.031 3.896)"/><g transform="matrix(.00674 -.00167 .00167 .00674 7.031 3.896)"/><g transform="matrix(.00674 -.00167 .00167 .00674 7.031 3.896)"/><g transform="matrix(.00674 -.00167 .00167 .00674 7.031 3.896)"/><g transform="matrix(.00674 -.00167 .00167 .00674 7.031 3.896)"/><g transform="matrix(.00674 -.00167 .00167 .00674 7.031 3.896)"/><g transform="matrix(.00674 -.00167 .00167 .00674 7.031 3.896)"/><g transform="matrix(.00674 -.00167 .00167 .00674 7.031 3.896)"/><g transform="matrix(.00674 -.00167 .00167 .00674 7.031 3.896)"/><g transform="matrix(.00674 -.00167 .00167 .00674 7.031 3.896)"/><g transform="matrix(.00674 -.00167 .00167 .00674 7.031 3.896)"/><path d="M255.992 42.67c-5.891 0-10.656-4.781-10.656-10.671V10.671C245.336 4.78 250.102 0 255.992 0c5.89 0 10.656 4.78 10.656 10.671v21.328c0 5.889-4.765 10.671-10.656 10.671z" style="fill:#434a54" transform="rotate(-11.889 20.849 -12.399) scale(.00602)"/><path d="m308.209 112.558-42.686-85.325a10.655 10.655 0 0 0-19.062 0l-42.671 85.325a10.671 10.671 0 0 0 .453 10.375 10.682 10.682 0 0 0 9.094 5.062h85.31c3.719 0 7.141-1.906 9.094-5.062a10.711 10.711 0 0 0 .468-10.375z" style="fill:#656d78" transform="rotate(-11.889 20.849 -12.399) scale(.00602)"/><path style="fill:#5d9cec" d="M217.852 175.902h80.79v336.08h-80.79z" transform="rotate(-11.889 20.849 -12.399) scale(.00602)"/><path d="M330.646 255.992H287.99a10.649 10.649 0 0 1-10.655-10.656v-63.998c0-5.891 4.766-10.671 10.655-10.671h42.656c5.906 0 10.687 4.78 10.687 10.671v63.998c0 5.89-4.78 10.656-10.687 10.656zm-106.653 0h-42.655c-5.906 0-10.688-4.766-10.688-10.656v-63.998c0-5.891 4.781-10.671 10.688-10.671h42.655c5.891 0 10.656 4.78 10.656 10.671v63.998a10.65 10.65 0 0 1-10.656 10.656z" style="fill:#f6bb42" transform="rotate(-11.889 20.849 -12.399) scale(.00602)"/><path d="M223.993 234.665H170.65c-5.874 0-10.655 4.78-10.655 10.671v266.648h74.654V245.336c0-5.891-4.765-10.671-10.656-10.671zm117.34 0H287.99c-5.89 0-10.655 4.78-10.655 10.671v266.648h74.654V245.336c0-5.891-4.781-10.671-10.656-10.671zm-10.687-42.671H181.338a10.676 10.676 0 0 1-8.156-3.766 10.66 10.66 0 0 1-2.375-8.656l10.656-63.998a10.683 10.683 0 0 1 10.531-8.906H319.99c5.219 0 9.656 3.766 10.531 8.906l10.655 63.998a10.658 10.658 0 0 1-2.375 8.656 10.67 10.67 0 0 1-8.155 3.766z" style="fill:#ffce54" transform="rotate(-11.889 20.849 -12.399) scale(.00602)"/><path d="M266.648 234.665h-21.312c-5.906 0-10.687-4.781-10.687-10.672 0-5.891 4.78-10.656 10.687-10.656h21.312c5.905 0 10.687 4.766 10.687 10.656 0 5.89-4.781 10.672-10.687 10.672zm0 42.67h-21.312c-5.906 0-10.687-4.781-10.687-10.671 0-5.891 4.78-10.672 10.687-10.672h21.312c5.905 0 10.687 4.781 10.687 10.672 0 5.89-4.781 10.671-10.687 10.671zm0 42.655h-21.312c-5.906 0-10.687-4.766-10.687-10.656 0-5.89 4.78-10.672 10.687-10.672h21.312c5.905 0 10.687 4.781 10.687 10.672 0 5.891-4.781 10.656-10.687 10.656zm0 42.67h-21.312c-5.906 0-10.687-4.78-10.687-10.671 0-5.891 4.78-10.656 10.687-10.656h21.312c5.905 0 10.687 4.766 10.687 10.656 0 5.89-4.781 10.671-10.687 10.671zm0 42.672h-21.312c-5.906 0-10.687-4.781-10.687-10.672 0-5.891 4.78-10.672 10.687-10.672h21.312c5.905 0 10.687 4.781 10.687 10.672 0 5.891-4.781 10.672-10.687 10.672zm0 42.654h-21.312c-5.906 0-10.687-4.766-10.687-10.656 0-5.89 4.78-10.671 10.687-10.671h21.312c5.905 0 10.687 4.78 10.687 10.671 0 5.891-4.781 10.656-10.687 10.656z" style="fill:#4a89dc" transform="rotate(-11.889 20.849 -12.399) scale(.00602)"/><path d="M330.646 447.986c-5.875 0-10.656 4.781-10.656 10.672 0 5.891 4.781 10.672 10.656 10.672h21.343v-21.344zm0-42.654c-5.875 0-10.656 4.766-10.656 10.655 0 5.891 4.781 10.672 10.656 10.672h21.343v-21.327zm0-42.672c-5.875 0-10.656 4.781-10.656 10.672 0 5.891 4.781 10.656 10.656 10.656h21.343V362.66Zm0-42.67c-5.875 0-10.656 4.781-10.656 10.672 0 5.891 4.781 10.671 10.656 10.671h21.343V319.99Zm0-42.655c-5.875 0-10.656 4.766-10.656 10.656 0 5.89 4.781 10.671 10.656 10.671h21.343v-21.327zm-149.308 21.327c5.875 0 10.656-4.78 10.656-10.671 0-5.891-4.781-10.656-10.656-10.656h-21.343v21.327zm0 42.671c5.875 0 10.656-4.78 10.656-10.671 0-5.891-4.781-10.672-10.656-10.672h-21.343v21.343zm0 42.655c5.875 0 10.656-4.766 10.656-10.656 0-5.89-4.781-10.672-10.656-10.672h-21.343v21.328zm0 42.671c5.875 0 10.656-4.781 10.656-10.672 0-5.89-4.781-10.655-10.656-10.655h-21.343v21.327zm0 42.671c5.875 0 10.656-4.781 10.656-10.672 0-5.891-4.781-10.672-10.656-10.672h-21.343v21.344z" style="fill:#5d9cec" transform="rotate(-11.889 20.849 -12.399) scale(.00602)"/><path style="fill:#f6bb42" d="m177.619 138.667-3.547 21.328h163.839l-3.546-21.328z" transform="rotate(-11.889 20.849 -12.399) scale(.00602)"/><g transform="rotate(-11.889 20.849 -12.399) scale(.00602)"/><g transform="rotate(-11.889 20.849 -12.399) scale(.00602)"/><g transform="rotate(-11.889 20.849 -12.399) scale(.00602)"/><g transform="rotate(-11.889 20.849 -12.399) scale(.00602)"/><g transform="rotate(-11.889 20.849 -12.399) scale(.00602)"/><g transform="rotate(-11.889 20.849 -12.399) scale(.00602)"/><g transform="rotate(-11.889 20.849 -12.399) scale(.00602)"/><g transform="rotate(-11.889 20.849 -12.399) scale(.00602)"/><g transform="rotate(-11.889 20.849 -12.399) scale(.00602)"/><g transform="rotate(-11.889 20.849 -12.399) scale(.00602)"/><g transform="rotate(-11.889 20.849 -12.399) scale(.00602)"/><g transform="rotate(-11.889 20.849 -12.399) scale(.00602)"/><g transform="rotate(-11.889 20.849 -12.399) scale(.00602)"/><g transform="rotate(-11.889 20.849 -12.399) scale(.00602)"/><g transform="rotate(-11.889 20.849 -12.399) scale(.00602)"/><path d="M256.004 85.333c-5.905 0-10.671-4.781-10.671-10.672V10.663C245.333 4.772 250.099 0 256.004 0c5.892 0 10.657 4.772 10.657 10.663v63.998c0 5.891-4.766 10.672-10.657 10.672z" style="fill:#f6bb42" transform="matrix(.00574 .00029 -.00029 .00574 5.726 3.893)"/><path d="M277.34 42.662h-42.679c-5.891 0-10.656-4.773-10.656-10.663 0-5.891 4.766-10.664 10.656-10.664h42.679c5.875 0 10.655 4.773 10.655 10.664 0 5.889-4.78 10.663-10.655 10.663z" style="fill:#ffce54" transform="matrix(.00574 .00029 -.00029 .00574 5.726 3.893)"/><path d="M256.004 213.329c-2.953 0-5.343-4.781-5.343-10.671v-31.999c0-5.891 2.39-10.664 5.343-10.664 2.938 0 5.329 4.773 5.329 10.664v31.999c0 5.89-2.391 10.671-5.329 10.671z" style="fill:#434a54" transform="matrix(.00574 .00029 -.00029 .00574 5.726 3.893)"/><path style="fill:#ffce54" d="M234.662 141.772h42.679v28.883h-42.679z" transform="matrix(.00574 .00029 -.00029 .00574 5.726 3.893)"/><path d="M307.526 132.746 264.88 68.748a10.675 10.675 0 0 0-8.876-4.75 10.635 10.635 0 0 0-8.874 4.75l-42.671 63.998a10.635 10.635 0 0 0-1.797 5.913v63.999c0 5.89 4.781 10.671 10.672 10.671h85.317c5.906 0 10.688-4.781 10.688-10.671v-63.999c0-2.101-.625-4.163-1.813-5.913zm-19.531 59.248h-63.99v-50.101l31.999-47.998 31.991 47.998z" style="fill:#eaad7a" transform="matrix(.00574 .00029 -.00029 .00574 5.726 3.893)"/><path d="M298.651 149.331h-85.317a10.681 10.681 0 0 1-9.406-5.633 10.653 10.653 0 0 1 .531-10.952l42.671-63.998a10.635 10.635 0 0 1 8.874-4.75c3.563 0 6.892 1.781 8.876 4.75l42.646 63.998a10.615 10.615 0 0 1 .531 10.952 10.663 10.663 0 0 1-9.406 5.633z" style="fill:#ed5564" transform="matrix(.00574 .00029 -.00029 .00574 5.726 3.893)"/><path d="M192.006 341.333h-31.999c-5.906 0-10.671-4.78-10.671-10.687v-85.318a10.665 10.665 0 0 1 10.671-10.671h31.999c5.891 0 10.656 4.78 10.656 10.671v85.318c0 5.907-4.766 10.687-10.656 10.687zm159.988 0h-31.999c-5.906 0-10.656-4.78-10.656-10.687v-85.318c0-5.891 4.75-10.671 10.656-10.671h31.999c5.905 0 10.655 4.78 10.655 10.671v85.318c0 5.907-4.75 10.687-10.655 10.687z" style="fill:#965353" transform="matrix(.00574 .00029 -.00029 .00574 5.726 3.893)"/><path d="M192.006 266.656h-42.67v21.335h42.67c5.891 0 10.656-4.781 10.656-10.656 0-5.898-4.766-10.679-10.656-10.679zm127.989 21.335h42.654v-21.335h-42.654c-5.906 0-10.656 4.781-10.656 10.679 0 5.875 4.75 10.656 10.656 10.656zm42.654-31.999H149.336c-5.891 0-10.672-4.773-10.672-10.664s4.781-10.671 10.672-10.671h213.313c5.906 0 10.688 4.78 10.688 10.671 0 5.891-4.782 10.664-10.688 10.664z" style="fill:#7f4545" transform="matrix(.00574 .00029 -.00029 .00574 5.726 3.893)"/><path d="M319.995 191.994H192.006a10.659 10.659 0 0 0-10.671 10.664v127.988c0 5.906 4.765 10.687 10.671 10.687h127.989c5.906 0 10.656-4.78 10.656-10.687V202.658c0-5.891-4.75-10.664-10.656-10.664z" style="fill:#f4be8e" transform="matrix(.00574 .00029 -.00029 .00574 5.726 3.893)"/><path d="M160.007 362.644H53.338c-5.89 0-10.671 4.781-10.671 10.688v127.996c0 5.875 4.781 10.656 10.671 10.656h106.669c5.891 0 10.656-4.781 10.656-10.656V373.332c0-5.906-4.766-10.688-10.656-10.688zm298.64 0H351.994c-5.906 0-10.656 4.781-10.656 10.688v127.996c0 5.875 4.75 10.656 10.656 10.656h106.653c5.906 0 10.688-4.781 10.688-10.656V373.332a10.683 10.683 0 0 0-10.688-10.688z" style="fill:#965353" transform="matrix(.00574 .00029 -.00029 .00574 5.726 3.893)"/><path d="m357.68 321.615-6.78-4.234-83.63-56.24a10.653 10.653 0 0 0-10.266-.906l-26.656 11.788c-.531.219-1.047.5-1.531.812l-74.654 48.905a10.63 10.63 0 0 0-4.827 8.906v170.682c0 5.875 4.765 10.656 10.671 10.656h191.987c5.905 0 10.655-4.781 10.655-10.656V330.646a10.71 10.71 0 0 0-4.969-9.031z" style="fill:#ffd2a6" transform="matrix(.00574 .00029 -.00029 .00574 5.726 3.893)"/><path d="M256.004 405.332c-17.687 0-31.999 14.312-31.999 31.998v63.998h63.99V437.33c0-17.687-14.312-31.998-31.991-31.998z" style="fill:#ed5564" transform="matrix(.00574 .00029 -.00029 .00574 5.726 3.893)"/><path d="M277.34 352.333c0 11.78-9.554 21.312-21.336 21.312-11.796 0-21.343-9.531-21.343-21.312s9.547-21.343 21.343-21.343c11.782 0 21.336 9.562 21.336 21.343z" style="fill:#5d9cec" transform="matrix(.00574 .00029 -.00029 .00574 5.726 3.893)"/><path d="M256.004 320.334c-17.655 0-31.999 14.344-31.999 31.999 0 17.624 14.344 31.999 31.999 31.999 17.648 0 31.991-14.375 31.991-31.999 0-17.655-14.343-31.999-31.991-31.999zm0 42.654c-5.89 0-10.671-4.78-10.671-10.655 0-5.891 4.781-10.688 10.671-10.688 5.876 0 10.657 4.797 10.657 10.688 0 5.875-4.781 10.655-10.657 10.655z" style="fill:#f4be8e" transform="matrix(.00574 .00029 -.00029 .00574 5.726 3.893)"/><path style="fill:#5d9cec" d="M74.662 405.332h42.671v63.998H74.662z" transform="matrix(.00574 .00029 -.00029 .00574 5.726 3.893)"/><path d="M117.337 479.985H74.666c-5.891 0-10.656-4.78-10.656-10.655v-63.998c0-5.906 4.766-10.688 10.656-10.688h42.671c5.89 0 10.671 4.781 10.671 10.688v63.998c0 5.875-4.782 10.655-10.671 10.655zm-32-21.343h21.328v-42.655H85.337Z" style="fill:#7f4545" transform="matrix(.00574 .00029 -.00029 .00574 5.726 3.893)"/><path style="fill:#5d9cec" d="M394.652 405.332h42.686v63.998h-42.686z" transform="matrix(.00574 .00029 -.00029 .00574 5.726 3.893)"/><path d="M437.335 479.985h-42.686c-5.875 0-10.656-4.78-10.656-10.655v-63.998c0-5.906 4.781-10.688 10.656-10.688h42.686c5.875 0 10.656 4.781 10.656 10.688v63.998c0 5.875-4.781 10.655-10.656 10.655zm-31.999-21.343h21.312v-42.655h-21.312z" style="fill:#7f4545" transform="matrix(.00574 .00029 -.00029 .00574 5.726 3.893)"/><path d="M479.99 511.984H32.011c-5.906 0-10.672-4.781-10.672-10.656 0-5.906 4.766-10.687 10.672-10.687H479.99c5.906 0 10.655 4.78 10.655 10.687 0 5.875-4.749 10.656-10.655 10.656z" style="fill:#656d78" transform="matrix(.00574 .00029 -.00029 .00574 5.726 3.893)"/><path d="M138.68 350.802c-3.547 0-7.031-1.766-9.047-5-3.125-5-1.625-11.577 3.375-14.702l117.325-73.482c4.999-3.125 11.578-1.609 14.703 3.383s1.609 11.569-3.375 14.71L144.32 349.178a10.673 10.673 0 0 1-5.64 1.624z" style="fill:#ed5564" transform="matrix(.00574 .00029 -.00029 .00574 5.726 3.893)"/><path d="M373.305 350.802c-1.938 0-3.875-.531-5.625-1.625L250.332 275.71c-4.984-3.141-6.5-9.718-3.375-14.71 3.125-4.992 9.702-6.508 14.703-3.383l117.332 73.482c5 3.125 6.5 9.702 3.375 14.702-2.03 3.235-5.499 5.001-9.062 5.001z" style="fill:#ed5564" transform="matrix(.00574 .00029 -.00029 .00574 5.726 3.893)"/><g transform="matrix(.00574 .00029 -.00029 .00574 5.726 3.893)"/><g transform="matrix(.00574 .00029 -.00029 .00574 5.726 3.893)"/><g transform="matrix(.00574 .00029 -.00029 .00574 5.726 3.893)"/><g transform="matrix(.00574 .00029 -.00029 .00574 5.726 3.893)"/><g transform="matrix(.00574 .00029 -.00029 .00574 5.726 3.893)"/><g transform="matrix(.00574 .00029 -.00029 .00574 5.726 3.893)"/><g transform="matrix(.00574 .00029 -.00029 .00574 5.726 3.893)"/><g transform="matrix(.00574 .00029 -.00029 .00574 5.726 3.893)"/><g transform="matrix(.00574 .00029 -.00029 .00574 5.726 3.893)"/><g transform="matrix(.00574 .00029 -.00029 .00574 5.726 3.893)"/><g transform="matrix(.00574 .00029 -.00029 .00574 5.726 3.893)"/><g transform="matrix(.00574 .00029 -.00029 .00574 5.726 3.893)"/><g transform="matrix(.00574 .00029 -.00029 .00574 5.726 3.893)"/><g transform="matrix(.00574 .00029 -.00029 .00574 5.726 3.893)"/><g transform="matrix(.00574 .00029 -.00029 .00574 5.726 3.893)"/><g transform="translate(.53 1.716) scale(.14556)"><rect ry="2.646" rx="2.646" y="35.057" x=".661" height="38.365" width="78.052" style="fill:#d38d5f;fill-opacity:1;stroke:#000;stroke-width:1.32292;stroke-miterlimit:4;stroke-dasharray:none;stroke-opacity:1;stop-color:#000"/><rect ry="1.323" rx="1.323" y="35.057" x=".661" height="7.938" width="77.536" style="fill:#784421;fill-opacity:1;stroke:#000;stroke-width:1.32292;stroke-miterlimit:4;stroke-dasharray:none;stroke-opacity:1;stop-color:#000"/><rect ry="2.646" rx="2.646" y="34.939" x="32.411" height="15.875" width="15.875" style="fill:#fc0;fill-opacity:1;stroke:#000;stroke-width:1.32292;stroke-miterlimit:4;stroke-dasharray:none;stroke-opacity:1;stop-color:#000"/><path style="fill:#784421;fill-opacity:1;stroke:#000;stroke-width:1.32292;stroke-miterlimit:4;stroke-dasharray:none;stroke-opacity:1;stop-color:#000" d="M16.536 42.995h15.569V73.25H16.536zm31.75 0h15.569V73.25H48.286z"/><rect ry="1.578" rx="1.021" y="42.122" x="39.211" height="2.011" width="2.011" style="fill:#000;fill-opacity:1;stroke:#000;stroke-width:.634786;stroke-miterlimit:4;stroke-dasharray:none;stroke-opacity:1;stop-color:#000"/></g><g style="fill:#000"><g style="fill:#000"><path clip-path="url(#a)" transform="matrix(.00526 .00018 -.00012 .00765 9.95 1.407)" style="fill:#fc0;fill-opacity:1" d="M439.359 232.255v125.94l-12.476 38.008 18.859 25.242h6.381l18.858-25.242-12.475-38.008V222.599z"/><path clip-path="url(#b)" transform="matrix(.00524 .00026 -.00012 .01087 9.957 .217)" style="fill:#1a1a1a;fill-opacity:1" d="m439.359 358.195-12.476 38.008 18.859 25.242h6.381l18.858-25.242-12.475-38.008V222.599l-19.147 9.656z"/><path style="fill:#1a1a1a;fill-opacity:1;stroke-width:.145563" d="M-527.922 499.232v10.146l21.228 10.226h3.567l21.17-10.198.058-.134v-10.04l-23.012 11.085z" transform="rotate(29.862 52.537 109.661) scale(.0747)"/><path style="fill:#333;fill-opacity:1" transform="rotate(29.862 7.34 16.32) scale(.01087)" d="M241.897 62.561 0 179.083v10.863l241.897 116.525 242.109-116.626v-10.659z"/></g><g style="fill:#000" transform="translate(66.226 -17.491) scale(.05467)"/><g style="fill:#000" transform="translate(66.226 -17.491) scale(.05467)"/><g style="fill:#000" transform="translate(66.226 -17.491) scale(.05467)"/><g style="fill:#000" transform="translate(66.226 -17.491) scale(.05467)"/><g style="fill:#000" transform="translate(66.226 -17.491) scale(.05467)"/><g style="fill:#000" transform="translate(66.226 -17.491) scale(.05467)"/><g style="fill:#000" transform="translate(66.226 -17.491) scale(.05467)"/><g style="fill:#000" transform="translate(66.226 -17.491) scale(.05467)"/><g style="fill:#000" transform="translate(66.226 -17.491) scale(.05467)"/><g style="fill:#000" transform="translate(66.226 -17.491) scale(.05467)"/><g style="fill:#000" transform="translate(66.226 -17.491) scale(.05467)"/><g style="fill:#000" transform="translate(66.226 -17.491) scale(.05467)"/><g style="fill:#000" transform="translate(66.226 -17.491) scale(.05467)"/><g style="fill:#000" transform="translate(66.226 -17.491) scale(.05467)"/><g style="fill:#000" transform="translate(66.226 -17.491) scale(.05467)"/></g></svg>